<?xml version="1.0" encoding="utf-8"?>
<!-- Generator: Adobe Illustrator 21.1.0, SVG Export Plug-In . SVG Version: 6.00 Build 0)  -->
<svg version="1.1" xmlns="http://www.w3.org/2000/svg" xmlns:xlink="http://www.w3.org/1999/xlink" x="0px" y="0px"
	 viewBox="0 0 97 67.4" style="enable-background:new 0 0 97 67.4;" xml:space="preserve">
<style type="text/css">
	.st0{display:none;}
	.st1{display:inline;fill:#F5F5F5;}
	.st2{display:inline;fill:#E0E0E0;}
	.st3{display:inline;fill:#FFFFFF;}
	.st4{fill:#19191C;}
	.st5{fill:url(#SVGID_1_);}
	.st6{fill:url(#SVGID_2_);}
	.st7{fill:#474751;}
	.st8{fill:#111516;}
	.st9{fill:url(#SVGID_3_);}
	.st10{fill:url(#SVGID_4_);}
	.st11{fill:url(#SVGID_5_);}
	.st12{fill:url(#SVGID_6_);}
	.st13{fill:#E0E0E0;}
	.st14{fill:#EBEBEB;}
	.st15{fill:#F5F5F5;}
	.st16{fill:#FAFAFA;}
	.st17{fill:#131316;}
	.st18{fill:#27272D;}
	.st19{fill:#303035;}
	.st20{fill:#35353A;}
	.st21{display:inline;fill:#FAFAFA;}
	.st22{fill:url(#SVGID_7_);}
	.st23{fill:url(#SVGID_8_);}
	.st24{fill:url(#SVGID_9_);}
	.st25{fill:url(#SVGID_10_);}
	.st26{fill:url(#SVGID_11_);}
	.st27{fill:url(#SVGID_12_);}
	.st28{display:inline;fill:#EBEBEB;}
	.st29{display:inline;}
	.st30{fill:#263238;}
	.st31{fill:#455A64;}
	.st32{fill:#FFBE9D;}
	.st33{fill:#B78876;}
	.st34{fill:#E8505B;}
	.st35{opacity:0.3;}
	.st36{fill:#AA6550;}
	.st37{opacity:0.4;}
	.st38{fill:#FFFFFF;}
	.st39{fill:#BA7D25;}
	.st40{fill:url(#SVGID_13_);}
	.st41{fill:url(#SVGID_14_);}
	.st42{fill:url(#SVGID_15_);}
	.st43{fill:url(#SVGID_16_);}
	.st44{fill:url(#SVGID_17_);}
	.st45{fill:url(#SVGID_18_);stroke:url(#SVGID_19_);stroke-width:2;stroke-miterlimit:10;}
	.st46{fill:url(#SVGID_20_);}
	.st47{fill:url(#SVGID_21_);}
	.st48{fill:url(#SVGID_22_);}
	.st49{fill:url(#SVGID_23_);}
	.st50{fill:url(#SVGID_24_);}
	.st51{display:inline;fill:#BA7D25;}
	.st52{display:inline;fill:url(#SVGID_25_);}
	.st53{fill:url(#SVGID_26_);}
	.st54{fill:url(#SVGID_27_);}
	.st55{fill:url(#SVGID_28_);}
	.st56{fill:url(#SVGID_29_);}
	.st57{fill:#F7BF46;}
	.st58{fill:url(#SVGID_30_);}
	.st59{display:inline;fill:#E8505B;}
	.st60{display:inline;fill:#F7BF46;}
	.st61{fill:url(#SVGID_31_);}
	.st62{fill:url(#SVGID_32_);}
	.st63{fill:url(#SVGID_33_);}
	.st64{fill:url(#SVGID_34_);}
	.st65{opacity:0.2;}
</style>
<g id="Background_Complete">
	<g class="st0">
		<polygon class="st1" points="132.4,266.7 -13.7,-198.7 407.7,-198.7 296.7,266.7 		"/>
	</g>
</g>
<g id="Layer_7">
</g>
<g id="Background_Simple" class="st0">
	<path class="st28" d="M374.7-101.9c26.5,54.1,18.5,121.8-15.3,171.7s-90,82.2-149,93.9c-42.2,8.4-87.6,6.7-126.1-12.4
		C45.7,132.3,15.4,93.9,13.1,50.9c-0.9-16.2,2.6-33.4,13.4-45.6c17.3-19.3,46.8-20,72.7-19.2c25.9,0.8,55.4,0.2,72.8-19.1
		c13.3-14.8,15.3-36.3,22.3-54.9c12-31.7,40.8-56.5,74-63.5c22.4-4.7,46.2-1.3,66.7,8.9c14.3,7.1,26.2,18.3,34.6,31.9
		C372-106.5,374.2-102.9,374.7-101.9z"/>
</g>
<g id="Floor" class="st0">
</g>
<g id="Character" class="st0">
</g>
<g id="Bitcoin">
	<g>
		<g>
			<path class="st34" d="M3.9,7.2c0,0,13.6-10.9,58.5,12.8c0,0,45.2,19.7,30.1,38.5c-12.9,16-39.2,6.9-53.7,0.1
				c-7.6-3.6-16.9-9.6-23.4-15C3.9,33.9-5.7,19.4,3.9,7.2z"/>
			<path class="st39" d="M3.9,7.2c0,0,13.6-10.9,58.5,12.8c0,0,45.2,19.7,30.1,38.5c-12.9,16-39.2,6.9-53.7,0.1
				c-7.6-3.6-16.9-9.6-23.4-15C3.9,33.9-5.7,19.4,3.9,7.2z"/>
			<path class="st57" d="M5,6.4c0,0,15.9-16.5,60.8,7.2c0,0,44.1,25.1,27.3,42.4c-11.5,11.9-36.4,2.9-50.9-3.9
				c-7.6-3.6-18.2-9.6-24.7-14.9C6,27.5-2.6,15.2,5,6.4z"/>
			<linearGradient id="SVGID_1_" gradientUnits="userSpaceOnUse" x1="13.2869" y1="31.0717" x2="85.8613" y2="31.0717">
				<stop  offset="0" style="stop-color:#FFDE97"/>
				<stop  offset="1" style="stop-color:#DB9E1B"/>
			</linearGradient>
			<path class="st5" d="M56.9,17.2c19.6,10.4,32.3,25,28.2,32.6c-4,7.7-23.2,5.5-42.9-4.9C22.6,34.6,10,20,14,12.3
				C18.1,4.7,37.3,6.8,56.9,17.2z"/>
			<g class="st0">
				<path class="st59" d="M74.1,40.5L68,37c0,0-2.2-4.8-7.2-6.9S53.1,29,53.1,29s-0.1-4.9-7-8.2c-9-4.3-10.6-1.5-10.6-1.5l-7.4-4.3
					l-2,3.5l6.3,3.6l-0.6,1l-6.5-3.7l-2.1,3.6l6.6,3.5l-1,1.7L61.6,47l1.4-2.5l6.4,3.7l1.8-3.1l-6-3.5l0.9-1.6l6,3.4L74.1,40.5z
					 M45.3,32.6l-8.1-4.7c0,0,2.2-5.6,7.3-3.2C49.6,27.2,45.3,32.6,45.3,32.6z M58.6,39.9l-7-4c0,0,1-5.3,5.9-3.1
					C63.1,35.4,58.6,39.9,58.6,39.9z"/>
				<path class="st51" d="M74.1,40.5L68,37c0,0-2.2-4.8-7.2-6.9S53.1,29,53.1,29s-0.1-4.9-7-8.2c-9-4.3-10.6-1.5-10.6-1.5l-7.4-4.3
					l-2,3.5l6.3,3.6l-0.6,1l-6.5-3.7l-2.1,3.6l6.6,3.5l-1,1.7L61.6,47l1.4-2.5l6.4,3.7l1.8-3.1l-6-3.5l0.9-1.6l6,3.4L74.1,40.5z
					 M45.3,32.6l-8.1-4.7c0,0,2.2-5.6,7.3-3.2C49.6,27.2,45.3,32.6,45.3,32.6z M58.6,39.9l-7-4c0,0,1-5.3,5.9-3.1
					C63.1,35.4,58.6,39.9,58.6,39.9z"/>
				<path class="st60" d="M75.6,37.9l-6.1-3.5c0,0-2.2-4.8-7.2-6.9s-7.7-1.1-7.7-1.1s-0.1-4.9-7-8.2c-9-4.3-10.6-1.5-10.6-1.5
					l-7.4-4.3l-2,3.5l6.3,3.6l-0.6,1l-6.5-3.7l-2.1,3.6l6.6,3.5l-1,1.7l32.7,18.8l1.4-2.5l6.4,3.7l1.8-3.1l-6-3.5l0.9-1.6l6.2,3.6
					L75.6,37.9z M46.8,30l-8.1-4.7c0,0,2.2-5.6,7.3-3.2C51.1,24.6,46.8,30,46.8,30z M60.1,37.3l-7-4c0,0,1-5.3,5.9-3.1
					C64.6,32.7,60.1,37.3,60.1,37.3z"/>
			</g>
			<g>
				<path class="st16" d="M6.9,4.9c0,0,0.3-0.3,1-0.7c0.3-0.2,0.7-0.4,1.2-0.7c0.5-0.2,1.1-0.5,1.7-0.8c2.6-1.1,6.7-2.3,11.8-2.7
					C25.2-0.1,28,0,31.1,0.2c3,0.3,6.2,0.9,9.5,1.7C47.1,3.7,54,6.6,61,9.9C75.1,16.6,86.2,26,92.2,34.4c3,4.2,4.5,8.3,4.7,11.2
					c0,0.4,0.1,0.7,0.1,1c0,0.3,0,0.6,0,0.9c0,0.6,0,1-0.1,1.4c-0.1,0.7-0.2,1.1-0.3,1.1c-0.2,0,0.1-1.6-0.3-4.4
					c-0.4-2.8-2-6.6-5-10.6c-6.1-8-17.1-17.1-31-23.7c-7-3.3-13.7-6.2-20.2-8c-3.2-0.9-6.3-1.5-9.2-1.8c-2.9-0.3-5.7-0.4-8.2-0.3
					c-5,0.2-9,1.2-11.7,2.2C8.4,4.3,7,5,6.9,4.9z"/>
			</g>
			<path class="st39" d="M85.6,48.6c0,0,6.4-15.6-27.3-33.9C24.6-3.5,14,12.3,14,12.3s8.7-13.1,43.8,5.3
				C88.4,33.7,85.6,48.6,85.6,48.6z"/>
			<g>
				<path class="st30" d="M77,67c-0.2,0,0.1-1.3,0.6-2.7c0.5-1.4,1.1-2.6,1.2-2.5c0.1,0.1-0.2,1.3-0.7,2.7C77.6,65.9,77.1,67,77,67z
					"/>
			</g>
			<g>
				<path class="st30" d="M85.3,64.4c-0.2,0,0-1,0.5-2.2c0.4-1.2,0.9-2,1-2c0.1,0.1-0.1,1-0.5,2.2C85.8,63.6,85.4,64.4,85.3,64.4z"
					/>
			</g>
			<g>
				
					<ellipse transform="matrix(0.3325 -0.9431 0.9431 0.3325 -13.6344 109.6312)" class="st30" cx="70.6" cy="64.4" rx="3" ry="0.3"/>
			</g>
			<g>
				
					<ellipse transform="matrix(0.3325 -0.9431 0.9431 0.3325 -17.3876 102.2618)" class="st30" cx="63.6" cy="63.4" rx="3.3" ry="0.3"/>
			</g>
			<g>
				
					<ellipse transform="matrix(0.3325 -0.9431 0.9431 0.3325 -20.5882 93.5152)" class="st30" cx="55.8" cy="61.3" rx="3.3" ry="0.3"/>
			</g>
			<g>
				
					<ellipse transform="matrix(0.3325 -0.9431 0.9431 0.3325 -22.9728 85.0253)" class="st30" cx="48.6" cy="58.7" rx="3.3" ry="0.3"/>
			</g>
			<g>
				
					<ellipse transform="matrix(0.3325 -0.9431 0.9431 0.3325 -25.3575 76.5351)" class="st30" cx="41.4" cy="56.2" rx="3.3" ry="0.3"/>
			</g>
			<g>
				
					<ellipse transform="matrix(0.3325 -0.9431 0.9431 0.3325 -26.2806 67.63)" class="st30" cx="34.6" cy="52.4" rx="3.3" ry="0.3"/>
			</g>
			<g>
				
					<ellipse transform="matrix(0.3325 -0.9431 0.9431 0.3325 -27.0014 58.6673)" class="st30" cx="27.9" cy="48.4" rx="3.3" ry="0.3"/>
			</g>
			<g>
				
					<ellipse transform="matrix(0.3325 -0.9431 0.9431 0.3325 -27.525 49.6342)" class="st30" cx="21.3" cy="44.3" rx="3.3" ry="0.3"/>
			</g>
			<g>
				
					<ellipse transform="matrix(0.3325 -0.9431 0.9431 0.3325 -27.1385 40.7541)" class="st30" cx="15.2" cy="39.5" rx="3.3" ry="0.3"/>
			</g>
			<g>
				
					<ellipse transform="matrix(0.3325 -0.9431 0.9431 0.3325 -25.5713 31.3501)" class="st30" cx="9.4" cy="33.7" rx="3.3" ry="0.3"/>
			</g>
			<g>
				
					<ellipse transform="matrix(0.3326 -0.9431 0.9431 0.3326 -22.4713 22.7102)" class="st30" cx="4.8" cy="27.2" rx="2.9" ry="0.3"/>
			</g>
			<g>
				
					<ellipse transform="matrix(0.3325 -0.9431 0.9431 0.3325 -17.9016 14.8902)" class="st30" cx="1.6" cy="20.1" rx="2.9" ry="0.3"/>
			</g>
			<g>
				<path class="st39" d="M47.6,33.7l17.8-3.1c-0.2-0.4-0.5-0.8-0.9-1.2c-1.1-1.1-2.8-2.4-5.4-3.9c-2.5-1.4-4.9-2.6-7.3-3.5
					c-2.3-0.9-4.6-1.5-6.8-1.9c-2.2-0.4-4.2-0.6-6.2-0.6c-2,0-3.8,0.1-5.6,0.4L26,21.2L47.6,33.7z M41.2,24.9
					c0.7-0.1,1.4-0.2,2.2-0.2c0.8,0,1.6,0,2.5,0.1c0.9,0.1,1.8,0.4,2.7,0.7c1,0.3,1.9,0.8,3,1.4s1.7,1.1,2.1,1.6
					c0.4,0.4,0.5,0.8,0.4,1.2c-0.1,0.3-0.4,0.6-0.9,0.8c-0.5,0.2-1.1,0.4-1.8,0.5L48,31.4l-10.3-5.9L41.2,24.9z"/>
				<path class="st39" d="M49.9,35l16.3,9.4l3.3-0.6l-13-7.6l3.8-0.7c1.6-0.3,3-0.7,4-1.3c1-0.6,1.6-1.2,1.7-2.1c0,0,0-0.1,0-0.1
					L49.9,35z"/>
				<polygon class="st39" points="46,34 24.4,21.4 21.6,21.9 39.6,32.3 36.4,32.9 40.1,35 				"/>
				<polygon class="st39" points="64.5,44.7 48.2,35.3 42.3,36.3 46,38.4 49.1,37.8 61.7,45.2 				"/>
			</g>
			<g>
				<linearGradient id="SVGID_2_" gradientUnits="userSpaceOnUse" x1="27.0395" y1="24.5603" x2="66.4371" y2="24.5603">
					<stop  offset="0" style="stop-color:#FFF0D0"/>
					<stop  offset="1" style="stop-color:#F7BF46"/>
				</linearGradient>
				<path class="st6" d="M48.6,31.7l17.8-3.1c-0.2-0.4-0.5-0.8-0.9-1.2c-1.1-1.1-2.8-2.4-5.4-3.9c-2.5-1.4-4.9-2.6-7.3-3.5
					c-2.3-0.9-4.6-1.5-6.8-1.9c-2.2-0.4-4.2-0.6-6.2-0.6c-2,0-3.8,0.1-5.6,0.4L27,19.2L48.6,31.7z M42.2,22.9
					c0.7-0.1,1.4-0.2,2.2-0.2c0.8,0,1.6,0,2.5,0.1c0.9,0.1,1.8,0.4,2.7,0.7c1,0.3,1.9,0.8,3,1.4s1.7,1.1,2.1,1.6
					c0.4,0.4,0.5,0.8,0.4,1.2c-0.1,0.3-0.4,0.6-0.9,0.8c-0.5,0.2-1.1,0.4-1.8,0.5L49,29.4l-10.3-5.9L42.2,22.9z"/>
				<linearGradient id="SVGID_3_" gradientUnits="userSpaceOnUse" x1="50.8594" y1="36.2845" x2="70.4292" y2="36.2845">
					<stop  offset="0" style="stop-color:#FFF0D0"/>
					<stop  offset="1" style="stop-color:#F7BF46"/>
				</linearGradient>
				<path class="st9" d="M50.9,33l16.3,9.4l3.3-0.6l-13-7.6l3.8-0.7c1.6-0.3,3-0.7,4-1.3c1-0.6,1.6-1.2,1.7-2.1c0,0,0-0.1,0-0.1
					L50.9,33z"/>
				<linearGradient id="SVGID_4_" gradientUnits="userSpaceOnUse" x1="22.6404" y1="26.2189" x2="46.9828" y2="26.2189">
					<stop  offset="0" style="stop-color:#FFF0D0"/>
					<stop  offset="1" style="stop-color:#F7BF46"/>
				</linearGradient>
				<polygon class="st10" points="47,32 25.4,19.4 22.6,19.9 40.6,30.3 37.4,30.9 41.1,33 				"/>
				<linearGradient id="SVGID_5_" gradientUnits="userSpaceOnUse" x1="43.3122" y1="38.2157" x2="65.5073" y2="38.2157">
					<stop  offset="0" style="stop-color:#FFF0D0"/>
					<stop  offset="1" style="stop-color:#F7BF46"/>
				</linearGradient>
				<polygon class="st11" points="65.5,42.7 49.2,33.3 43.3,34.3 47,36.4 50.1,35.8 62.7,43.2 				"/>
			</g>
		</g>
		<polyline class="st38" points="41.1,33 37.4,30.9 40.6,30.3 22.6,19.9 23.5,19.8 42.3,30.6 38.8,31.1 41.1,33 		"/>
		<path class="st38" d="M76.9,31.4c6.5,6.7,9.5,13.2,7.2,17.5c-4,7.7-23.2,5.5-42.9-4.9c-8.1-4.3-15-9.3-20-14.2
			c5.1,5.2,12.4,10.6,21,15.2c19.6,10.4,38.8,12.6,42.9,4.9C87.5,45.3,84.1,38.4,76.9,31.4z"/>
	</g>
</g>
<g id="Plant" class="st0">
</g>
</svg>
