<?xml version="1.0" encoding="utf-8"?>
<!-- Generator: Adobe Illustrator 21.1.0, SVG Export Plug-In . SVG Version: 6.00 Build 0)  -->
<svg version="1.1" xmlns="http://www.w3.org/2000/svg" xmlns:xlink="http://www.w3.org/1999/xlink" x="0px" y="0px"
	 viewBox="0 0 119.1 119.3" style="enable-background:new 0 0 119.1 119.3;" xml:space="preserve">
<style type="text/css">
	.st0{display:none;}
	.st1{display:inline;fill:#F5F5F5;}
	.st2{display:inline;fill:#E0E0E0;}
	.st3{display:inline;fill:#FFFFFF;}
	.st4{fill:#19191C;}
	.st5{fill:url(#SVGID_1_);}
	.st6{fill:url(#SVGID_2_);}
	.st7{fill:#474751;}
	.st8{fill:#111516;}
	.st9{fill:url(#SVGID_3_);}
	.st10{fill:url(#SVGID_4_);}
	.st11{fill:url(#SVGID_5_);}
	.st12{fill:url(#SVGID_6_);}
	.st13{fill:#E0E0E0;}
	.st14{fill:#EBEBEB;}
	.st15{fill:#F5F5F5;}
	.st16{fill:#FAFAFA;}
	.st17{fill:#131316;}
	.st18{fill:#27272D;}
	.st19{fill:#303035;}
	.st20{fill:#35353A;}
	.st21{display:inline;fill:#FAFAFA;}
	.st22{fill:url(#SVGID_7_);}
	.st23{fill:url(#SVGID_8_);}
	.st24{fill:url(#SVGID_9_);}
	.st25{fill:url(#SVGID_10_);}
	.st26{fill:url(#SVGID_11_);}
	.st27{fill:url(#SVGID_12_);}
	.st28{display:inline;fill:#EBEBEB;}
	.st29{display:inline;}
	.st30{fill:#263238;}
	.st31{fill:#455A64;}
	.st32{fill:#FFBE9D;}
	.st33{fill:#B78876;}
	.st34{fill:#E8505B;}
	.st35{opacity:0.3;}
	.st36{fill:#AA6550;}
	.st37{opacity:0.4;}
	.st38{fill:#FFFFFF;}
	.st39{fill:#BA7D25;}
	.st40{fill:url(#SVGID_13_);}
	.st41{fill:url(#SVGID_14_);}
	.st42{fill:url(#SVGID_15_);}
	.st43{fill:url(#SVGID_16_);}
	.st44{fill:url(#SVGID_17_);}
	.st45{fill:url(#SVGID_18_);stroke:url(#SVGID_19_);stroke-width:2;stroke-miterlimit:10;}
	.st46{fill:url(#SVGID_20_);}
	.st47{fill:url(#SVGID_21_);}
	.st48{fill:url(#SVGID_22_);}
	.st49{fill:url(#SVGID_23_);}
	.st50{fill:url(#SVGID_24_);}
	.st51{display:inline;fill:#BA7D25;}
	.st52{display:inline;fill:url(#SVGID_25_);}
	.st53{fill:url(#SVGID_26_);}
	.st54{fill:url(#SVGID_27_);}
	.st55{fill:url(#SVGID_28_);}
	.st56{fill:url(#SVGID_29_);}
	.st57{fill:#F7BF46;}
	.st58{fill:url(#SVGID_30_);}
	.st59{display:inline;fill:#E8505B;}
	.st60{display:inline;fill:#F7BF46;}
	.st61{fill:url(#SVGID_31_);}
	.st62{fill:url(#SVGID_32_);}
	.st63{fill:url(#SVGID_33_);}
	.st64{fill:url(#SVGID_34_);}
	.st65{opacity:0.2;}
</style>
<g id="Background_Complete">
	<g class="st0">
		<polygon class="st1" points="-174,246.8 -320.1,-218.6 101.3,-218.6 -9.7,246.8 		"/>
		<path class="st3" d="M1,33.3C1.5,32.5,8,0.7,8,0.7l-9.1-1.1l17.8-22.4L25.2,4l-8.5-1.4l-6.2,33.5L1,33.3z"/>
	</g>
	<g>
		<g>
			<g>
				<ellipse transform="matrix(0.941 -0.3385 0.3385 0.941 -17.3671 24.6528)" class="st4" cx="62" cy="62.1" rx="57.1" ry="57.1"/>
			</g>
			<linearGradient id="SVGID_1_" gradientUnits="userSpaceOnUse" x1="0" y1="57.1491" x2="114.2982" y2="57.1491">
				<stop  offset="0" style="stop-color:#40404A"/>
				<stop  offset="1" style="stop-color:#1F1F24"/>
			</linearGradient>
			<circle class="st5" cx="57.1" cy="57.1" r="57.1"/>
			<linearGradient id="SVGID_2_" gradientUnits="userSpaceOnUse" x1="23.4444" y1="84.5806" x2="89.9646" y2="28.7635">
				<stop  offset="0" style="stop-color:#464651"/>
				<stop  offset="1" style="stop-color:#2B2B31"/>
			</linearGradient>
			<path class="st6" d="M97.7,41.9c7.9,22.1-4,46.5-26.6,54.7c-22.6,8.1-47.4-3.1-55.3-25.2s4-46.5,26.6-54.7S89.7,19.9,97.7,41.9z"
				/>
			<path class="st7" d="M71,96.5c-22.2,8-46.7-3.2-55.2-25.1c0.1,0.4,0.2,0.8,0.4,1.2c8.1,22.6,33.1,34.4,55.7,26.2
				c22.6-8.1,34.4-33.1,26.2-55.7c-0.1-0.4-0.3-0.8-0.4-1.2C104.9,64.2,93.2,88.5,71,96.5z"/>
			<path class="st8" d="M42.4,16.9c22.2-8,46.7,3.2,55.2,25.1c-0.1-0.4-0.2-0.8-0.4-1.2C89.1,18.2,64.2,6.4,41.6,14.6
				C18.9,22.7,7.2,47.6,15.3,70.2c0.1,0.4,0.3,0.8,0.4,1.2C8.5,49.1,20.2,24.9,42.4,16.9z"/>
			<g>
				<path class="st4" d="M82.2,60.6c-2.1-5.7-6.2-8.5-10.7-8.6c2.2-2.9,3-6.9,1.3-11.5c-2-5.7-6.6-8.5-13.1-7.7l-2.5-7l-6.4,2.3
					l2.3,6.5L49.5,36l-2.3-6.5l-6.4,2.3l2.3,6.5l-5.9,2.1l-4.1,1.5l2.3,6.4l4.1-1.5l11.3,31.3l-4.5,1.6l2.3,6.4l4.5-1.6l0,0l5.9-2.1
					l2.7,7.5l6.4-2.3l-2.7-7.5l3.7-1.3l2.7,7.5l6.4-2.3l-2.8-7.8C82.3,72.7,84.6,67.2,82.2,60.6z M47.7,44l8.7-3.1
					c4.8-1.7,8.3-0.7,9.8,3.4c1.5,4-0.6,7.1-5.4,8.8l-9.9,3.6l-4.4-12.2L47.7,44z M69.1,71.7l-10.6,3.8l-0.7,0.3L53.2,63l11.3-4.1
					c5.3-1.9,8.8-1,10.4,3.5C76.5,66.8,74.3,69.8,69.1,71.7z"/>
				<linearGradient id="SVGID_3_" gradientUnits="userSpaceOnUse" x1="29.9622" y1="59.1444" x2="80.0129" y2="59.1444">
					<stop  offset="0" style="stop-color:#32323B"/>
					<stop  offset="1" style="stop-color:#1D1D21"/>
				</linearGradient>
				<path class="st9" d="M79.1,61.8C77,56,73,53.3,68.4,53.2c2.2-2.9,3-6.9,1.3-11.5c-2-5.7-6.6-8.5-13.1-7.7l-2.5-7l-6.4,2.3
					l2.3,6.5l-3.7,1.3L44,30.7L37.6,33l2.3,6.5l-5.9,2.1L30,43.1l2.3,6.4l4.1-1.5l11.3,31.3L43.1,81l2.3,6.4l4.5-1.6l0,0l5.9-2.1
					l2.7,7.5l6.4-2.3l-2.7-7.5l3.7-1.3l2.7,7.5l6.4-2.3l-2.8-7.8C79.2,73.9,81.5,68.3,79.1,61.8z M44.5,45.1l8.7-3.1
					c4.8-1.7,8.3-0.7,9.8,3.4c1.5,4-0.6,7.1-5.4,8.8l-9.9,3.6l-4.4-12.2L44.5,45.1z M65.9,72.8l-10.6,3.8l-0.7,0.3L50,64.1L61.3,60
					c5.3-1.9,8.8-1,10.4,3.5C73.4,67.9,71.2,70.9,65.9,72.8z"/>
			</g>
			<g>
				<path class="st7" d="M44,30.7c0.1,0.3-2.4,1.4-6.2,2.9l0.4-0.8c0.7,1.8,1.6,4,2.5,6.4l0.3,0.7l-0.7,0.3
					c-0.6,0.2-1.1,0.4-1.7,0.6c-3,1.1-5.9,2.1-8.3,2.8l0.4-0.8c1.3,3.9,2,6.6,1.7,6.7c-0.3,0.1-1.4-2.4-2.9-6.2l-0.2-0.6l0.6-0.2
					c2.3-0.9,5.1-2,8.2-3.1c0.6-0.2,1.2-0.4,1.7-0.6l-0.5,1c-0.8-2.4-1.6-4.6-2.2-6.5l-0.2-0.6l0.6-0.2C41.3,31.1,43.9,30.4,44,30.7
					z"/>
			</g>
		</g>
	</g>
</g>
<g id="Layer_7">
</g>
<g id="Background_Simple" class="st0">
	<path class="st28" d="M68.3-121.8C94.8-67.7,86.7,0.1,53,49.9s-90,82.2-149,93.9c-42.2,8.4-87.6,6.7-126.1-12.4
		C-260.7,112.4-291,74-293.3,31.1c-0.9-16.2,2.6-33.4,13.4-45.6c17.3-19.3,46.8-20,72.7-19.2c25.9,0.8,55.4,0.2,72.8-19.1
		c13.3-14.8,15.3-36.3,22.3-54.9c12-31.7,40.8-56.5,74-63.5c22.4-4.7,46.2-1.3,66.7,8.9c14.3,7.1,26.2,18.3,34.6,31.9
		C65.6-126.4,67.8-122.7,68.3-121.8z"/>
</g>
<g id="Floor" class="st0">
</g>
<g id="Character" class="st0">
</g>
<g id="Bitcoin">
</g>
<g id="Plant" class="st0">
</g>
</svg>
