<?xml version="1.0" encoding="utf-8"?>
<!-- Generator: Adobe Illustrator 21.1.0, SVG Export Plug-In . SVG Version: 6.00 Build 0)  -->
<svg version="1.1" xmlns="http://www.w3.org/2000/svg" xmlns:xlink="http://www.w3.org/1999/xlink" x="0px" y="0px"
	 viewBox="0 0 151.4 154.7" style="enable-background:new 0 0 151.4 154.7;" xml:space="preserve">
<style type="text/css">
	.st0{display:none;}
	.st1{display:inline;fill:#F5F5F5;}
	.st2{display:inline;fill:#E0E0E0;}
	.st3{display:inline;fill:#FFFFFF;}
	.st4{fill:#19191C;}
	.st5{fill:url(#SVGID_1_);}
	.st6{fill:url(#SVGID_2_);}
	.st7{fill:#474751;}
	.st8{fill:#111516;}
	.st9{fill:url(#SVGID_3_);}
	.st10{fill:url(#SVGID_4_);}
	.st11{fill:url(#SVGID_5_);}
	.st12{fill:url(#SVGID_6_);}
	.st13{fill:#E0E0E0;}
	.st14{fill:#EBEBEB;}
	.st15{fill:#F5F5F5;}
	.st16{fill:#FAFAFA;}
	.st17{fill:#131316;}
	.st18{fill:#27272D;}
	.st19{fill:#303035;}
	.st20{fill:#35353A;}
	.st21{display:inline;fill:#FAFAFA;}
	.st22{fill:url(#SVGID_7_);}
	.st23{fill:url(#SVGID_8_);}
	.st24{fill:url(#SVGID_9_);}
	.st25{fill:url(#SVGID_10_);}
	.st26{fill:url(#SVGID_11_);}
	.st27{fill:url(#SVGID_12_);}
	.st28{display:inline;fill:#EBEBEB;}
	.st29{display:inline;}
	.st30{fill:#263238;}
	.st31{fill:#455A64;}
	.st32{fill:#FFBE9D;}
	.st33{fill:#B78876;}
	.st34{fill:#E8505B;}
	.st35{opacity:0.3;}
	.st36{fill:#AA6550;}
	.st37{opacity:0.4;}
	.st38{fill:#FFFFFF;}
	.st39{fill:#BA7D25;}
	.st40{fill:url(#SVGID_13_);}
	.st41{fill:url(#SVGID_14_);}
	.st42{fill:url(#SVGID_15_);}
	.st43{fill:url(#SVGID_16_);}
	.st44{fill:url(#SVGID_17_);}
	.st45{fill:url(#SVGID_18_);stroke:url(#SVGID_19_);stroke-width:2;stroke-miterlimit:10;}
	.st46{fill:url(#SVGID_20_);}
	.st47{fill:url(#SVGID_21_);}
	.st48{fill:url(#SVGID_22_);}
	.st49{fill:url(#SVGID_23_);}
	.st50{fill:url(#SVGID_24_);}
	.st51{display:inline;fill:#BA7D25;}
	.st52{display:inline;fill:url(#SVGID_25_);}
	.st53{fill:url(#SVGID_26_);}
	.st54{fill:url(#SVGID_27_);}
	.st55{fill:url(#SVGID_28_);}
	.st56{fill:url(#SVGID_29_);}
	.st57{fill:#F7BF46;}
	.st58{fill:url(#SVGID_30_);}
	.st59{display:inline;fill:#E8505B;}
	.st60{display:inline;fill:#F7BF46;}
	.st61{fill:url(#SVGID_31_);}
	.st62{fill:url(#SVGID_32_);}
	.st63{fill:url(#SVGID_33_);}
	.st64{fill:url(#SVGID_34_);}
	.st65{opacity:0.2;}
</style>
<g id="Background_Complete">
	<g class="st0">
		<polygon class="st1" points="28,10.7 -118.1,-454.7 303.3,-454.7 192.4,10.7 		"/>
		<path class="st2" d="M26.6,10.7c0,0,81.2-49.4,164.3,0H26.6z"/>
	</g>
</g>
<g id="Layer_7">
</g>
<g id="Background_Simple" class="st0">
</g>
<g id="Floor" class="st0">
	<g class="st29">
		<path class="st30" d="M294.7,10.7c0,0.1-86,0.3-192.1,0.3c-106.1,0-192.1-0.1-192.1-0.3c0-0.1,86-0.3,192.1-0.3
			C208.7,10.4,294.7,10.5,294.7,10.7z"/>
	</g>
</g>
<g id="Character" class="st0">
</g>
<g id="Bitcoin">
	<g>
		<g>
			<g>
				<g>
					
						<ellipse transform="matrix(0.9953 -9.675626e-02 9.675626e-02 0.9953 -7.4888 7.9204)" class="st34" cx="77.9" cy="81.2" rx="73.5" ry="73.5"/>
					
						<ellipse transform="matrix(0.9953 -9.675626e-02 9.675626e-02 0.9953 -7.4888 7.9204)" class="st39" cx="77.9" cy="81.2" rx="73.5" ry="73.5"/>
				</g>
				<linearGradient id="SVGID_1_" gradientUnits="userSpaceOnUse" x1="0" y1="73.4553" x2="146.9105" y2="73.4553">
					<stop  offset="0" style="stop-color:#FBD177"/>
					<stop  offset="1" style="stop-color:#F7BF46"/>
				</linearGradient>
				<circle class="st5" cx="73.5" cy="73.5" r="73.5"/>
				<linearGradient id="SVGID_2_" gradientUnits="userSpaceOnUse" x1="24.7757" y1="100.5926" x2="121.3283" y2="44.848">
					<stop  offset="0" style="stop-color:#FFDE97"/>
					<stop  offset="1" style="stop-color:#DB9E1B"/>
				</linearGradient>
				<path class="st6" d="M128.8,67.3c2.9,30-19.7,56.7-50.4,59.7c-30.8,3-58.1-18.9-61-48.9c-2.9-30,19.7-56.7,50.4-59.7
					S125.8,37.3,128.8,67.3z"/>
				<path class="st39" d="M67.8,18.6c30.2-2.9,57.1,18.8,60.9,48.7c0-0.5-0.1-1.1-0.1-1.6c-3-30.8-30.3-53.3-61.1-50.3
					c-30.8,3-53.3,30.3-50.3,61.1c0.1,0.5,0.1,1.1,0.2,1.6C15.3,48,37.6,21.6,67.8,18.6z"/>
				<g>
					<path class="st39" d="M103.6,85.7c-0.8-7.8-5-12.5-10.7-14.1c3.7-2.9,5.9-7.7,5.3-13.9c-0.7-7.7-5.6-12.7-13.8-13.8l-0.9-9.5
						l-8.8,0.9l0.9,8.8l-5,0.5l-0.9-8.8L61,36.8l0.9,8.8l-8,0.8l-5.6,0.5l0.9,8.8l5.6-0.5l4.1,42.6l-6.1,0.6l0.9,8.8l6.1-0.6l0,0
						l8-0.8l1,10.3l8.8-0.9l-1-10.3l5-0.5l1,10.3l8.8-0.9l-1-10.6C99.9,100.9,104.5,94.7,103.6,85.7z M65.8,54l11.9-1.2
						c6.6-0.6,10.6,1.7,11.1,7.3c0.5,5.5-2.9,8.6-9.5,9.3l-13.5,1.3l-1.6-16.6L65.8,54z M83.7,95.3l-14.4,1.4l-1,0.1l-1.7-17.4
						L82,78c7.2-0.7,11.3,1.6,11.9,7.6C94.5,91.6,90.9,94.6,83.7,95.3z"/>
					<linearGradient id="SVGID_3_" gradientUnits="userSpaceOnUse" x1="44.031" y1="75.687" x2="99.4661" y2="75.687">
						<stop  offset="0" style="stop-color:#FFF0D0"/>
						<stop  offset="1" style="stop-color:#F7BF46"/>
					</linearGradient>
					<path class="st9" d="M99.4,86.2c-0.8-7.8-5-12.5-10.7-14.1c3.7-2.9,5.9-7.7,5.3-13.9c-0.7-7.7-5.6-12.7-13.8-13.8L79.2,35
						l-8.8,0.9l0.9,8.8l-5,0.5l-0.9-8.8l-8.8,0.9l0.9,8.8l-8,0.8L44,47.3l0.9,8.8l5.6-0.5l4.1,42.6l-6.1,0.6l0.9,8.8l6.1-0.6v0
						l8-0.8l1,10.3l8.8-0.9l-1-10.3l5-0.5l1,10.3l8.8-0.9l-1-10.6C95.6,101.3,100.2,95.1,99.4,86.2z M61.6,54.4l11.9-1.2
						C80,52.7,84,55,84.5,60.6c0.5,5.5-2.9,8.6-9.5,9.3l-13.5,1.3L60,54.6L61.6,54.4z M79.5,95.7l-14.4,1.4l-1,0.1l-1.7-17.4
						l15.4-1.5c7.2-0.7,11.3,1.6,11.9,7.6C90.3,92,86.6,95,79.5,95.7z"/>
				</g>
				<g>
					<path class="st38" d="M65.5,36.3c0,0.2-3.4,0.8-8.7,1.4l0.5-0.6c0.3,2.5,0.6,5.5,1,8.8l0.1,0.6l-0.7,0.1
						c-0.8,0.1-1.6,0.2-2.4,0.2c-4.1,0.4-8,0.7-11.2,1l0.5-0.6c0.4,5.3,0.5,8.8,0.3,8.8c-0.2,0-0.8-3.4-1.4-8.7l-0.1-0.5l0.6-0.1
						c3.2-0.4,7-0.8,11.2-1.2c0.8-0.1,1.6-0.2,2.4-0.2l-0.6,0.7c-0.3-3.3-0.6-6.3-0.7-8.8l0-0.6l0.5,0C62,36.2,65.5,36.1,65.5,36.3z
						"/>
				</g>
				<g>
					
						<ellipse transform="matrix(0.8687 -0.4954 0.4954 0.8687 -65.9533 49.6975)" class="st30" cx="60.8" cy="149.2" rx="0.2" ry="4.4"/>
				</g>
				<g>
					
						<ellipse transform="matrix(0.8687 -0.4954 0.4954 0.8687 -65.6952 43.2681)" class="st30" cx="48.8" cy="145.5" rx="0.2" ry="4.2"/>
				</g>
				<g>
					
						<ellipse transform="matrix(0.8687 -0.4954 0.4954 0.8687 -64.5228 37.0851)" class="st30" cx="37.7" cy="140.2" rx="0.2" ry="4.2"/>
				</g>
				<g>
					
						<ellipse transform="matrix(0.8687 -0.4954 0.4954 0.8687 -65.0489 56.2304)" class="st30" cx="73.5" cy="150.8" rx="0.2" ry="4.4"/>
				</g>
				<g>
					
						<ellipse transform="matrix(0.8687 -0.4954 0.4954 0.8687 -63.1691 62.0114)" class="st30" cx="85.4" cy="150.2" rx="0.2" ry="4.4"/>
				</g>
				<g>
					
						<ellipse transform="matrix(0.8687 -0.4954 0.4954 0.8687 -60.3817 67.4455)" class="st30" cx="97" cy="147.6" rx="0.2" ry="4.4"/>
				</g>
				<g>
					
						<ellipse transform="matrix(0.8687 -0.4954 0.4954 0.8687 -56.9632 72.1139)" class="st30" cx="107.5" cy="143.5" rx="0.2" ry="4.4"/>
				</g>
				<g>
					
						<ellipse transform="matrix(0.8687 -0.4954 0.4954 0.8687 -52.6933 76.3914)" class="st30" cx="117.7" cy="137.6" rx="0.2" ry="4.4"/>
				</g>
				<g>
					
						<ellipse transform="matrix(0.8687 -0.4954 0.4954 0.8687 -47.9018 79.8108)" class="st30" cx="126.6" cy="130.3" rx="0.2" ry="4.4"/>
				</g>
				<g>
					
						<ellipse transform="matrix(0.8687 -0.4954 0.4954 0.8687 -43.2132 82.2701)" class="st30" cx="133.6" cy="122.6" rx="0.2" ry="4.4"/>
				</g>
				<g>
					
						<ellipse transform="matrix(0.8687 -0.4954 0.4954 0.8687 -37.9475 84.0488)" class="st30" cx="139.6" cy="113.6" rx="0.2" ry="4.4"/>
				</g>
				<g>
					
						<ellipse transform="matrix(0.8687 -0.4954 0.4954 0.8687 -32.1552 85.0997)" class="st30" cx="144.4" cy="103.2" rx="0.2" ry="4.4"/>
				</g>
				<g>
					
						<ellipse transform="matrix(0.8687 -0.4954 0.4954 0.8687 -26.2901 85.2441)" class="st30" cx="147.6" cy="92.2" rx="0.2" ry="4.4"/>
				</g>
				<g>
					<path class="st30" d="M151.3,82.8c-0.1,0.1-0.5-0.5-2-3.1c-1.5-2.6-2.6-4.7-2.5-4.8c0.1-0.1,1.4,2,2.9,4.6
						C151.2,82.1,151.4,82.8,151.3,82.8z"/>
				</g>
				<g>
					<path class="st30" d="M149.7,66c-0.1,0.1-0.5-0.5-2-3.1c-1.5-2.6-2.6-4.7-2.5-4.8c0.1-0.1,1.4,2,2.9,4.6
						C149.6,65.2,149.8,65.9,149.7,66z"/>
				</g>
			</g>
		</g>
		<path class="st38" d="M78.3,125c-30.8,3-58.1-18.9-61-48.9c-0.1-1.4-0.2-2.9-0.2-4.3c0,2.1,0,4.2,0.2,6.3
			c2.9,30,30.2,51.9,61,48.9c29.3-2.8,51.1-27.2,50.7-55.4C128.4,99,106.9,122.3,78.3,125z"/>
	</g>
</g>
<g id="Plant" class="st0">
</g>
</svg>
