<?xml version="1.0" encoding="utf-8"?>
<!-- Generator: Adobe Illustrator 21.1.0, SVG Export Plug-In . SVG Version: 6.00 Build 0)  -->
<svg version="1.1" xmlns="http://www.w3.org/2000/svg" xmlns:xlink="http://www.w3.org/1999/xlink" x="0px" y="0px"
	 viewBox="0 0 145 137.6" style="enable-background:new 0 0 145 137.6;" xml:space="preserve">
<style type="text/css">
	.st0{display:none;}
	.st1{display:inline;fill:#F5F5F5;}
	.st2{display:inline;fill:#E0E0E0;}
	.st3{display:inline;fill:#FFFFFF;}
	.st4{fill:#19191C;}
	.st5{fill:url(#SVGID_1_);}
	.st6{fill:url(#SVGID_2_);}
	.st7{fill:#474751;}
	.st8{fill:#111516;}
	.st9{fill:url(#SVGID_3_);}
	.st10{fill:url(#SVGID_4_);}
	.st11{fill:url(#SVGID_5_);}
	.st12{fill:url(#SVGID_6_);}
	.st13{fill:#E0E0E0;}
	.st14{fill:#EBEBEB;}
	.st15{fill:#F5F5F5;}
	.st16{fill:#FAFAFA;}
	.st17{fill:#131316;}
	.st18{fill:#27272D;}
	.st19{fill:#303035;}
	.st20{fill:#35353A;}
	.st21{display:inline;fill:#FAFAFA;}
	.st22{fill:url(#SVGID_7_);}
	.st23{fill:url(#SVGID_8_);}
	.st24{fill:url(#SVGID_9_);}
	.st25{fill:url(#SVGID_10_);}
	.st26{fill:url(#SVGID_11_);}
	.st27{fill:url(#SVGID_12_);}
	.st28{display:inline;fill:#EBEBEB;}
	.st29{display:inline;}
	.st30{fill:#263238;}
	.st31{fill:#455A64;}
	.st32{fill:#FFBE9D;}
	.st33{fill:#B78876;}
	.st34{fill:#E8505B;}
	.st35{opacity:0.3;}
	.st36{fill:#AA6550;}
	.st37{opacity:0.4;}
	.st38{fill:#FFFFFF;}
	.st39{fill:#BA7D25;}
	.st40{fill:url(#SVGID_13_);}
	.st41{fill:url(#SVGID_14_);}
	.st42{fill:url(#SVGID_15_);}
	.st43{fill:url(#SVGID_16_);}
	.st44{fill:url(#SVGID_17_);}
	.st45{fill:url(#SVGID_18_);stroke:url(#SVGID_19_);stroke-width:2;stroke-miterlimit:10;}
	.st46{fill:url(#SVGID_20_);}
	.st47{fill:url(#SVGID_21_);}
	.st48{fill:url(#SVGID_22_);}
	.st49{fill:url(#SVGID_23_);}
	.st50{fill:url(#SVGID_24_);}
	.st51{display:inline;fill:#BA7D25;}
	.st52{display:inline;fill:url(#SVGID_25_);}
	.st53{fill:url(#SVGID_26_);}
	.st54{fill:url(#SVGID_27_);}
	.st55{fill:url(#SVGID_28_);}
	.st56{fill:url(#SVGID_29_);}
	.st57{fill:#F7BF46;}
	.st58{fill:url(#SVGID_30_);}
	.st59{display:inline;fill:#E8505B;}
	.st60{display:inline;fill:#F7BF46;}
	.st61{fill:url(#SVGID_31_);}
	.st62{fill:url(#SVGID_32_);}
	.st63{fill:url(#SVGID_33_);}
	.st64{fill:url(#SVGID_34_);}
	.st65{opacity:0.2;}
</style>
<g id="Background_Complete">
	<g class="st0">
		<polygon class="st1" points="-193.6,459.8 -339.7,-5.6 81.7,-5.6 -29.3,459.8 		"/>
	</g>
</g>
<g id="Layer_7">
</g>
<g id="Background_Simple" class="st0">
	<path class="st28" d="M48.7,91.2C75.2,145.3,67.1,213,33.4,262.9s-90,82.2-149,93.9c-42.2,8.4-87.6,6.7-126.1-12.4
		c-38.5-19.1-68.8-57.5-71.2-100.4c-0.9-16.2,2.6-33.4,13.4-45.6c17.3-19.3,46.8-20,72.7-19.2c25.9,0.8,55.4,0.2,72.8-19.1
		c13.3-14.8,15.3-36.3,22.3-54.9c12-31.7,40.8-56.5,74-63.5c22.4-4.7,46.2-1.3,66.7,8.9C23.2,57.8,35.1,69,43.5,82.6
		C46,86.6,48.2,90.2,48.7,91.2z"/>
</g>
<g id="Floor" class="st0">
</g>
<g id="Character" class="st0">
</g>
<g id="Bitcoin">
	<g>
		<path class="st34" d="M131.7,3.6c0,0-27.4-10.9-88.3,50c0,0-63.4,54.5-29.5,77.4c28.8,19.5,66.9-8.4,87-26.7
			c10.6-9.6,22.6-24,30.4-35.9C145.1,46.9,153.4,18.6,131.7,3.6z"/>
		<path class="st39" d="M131.7,3.6c0,0-27.4-10.9-88.3,50c0,0-63.4,54.5-29.5,77.4c28.8,19.5,66.9-8.4,87-26.7
			c10.6-9.6,22.6-24,30.4-35.9C145.1,46.9,153.4,18.6,131.7,3.6z"/>
		<linearGradient id="SVGID_1_" gradientUnits="userSpaceOnUse" x1="130.7146" y1="3.1532" x2="8.3275" y2="125.5404">
			<stop  offset="0" style="stop-color:#FBD177"/>
			<stop  offset="1" style="stop-color:#F7BF46"/>
		</linearGradient>
		<path class="st5" d="M129.6,2.8c0,0-34-18.8-95,42.1c0,0-58.9,62.8-23,82.5c24.6,13.5,60.4-13.5,80.5-31.7
			c10.6-9.6,24.8-24.6,32.5-36.6C138.6,37.6,146.3,13.4,129.6,2.8z"/>
		<linearGradient id="SVGID_2_" gradientUnits="userSpaceOnUse" x1="17.9865" y1="65.1509" x2="121.4686" y2="65.1509">
			<stop  offset="0" style="stop-color:#FFDE97"/>
			<stop  offset="1" style="stop-color:#DB9E1B"/>
		</linearGradient>
		<path class="st6" d="M50.9,46.3C24.3,73,11.2,103,21.5,113.3c10.4,10.4,40.4-2.8,67-29.4s39.8-56.6,29.4-67
			C107.5,6.6,77.5,19.7,50.9,46.3z"/>
		<path class="st34" d="M104.8,35.1l-8.6,8.6l-2.2-2.2l8.3-8.3L98,28.9l-8.9,8.9l-3.4-3.4L40.5,79.6l2.3,2.3l-9.2,8.6l5,5l9-9
			l1.4,1.4l-8.7,8.7l4.8,4.8l10.3-10.3c0,0,3.7,3.9,16.6-7.1c9.8-8.4,7.8-16.5,7.8-16.5s4.9,0.6,12.2-5.2s8.7-14.5,8.7-14.5l8.4-8.4
			L104.8,35.1z M67.6,78.4c-7.3,6.2-13.4-2-13.4-2l11.2-11.2C65.4,65.2,74.8,72.1,67.6,78.4z M85.3,59.4c-7,5.8-11-2.4-11-2.4
			l9.7-9.7C84,47.3,93.3,52.7,85.3,59.4z"/>
		<path class="st39" d="M104.8,35.1l-8.6,8.6l-2.2-2.2l8.3-8.3L98,28.9l-8.9,8.9l-3.4-3.4L40.5,79.6l2.3,2.3l-9.2,8.6l5,5l9-9
			l1.4,1.4l-8.7,8.7l4.8,4.8l10.3-10.3c0,0,3.7,3.9,16.6-7.1c9.8-8.4,7.8-16.5,7.8-16.5s4.9,0.6,12.2-5.2s8.7-14.5,8.7-14.5l8.4-8.4
			L104.8,35.1z M67.6,78.4c-7.3,6.2-13.4-2-13.4-2l11.2-11.2C65.4,65.2,74.8,72.1,67.6,78.4z M85.3,59.4c-7,5.8-11-2.4-11-2.4
			l9.7-9.7C84,47.3,93.3,52.7,85.3,59.4z"/>
		<linearGradient id="SVGID_3_" gradientUnits="userSpaceOnUse" x1="29.0118" y1="62.768" x2="104.5217" y2="62.768">
			<stop  offset="0" style="stop-color:#FFF0D0"/>
			<stop  offset="1" style="stop-color:#F7BF46"/>
		</linearGradient>
		<path class="st9" d="M100.2,32.7l-8.6,8.6l-2.2-2.2l8.3-8.3l-4.3-4.3l-8.9,8.9L81.1,32L35.9,77.2l2.3,2.3L29,88.1l5,5l9-9l1.4,1.4
			l-8.7,8.7l4.8,4.8l10.3-10.3c0,0,3.7,3.9,16.6-7.1c9.8-8.4,7.8-16.5,7.8-16.5s4.9,0.6,12.2-5.2c7.3-5.8,8.7-14.5,8.7-14.5l8.4-8.4
			L100.2,32.7z M62.9,76c-7.3,6.2-13.4-2-13.4-2l11.2-11.2C60.8,62.8,70.2,69.7,62.9,76z M80.7,57c-7,5.8-11-2.4-11-2.4l9.7-9.7
			C79.4,44.9,88.7,50.4,80.7,57z"/>
		<g>
			<path class="st16" d="M125.7,1.4c0,0.2-2.6-0.4-7.4-0.6c-4.8-0.2-11.8,0.1-20.1,2.2C94.1,4,89.6,5.5,85,7.5
				c-4.6,2-9.4,4.6-14.1,7.6c-9.6,6-19.2,14.1-28.8,23C22.7,55.8,9.5,76.2,3.7,92.3c-2.8,8.1-3.4,15.1-2.6,19.8
				c0.1,0.6,0.2,1.1,0.3,1.7c0.1,0.5,0.2,1,0.4,1.4c0.1,0.4,0.2,0.9,0.3,1.2c0.1,0.4,0.2,0.7,0.3,1c0.4,1.2,0.6,1.8,0.6,1.8
				c0,0-0.3-0.6-0.9-1.7c-0.1-0.3-0.3-0.6-0.4-1c-0.1-0.4-0.2-0.8-0.4-1.2c-0.1-0.4-0.3-0.9-0.4-1.4c-0.1-0.5-0.2-1.1-0.3-1.7
				c-1-4.8-0.6-12,2.2-20.3C8.3,75.5,21.5,54.8,41,37c9.6-8.9,19.3-17,29.1-23.1c4.9-3,9.7-5.6,14.4-7.6c4.7-2,9.2-3.4,13.5-4.4
				c8.5-2,15.6-2.1,20.4-1.7c1.2,0.1,2.3,0.2,3.2,0.4c0.9,0.1,1.7,0.3,2.3,0.4C125.1,1.2,125.7,1.4,125.7,1.4z"/>
		</g>
		<path class="st39" d="M20.2,111.6c0,0-18.1-22,27.3-68.6C92.9-3.4,117.9,17,117.9,17S97.2,0.1,49.6,47.5
			C8.1,88.8,20.2,111.6,20.2,111.6z"/>
		<g>
			<path class="st16" d="M94.4,26.5c0.1,0.1-0.8,1-2.5,2.6c-1.6,1.6-4.1,3.9-7.1,6.7l-0.4,0.4l-0.4-0.5c-0.8-1-1.8-2.1-2.7-3.2
				l0.9,0.1C77.7,37.2,72.1,42.9,65.9,49c-8,7.9-15.3,15-20.6,20.1c-2.7,2.5-4.8,4.6-6.4,6c-1.5,1.4-2.4,2.1-2.5,2
				c-0.1-0.1,0.7-1,2.1-2.5c1.4-1.5,3.5-3.7,6-6.3c5.1-5.3,12.3-12.5,20.3-20.5c6.1-6.1,11.8-11.7,16.6-16.2l0.5-0.5l0.4,0.5
				c0.9,1.2,1.8,2.3,2.6,3.3l-0.8-0.1c3.1-2.7,5.6-4.8,7.4-6.3C93.3,27.2,94.3,26.4,94.4,26.5z"/>
		</g>
		<g>
			<path class="st30" d="M43.3,137.1c0,0-0.1-0.1-0.3-0.3c-0.2-0.3-0.4-0.5-0.6-0.8c-0.5-0.7-1.3-1.6-2-2.6
				c-1.6-2.1-2.8-3.8-2.6-3.9c0.1-0.1,1.5,1.5,3.1,3.6C42.3,135.2,43.5,136.9,43.3,137.1z"/>
		</g>
		<g>
			<path class="st30" d="M28.5,137.1c0,0-0.1-0.1-0.2-0.2c-0.2-0.2-0.4-0.4-0.5-0.6c-0.4-0.5-1-1.3-1.7-2.1
				c-1.3-1.7-2.2-3.1-2.1-3.1c0.1-0.1,1.2,1.2,2.5,2.8C27.8,135.5,28.8,137,28.5,137.1z"/>
		</g>
		<g>
			
				<ellipse transform="matrix(0.8029 -0.5961 0.5961 0.8029 -67.0467 56.7501)" class="st30" cx="52.3" cy="129.8" rx="0.3" ry="5.2"/>
		</g>
		<g>
			
				<ellipse transform="matrix(0.8029 -0.5961 0.5961 0.8029 -61.7755 62.2539)" class="st30" cx="63.3" cy="124.6" rx="0.3" ry="5.5"/>
		</g>
		<g>
			
				<ellipse transform="matrix(0.8029 -0.5961 0.5961 0.8029 -55.1392 67.6972)" class="st30" cx="74.8" cy="117.2" rx="0.3" ry="5.5"/>
		</g>
		<g>
			
				<ellipse transform="matrix(0.8029 -0.5961 0.5961 0.8029 -48.4778 72.3514)" class="st30" cx="85.2" cy="109.5" rx="0.3" ry="5.5"/>
		</g>
		<g>
			
				<ellipse transform="matrix(0.8029 -0.5961 0.5961 0.8029 -41.8163 77.0057)" class="st30" cx="95.6" cy="101.7" rx="0.3" ry="5.5"/>
		</g>
		<g>
			
				<ellipse transform="matrix(0.8029 -0.5961 0.5961 0.8029 -34.3495 80.5148)" class="st30" cx="104.6" cy="92.2" rx="0.3" ry="5.5"/>
		</g>
		<g>
			
				<ellipse transform="matrix(0.8029 -0.5961 0.5961 0.8029 -26.7712 83.8643)" class="st30" cx="113.5" cy="82.4" rx="0.3" ry="5.5"/>
		</g>
		<g>
			
				<ellipse transform="matrix(0.8029 -0.5961 0.5961 0.8029 -19.0717 87.0656)" class="st30" cx="122.1" cy="72.4" rx="0.3" ry="5.5"/>
		</g>
		<g>
			
				<ellipse transform="matrix(0.8029 -0.5961 0.5961 0.8029 -11.2289 89.4267)" class="st30" cx="129.6" cy="61.7" rx="0.3" ry="5.5"/>
		</g>
		<g>
			
				<ellipse transform="matrix(0.8029 -0.5961 0.5961 0.8029 -2.571 90.9218)" class="st30" cx="136.2" cy="49.3" rx="0.3" ry="5.5"/>
		</g>
		<g>
			
				<ellipse transform="matrix(0.8029 -0.5961 0.5961 0.8029 5.8873 90.8501)" class="st30" cx="140.3" cy="36.5" rx="0.3" ry="4.9"/>
		</g>
		<g>
			<ellipse transform="matrix(0.8029 -0.5961 0.5961 0.8029 14.0793 89.251)" class="st30" cx="142" cy="23.3" rx="0.3" ry="4.9"/>
		</g>
	</g>
</g>
<g id="Plant" class="st0">
</g>
</svg>
