<?xml version="1.0" encoding="utf-8"?>
<!-- Generator: Adobe Illustrator 21.1.0, SVG Export Plug-In . SVG Version: 6.00 Build 0)  -->
<svg version="1.1" xmlns="http://www.w3.org/2000/svg" xmlns:xlink="http://www.w3.org/1999/xlink" x="0px" y="0px"
	 viewBox="0 0 43.3 45.7" style="enable-background:new 0 0 43.3 45.7;" xml:space="preserve">
<style type="text/css">
	.st0{display:none;}
	.st1{display:inline;fill:#F5F5F5;}
	.st2{display:inline;fill:#E0E0E0;}
	.st3{display:inline;fill:#FFFFFF;}
	.st4{fill:#19191C;}
	.st5{fill:url(#SVGID_1_);}
	.st6{fill:url(#SVGID_2_);}
	.st7{fill:#474751;}
	.st8{fill:#111516;}
	.st9{fill:url(#SVGID_3_);}
	.st10{fill:url(#SVGID_4_);}
	.st11{fill:url(#SVGID_5_);}
	.st12{fill:url(#SVGID_6_);}
	.st13{fill:#E0E0E0;}
	.st14{fill:#EBEBEB;}
	.st15{fill:#F5F5F5;}
	.st16{fill:#FAFAFA;}
	.st17{fill:#131316;}
	.st18{fill:#27272D;}
	.st19{fill:#303035;}
	.st20{fill:#35353A;}
	.st21{display:inline;fill:#FAFAFA;}
	.st22{fill:url(#SVGID_7_);}
	.st23{fill:url(#SVGID_8_);}
	.st24{fill:url(#SVGID_9_);}
	.st25{fill:url(#SVGID_10_);}
	.st26{fill:url(#SVGID_11_);}
	.st27{fill:url(#SVGID_12_);}
	.st28{display:inline;fill:#EBEBEB;}
	.st29{display:inline;}
	.st30{fill:#263238;}
	.st31{fill:#455A64;}
	.st32{fill:#FFBE9D;}
	.st33{fill:#B78876;}
	.st34{fill:#E8505B;}
	.st35{opacity:0.3;}
	.st36{fill:#AA6550;}
	.st37{opacity:0.4;}
	.st38{fill:#FFFFFF;}
	.st39{fill:#BA7D25;}
	.st40{fill:url(#SVGID_13_);}
	.st41{fill:url(#SVGID_14_);}
	.st42{fill:url(#SVGID_15_);}
	.st43{fill:url(#SVGID_16_);}
	.st44{fill:url(#SVGID_17_);}
	.st45{fill:url(#SVGID_18_);stroke:url(#SVGID_19_);stroke-width:2;stroke-miterlimit:10;}
	.st46{fill:url(#SVGID_20_);}
	.st47{fill:url(#SVGID_21_);}
	.st48{fill:url(#SVGID_22_);}
	.st49{fill:url(#SVGID_23_);}
	.st50{fill:url(#SVGID_24_);}
	.st51{display:inline;fill:#BA7D25;}
	.st52{display:inline;fill:url(#SVGID_25_);}
	.st53{fill:url(#SVGID_26_);}
	.st54{fill:url(#SVGID_27_);}
	.st55{fill:url(#SVGID_28_);}
	.st56{fill:url(#SVGID_29_);}
	.st57{fill:#F7BF46;}
	.st58{fill:url(#SVGID_30_);}
	.st59{display:inline;fill:#E8505B;}
	.st60{display:inline;fill:#F7BF46;}
	.st61{fill:url(#SVGID_31_);}
	.st62{fill:url(#SVGID_32_);}
	.st63{fill:url(#SVGID_33_);}
	.st64{fill:url(#SVGID_34_);}
	.st65{opacity:0.2;}
</style>
<g id="Background_Complete">
	<g>
		<g>
			<g>
				
					<ellipse transform="matrix(0.3365 -0.9417 0.9417 0.3365 -8.3039 36.5295)" class="st4" cx="21.8" cy="24.2" rx="21.5" ry="21.5"/>
			</g>
			
				<linearGradient id="SVGID_1_" gradientUnits="userSpaceOnUse" x1="-0.8033" y1="21.9171" x2="42.2968" y2="21.9171" gradientTransform="matrix(0.7722 0.6354 -0.6354 0.7722 19.456 -8.5565)">
				<stop  offset="0" style="stop-color:#40404A"/>
				<stop  offset="1" style="stop-color:#1F1F24"/>
			</linearGradient>
			<circle class="st5" cx="21.6" cy="21.6" r="21.5"/>
			
				<linearGradient id="SVGID_2_" gradientUnits="userSpaceOnUse" x1="8.0372" y1="32.2611" x2="33.1209" y2="11.2134" gradientTransform="matrix(0.7722 0.6354 -0.6354 0.7722 19.456 -8.5565)">
				<stop  offset="0" style="stop-color:#464651"/>
				<stop  offset="1" style="stop-color:#2B2B31"/>
			</linearGradient>
			<path class="st6" d="M37,26.8c-3,8.3-12.3,12.6-20.8,9.6c-8.5-3.1-13-12.3-10.1-20.6S18.4,3.2,26.9,6.2S40,18.5,37,26.8z"/>
			<path class="st7" d="M16.2,36.3c-8.4-3-12.8-12.1-10.1-20.5C6,15.9,6,16.1,5.9,16.2c-3,8.5,1.4,17.9,9.9,21
				c8.5,3,17.9-1.4,21-9.9c0.1-0.1,0.1-0.3,0.1-0.4C33.8,35.1,24.6,39.3,16.2,36.3z"/>
			<path class="st8" d="M26.9,6.3c8.4,3,12.8,12.1,10.1,20.5c0.1-0.1,0.1-0.3,0.2-0.4c3-8.5-1.4-17.9-9.9-21c-8.5-3-17.9,1.4-21,9.9
				c-0.1,0.1-0.1,0.3-0.1,0.4C9.3,7.5,18.5,3.3,26.9,6.3z"/>
			<g>
				<path class="st4" d="M28,28.6c0.8-2.2,0.2-3.9-1.1-5.1c1.3-0.3,2.5-1.3,3.1-3c0.8-2.1,0.1-4.1-2-5.4l0.9-2.6l-2.4-0.9l-0.9,2.4
					l-1.4-0.5l0.9-2.4l-2.4-0.9L22,12.7l-2.2-0.8l-1.5-0.6l-0.9,2.4l1.5,0.6l-4.2,11.8l-1.7-0.6L12.1,28l1.7,0.6l0,0l2.2,0.8l-1,2.8
					l2.4,0.9l1-2.8l1.4,0.5l-1,2.8l2.4,0.9l1.1-2.9C25.1,32.1,27.1,31.1,28,28.6z M21.9,15.4l3.3,1.2c1.8,0.7,2.6,1.8,2,3.3
					c-0.5,1.5-1.9,1.9-3.7,1.3l-3.7-1.3l1.6-4.6L21.9,15.4z M21.5,28.6l-4-1.4l-0.3-0.1l1.7-4.8l4.3,1.5c2,0.7,2.8,1.8,2.2,3.5
					C24.9,29,23.5,29.3,21.5,28.6z"/>
				
					<linearGradient id="SVGID_3_" gradientUnits="userSpaceOnUse" x1="10.495" y1="22.6695" x2="29.3683" y2="22.6695" gradientTransform="matrix(0.7722 0.6354 -0.6354 0.7722 19.456 -8.5565)">
					<stop  offset="0" style="stop-color:#32323B"/>
					<stop  offset="1" style="stop-color:#1D1D21"/>
				</linearGradient>
				<path class="st9" d="M26.8,28.2c0.8-2.2,0.2-3.9-1.1-5.1c1.3-0.3,2.5-1.3,3.1-3c0.8-2.1,0.1-4.1-2-5.4l0.9-2.6l-2.4-0.9
					l-0.9,2.4l-1.4-0.5l0.9-2.4l-2.4-0.9l-0.9,2.4l-2.2-0.8L17,10.9l-0.9,2.4l1.5,0.6l-4.2,11.8l-1.7-0.6l-0.9,2.4l1.7,0.6l0,0
					l2.2,0.8l-1,2.8l2.4,0.9l1-2.8l1.4,0.5l-1,2.8L20,34l1.1-2.9C24,31.7,26,30.6,26.8,28.2z M20.8,15l3.3,1.2
					c1.8,0.7,2.6,1.8,2,3.3c-0.5,1.5-1.9,1.9-3.7,1.3l-3.7-1.3l1.6-4.6L20.8,15z M20.4,28.2l-4-1.4l-0.3-0.1l1.7-4.8l4.3,1.5
					c2,0.7,2.8,1.8,2.2,3.5C23.7,28.6,22.4,28.9,20.4,28.2z"/>
			</g>
			<g>
				<path class="st7" d="M24.1,10.7c0,0.1-1-0.2-2.5-0.6l0.3-0.1c-0.2,0.7-0.5,1.6-0.8,2.5l-0.1,0.3l-0.3-0.1
					c-0.2-0.1-0.4-0.2-0.7-0.2c-1.2-0.4-2.2-0.8-3.1-1.2l0.3-0.1c-0.6,1.5-1,2.4-1.1,2.4c-0.1,0,0.2-1,0.6-2.5l0.1-0.2l0.2,0.1
					c0.9,0.3,2,0.7,3.1,1.1c0.2,0.1,0.4,0.2,0.7,0.2l-0.4,0.2c0.3-0.9,0.6-1.7,0.9-2.4l0.1-0.2l0.2,0.1
					C23.2,10.2,24.1,10.6,24.1,10.7z"/>
			</g>
		</g>
	</g>
</g>
<g id="Layer_7">
</g>
<g id="Background_Simple" class="st0">
</g>
<g id="Floor" class="st0">
</g>
<g id="Character" class="st0">
</g>
<g id="Bitcoin">
</g>
<g id="Plant" class="st0">
</g>
</svg>
