<?xml version="1.0" encoding="utf-8"?>
<!-- Generator: Adobe Illustrator 21.1.0, SVG Export Plug-In . SVG Version: 6.00 Build 0)  -->
<svg version="1.1" xmlns="http://www.w3.org/2000/svg" xmlns:xlink="http://www.w3.org/1999/xlink" x="0px" y="0px"
	 viewBox="0 0 75.2 75.3" style="enable-background:new 0 0 75.2 75.3;" xml:space="preserve">
<style type="text/css">
	.st0{display:none;}
	.st1{display:inline;fill:#F5F5F5;}
	.st2{display:inline;fill:#E0E0E0;}
	.st3{display:inline;fill:#FFFFFF;}
	.st4{fill:#19191C;}
	.st5{fill:url(#SVGID_1_);}
	.st6{fill:url(#SVGID_2_);}
	.st7{fill:#474751;}
	.st8{fill:#111516;}
	.st9{fill:url(#SVGID_3_);}
	.st10{fill:url(#SVGID_4_);}
	.st11{fill:url(#SVGID_5_);}
	.st12{fill:url(#SVGID_6_);}
	.st13{fill:#E0E0E0;}
	.st14{fill:#EBEBEB;}
	.st15{fill:#F5F5F5;}
	.st16{fill:#FAFAFA;}
	.st17{fill:#131316;}
	.st18{fill:#27272D;}
	.st19{fill:#303035;}
	.st20{fill:#35353A;}
	.st21{display:inline;fill:#FAFAFA;}
	.st22{fill:url(#SVGID_7_);}
	.st23{fill:url(#SVGID_8_);}
	.st24{fill:url(#SVGID_9_);}
	.st25{fill:url(#SVGID_10_);}
	.st26{fill:url(#SVGID_11_);}
	.st27{fill:url(#SVGID_12_);}
	.st28{display:inline;fill:#EBEBEB;}
	.st29{display:inline;}
	.st30{fill:#263238;}
	.st31{fill:#455A64;}
	.st32{fill:#FFBE9D;}
	.st33{fill:#B78876;}
	.st34{fill:#E8505B;}
	.st35{opacity:0.3;}
	.st36{fill:#AA6550;}
	.st37{opacity:0.4;}
	.st38{fill:#FFFFFF;}
	.st39{fill:#BA7D25;}
	.st40{fill:url(#SVGID_13_);}
	.st41{fill:url(#SVGID_14_);}
	.st42{fill:url(#SVGID_15_);}
	.st43{fill:url(#SVGID_16_);}
	.st44{fill:url(#SVGID_17_);}
	.st45{fill:url(#SVGID_18_);stroke:url(#SVGID_19_);stroke-width:2;stroke-miterlimit:10;}
	.st46{fill:url(#SVGID_20_);}
	.st47{fill:url(#SVGID_21_);}
	.st48{fill:url(#SVGID_22_);}
	.st49{fill:url(#SVGID_23_);}
	.st50{fill:url(#SVGID_24_);}
	.st51{display:inline;fill:#BA7D25;}
	.st52{display:inline;fill:url(#SVGID_25_);}
	.st53{fill:url(#SVGID_26_);}
	.st54{fill:url(#SVGID_27_);}
	.st55{fill:url(#SVGID_28_);}
	.st56{fill:url(#SVGID_29_);}
	.st57{fill:#F7BF46;}
	.st58{fill:url(#SVGID_30_);}
	.st59{display:inline;fill:#E8505B;}
	.st60{display:inline;fill:#F7BF46;}
	.st61{fill:url(#SVGID_31_);}
	.st62{fill:url(#SVGID_32_);}
	.st63{fill:url(#SVGID_33_);}
	.st64{fill:url(#SVGID_34_);}
	.st65{opacity:0.2;}
</style>
<g id="Background_Complete">
	<g>
		<g>
			<g>
				
					<ellipse transform="matrix(0.941 -0.3385 0.3385 0.941 -10.9659 15.5662)" class="st4" cx="39.1" cy="39.2" rx="36.1" ry="36.1"/>
			</g>
			<linearGradient id="SVGID_1_" gradientUnits="userSpaceOnUse" x1="0" y1="36.085" x2="72.1699" y2="36.085">
				<stop  offset="0" style="stop-color:#40404A"/>
				<stop  offset="1" style="stop-color:#1F1F24"/>
			</linearGradient>
			<circle class="st5" cx="36.1" cy="36.1" r="36.1"/>
			<linearGradient id="SVGID_2_" gradientUnits="userSpaceOnUse" x1="14.8032" y1="53.4057" x2="56.8052" y2="18.1618">
				<stop  offset="0" style="stop-color:#464651"/>
				<stop  offset="1" style="stop-color:#2B2B31"/>
			</linearGradient>
			<path class="st6" d="M61.7,26.5c5,13.9-2.5,29.4-16.8,34.5C30.6,66.1,15,59,9.9,45.1s2.5-29.4,16.8-34.5S56.7,12.5,61.7,26.5z"/>
			<path class="st7" d="M44.8,60.9c-14,5-29.5-2-34.9-15.8c0.1,0.2,0.2,0.5,0.2,0.7c5.1,14.3,20.9,21.7,35.2,16.6
				c14.3-5.1,21.7-20.9,16.6-35.2c-0.1-0.2-0.2-0.5-0.3-0.7C66.3,40.6,58.9,55.9,44.8,60.9z"/>
			<path class="st8" d="M26.8,10.7c14-5,29.5,2,34.9,15.8c-0.1-0.2-0.2-0.5-0.2-0.7C56.3,11.5,40.5,4.1,26.2,9.2
				C12,14.3,4.5,30.1,9.7,44.3c0.1,0.2,0.2,0.5,0.3,0.7C5.3,31,12.7,15.7,26.8,10.7z"/>
			<g class="st0">
				<ellipse transform="matrix(0.941 -0.3385 0.3385 0.941 -4.0734 12.0831)" class="st21" cx="32.6" cy="17.7" rx="2.6" ry="0.5"/>
			</g>
			<g class="st0">
				
					<ellipse transform="matrix(0.941 -0.3385 0.3385 0.941 -12.0592 11.2695)" class="st21" cx="26.3" cy="40.2" rx="0.5" ry="10.3"/>
			</g>
			<g class="st0">
				<ellipse transform="matrix(0.941 -0.3385 0.3385 0.941 -9.7737 13.7559)" class="st21" cx="34.6" cy="34.9" rx="4.2" ry="0.5"/>
			</g>
			<g class="st0">
				<ellipse transform="matrix(0.941 -0.3385 0.3385 0.941 -13.5802 15.9894)" class="st21" cx="39" cy="46.9" rx="4.2" ry="0.5"/>
			</g>
			<g>
				<path class="st4" d="M32.2,39.1L50.7,36c0.3-0.5,0.5-1,0.7-1.5c0.5-1.4,0.6-3.1,0.3-5.1c-0.3-1.9-0.9-3.4-1.8-4.6
					c-0.9-1.2-2-2.1-3.3-2.7c-1.3-0.6-2.8-1-4.4-1c-1.6-0.1-3.4,0-5.2,0.3l-7.6,1.3L32.2,39.1z M37.5,27.9c0.7-0.1,1.4-0.2,2.1-0.2
					c0.7,0,1.3,0.1,1.9,0.3c0.6,0.2,1.1,0.5,1.5,1c0.4,0.4,0.7,1.1,0.8,1.8c0.1,0.8,0.1,1.5-0.1,2c-0.2,0.6-0.6,1.1-1.1,1.5
					c-0.5,0.4-1.1,0.7-1.7,1c-0.7,0.2-1.4,0.4-2.1,0.5l-3.4,0.6l-1.3-7.8L37.5,27.9z"/>
				<path class="st4" d="M32.5,40.8l2.1,12.4l3.4-0.6l-1.6-9.9l4-0.7c1.7-0.3,3.3-0.7,4.9-1.4c1.5-0.6,2.8-1.5,3.9-2.5
					c0.1-0.1,0.1-0.1,0.2-0.2L32.5,40.8z"/>
				<polygon class="st4" points="30.5,39.4 27.7,22.9 24.9,23.4 27.1,37.1 23.9,37.6 24.3,40.4 				"/>
				<polygon class="st4" points="32.8,53.5 30.8,41.1 24.6,42.1 25.1,44.9 28.3,44.3 29.9,54 				"/>
			</g>
			<g>
				
					<linearGradient id="SVGID_3_" gradientUnits="userSpaceOnUse" x1="28.2566" y1="25.5769" x2="50.7047" y2="33.49" gradientTransform="matrix(0.9865 -0.1636 0.1636 0.9865 -5.1452 6.7988)">
					<stop  offset="0" style="stop-color:#32323B"/>
					<stop  offset="1" style="stop-color:#1D1D21"/>
				</linearGradient>
				<path class="st9" d="M30.7,38l18.6-3.1c0.3-0.5,0.5-1,0.7-1.5c0.5-1.4,0.6-3.1,0.3-5.1c-0.3-1.9-0.9-3.4-1.8-4.6
					c-0.9-1.2-2-2.1-3.3-2.7c-1.3-0.6-2.8-1-4.4-1c-1.6-0.1-3.4,0-5.2,0.3l-7.6,1.3L30.7,38z M36,26.9c0.7-0.1,1.4-0.2,2.1-0.2
					c0.7,0,1.3,0.1,1.9,0.3c0.6,0.2,1.1,0.5,1.5,1c0.4,0.4,0.7,1.1,0.8,1.8c0.1,0.8,0.1,1.5-0.1,2c-0.2,0.6-0.6,1.1-1.1,1.5
					c-0.5,0.4-1.1,0.7-1.7,1c-0.7,0.2-1.4,0.4-2.1,0.5l-3.4,0.6l-1.3-7.8L36,26.9z"/>
				
					<linearGradient id="SVGID_4_" gradientUnits="userSpaceOnUse" x1="29.1971" y1="41.3184" x2="44.306" y2="46.6443" gradientTransform="matrix(0.9865 -0.1636 0.1636 0.9865 -5.1452 6.7988)">
					<stop  offset="0" style="stop-color:#32323B"/>
					<stop  offset="1" style="stop-color:#1D1D21"/>
				</linearGradient>
				<path class="st10" d="M31,39.7L33,52.1l3.4-0.6l-1.6-9.9l4-0.7c1.7-0.3,3.3-0.7,4.9-1.4s2.8-1.5,3.9-2.5
					c0.1-0.1,0.1-0.1,0.2-0.2L31,39.7z"/>
				
					<linearGradient id="SVGID_5_" gradientUnits="userSpaceOnUse" x1="22.9487" y1="27.456" x2="30.7718" y2="30.2136" gradientTransform="matrix(0.9865 -0.1636 0.1636 0.9865 -5.1452 6.7988)">
					<stop  offset="0" style="stop-color:#32323B"/>
					<stop  offset="1" style="stop-color:#1D1D21"/>
				</linearGradient>
				<polygon class="st11" points="29,38.3 26.2,21.8 23.4,22.3 25.6,36 22.4,36.5 22.8,39.3 				"/>
				
					<linearGradient id="SVGID_6_" gradientUnits="userSpaceOnUse" x1="20.8171" y1="42.4819" x2="30.3139" y2="45.8296" gradientTransform="matrix(0.9865 -0.1636 0.1636 0.9865 -5.1452 6.7988)">
					<stop  offset="0" style="stop-color:#32323B"/>
					<stop  offset="1" style="stop-color:#1D1D21"/>
				</linearGradient>
				<polygon class="st12" points="31.3,52.4 29.3,40 23.1,41 23.6,43.8 26.8,43.3 28.4,52.9 				"/>
			</g>
			<polygon class="st7" points="23.4,22.3 24.6,22.1 26.5,36.4 23.1,36.9 22.8,39.3 22.4,36.5 25.6,36 			"/>
		</g>
	</g>
</g>
<g id="Layer_7">
</g>
<g id="Background_Simple" class="st0">
</g>
<g id="Floor" class="st0">
</g>
<g id="Character" class="st0">
</g>
<g id="Bitcoin">
</g>
<g id="Plant" class="st0">
</g>
</svg>
