<?xml version="1.0" encoding="utf-8"?>
<!-- Generator: Adobe Illustrator 21.1.0, SVG Export Plug-In . SVG Version: 6.00 Build 0)  -->
<svg version="1.1" xmlns="http://www.w3.org/2000/svg" xmlns:xlink="http://www.w3.org/1999/xlink" x="0px" y="0px"
	 viewBox="0 0 108.8 110.6" style="enable-background:new 0 0 108.8 110.6;" xml:space="preserve">
<style type="text/css">
	.st0{display:none;}
	.st1{display:inline;fill:#F5F5F5;}
	.st2{display:inline;fill:#E0E0E0;}
	.st3{display:inline;fill:#FFFFFF;}
	.st4{fill:#19191C;}
	.st5{fill:url(#SVGID_1_);}
	.st6{fill:url(#SVGID_2_);}
	.st7{fill:#474751;}
	.st8{fill:#111516;}
	.st9{fill:url(#SVGID_3_);}
	.st10{fill:url(#SVGID_4_);}
	.st11{fill:url(#SVGID_5_);}
	.st12{fill:url(#SVGID_6_);}
	.st13{fill:#E0E0E0;}
	.st14{fill:#EBEBEB;}
	.st15{fill:#F5F5F5;}
	.st16{fill:#FAFAFA;}
	.st17{fill:#131316;}
	.st18{fill:#27272D;}
	.st19{fill:#303035;}
	.st20{fill:#35353A;}
	.st21{display:inline;fill:#FAFAFA;}
	.st22{fill:url(#SVGID_7_);}
	.st23{fill:url(#SVGID_8_);}
	.st24{fill:url(#SVGID_9_);}
	.st25{fill:url(#SVGID_10_);}
	.st26{fill:url(#SVGID_11_);}
	.st27{fill:url(#SVGID_12_);}
	.st28{display:inline;fill:#EBEBEB;}
	.st29{display:inline;}
	.st30{fill:#263238;}
	.st31{fill:#455A64;}
	.st32{fill:#FFBE9D;}
	.st33{fill:#B78876;}
	.st34{fill:#E8505B;}
	.st35{opacity:0.3;}
	.st36{fill:#AA6550;}
	.st37{opacity:0.4;}
	.st38{fill:#FFFFFF;}
	.st39{fill:#BA7D25;}
	.st40{fill:url(#SVGID_13_);}
	.st41{fill:url(#SVGID_14_);}
	.st42{fill:url(#SVGID_15_);}
	.st43{fill:url(#SVGID_16_);}
	.st44{fill:url(#SVGID_17_);}
	.st45{fill:url(#SVGID_18_);stroke:url(#SVGID_19_);stroke-width:2;stroke-miterlimit:10;}
	.st46{fill:url(#SVGID_20_);}
	.st47{fill:url(#SVGID_21_);}
	.st48{fill:url(#SVGID_22_);}
	.st49{fill:url(#SVGID_23_);}
	.st50{fill:url(#SVGID_24_);}
	.st51{display:inline;fill:#BA7D25;}
	.st52{display:inline;fill:url(#SVGID_25_);}
	.st53{fill:url(#SVGID_26_);}
	.st54{fill:url(#SVGID_27_);}
	.st55{fill:url(#SVGID_28_);}
	.st56{fill:url(#SVGID_29_);}
	.st57{fill:#F7BF46;}
	.st58{fill:url(#SVGID_30_);}
	.st59{display:inline;fill:#E8505B;}
	.st60{display:inline;fill:#F7BF46;}
	.st61{fill:url(#SVGID_31_);}
	.st62{fill:url(#SVGID_32_);}
	.st63{fill:url(#SVGID_33_);}
	.st64{fill:url(#SVGID_34_);}
	.st65{opacity:0.2;}
</style>
<g id="Background_Complete">
	<g class="st0">
		<polygon class="st1" points="90.5,441.3 -55.7,-24.1 365.8,-24.1 254.8,441.3 		"/>
		<path class="st3" d="M19.5,147.3C19.4,146.5,5.5,117,5.5,117l-8,4.6l0.8-28.6l22.9,16.3l-7.6,4l15.1,30.5L19.5,147.3z"/>
	</g>
</g>
<g id="Layer_7">
</g>
<g id="Background_Simple" class="st0">
	<path class="st28" d="M332.7,72.7c26.5,54.1,18.5,121.8-15.3,171.7s-90,82.2-149,93.9c-42.2,8.4-87.6,6.7-126.1-12.4
		c-38.5-19.1-68.8-57.5-71.2-100.4c-0.9-16.2,2.6-33.4,13.4-45.6c17.3-19.3,46.8-20,72.7-19.2s55.4,0.2,72.8-19.1
		c13.3-14.8,15.3-36.3,22.3-54.9c12-31.7,40.8-56.5,74-63.5c22.4-4.7,46.2-1.3,66.7,8.9c14.3,7.1,26.2,18.3,34.6,31.9
		C330,68.1,332.2,71.7,332.7,72.7z"/>
</g>
<g id="Floor" class="st0">
</g>
<g id="Character" class="st0">
	<g class="st29">
	</g>
</g>
<g id="Bitcoin">
	<g>
		<g>
			<g>
				<g>
					
						<ellipse transform="matrix(0.9964 -8.530524e-02 8.530524e-02 0.9964 -4.2939 4.6773)" class="st34" cx="52.6" cy="52.6" rx="52.6" ry="52.6"/>
					
						<ellipse transform="matrix(0.9964 -8.530524e-02 8.530524e-02 0.9964 -4.2939 4.6773)" class="st39" cx="52.6" cy="52.6" rx="52.6" ry="52.6"/>
				</g>
				<g>
					<ellipse transform="matrix(0.8743 -0.4854 0.4854 0.8743 6.2817 32.2593)" class="st30" cx="65.4" cy="4" rx="0.3" ry="3.2"/>
				</g>
				<g>
					<ellipse transform="matrix(0.8743 -0.4854 0.4854 0.8743 6.0239 36.7574)" class="st30" cx="74" cy="6.7" rx="0.3" ry="3"/>
				</g>
				<g>
					<ellipse transform="matrix(0.8743 -0.4854 0.4854 0.8743 5.128 41.0746)" class="st30" cx="81.9" cy="10.6" rx="0.3" ry="3"/>
				</g>
				<g>
					
						<ellipse transform="matrix(0.8743 -0.4853 0.4853 0.8743 5.7269 27.6739)" class="st30" cx="56.3" cy="2.8" rx="0.3" ry="3.2"/>
				</g>
				<g>
					
						<ellipse transform="matrix(0.8743 -0.4853 0.4853 0.8743 4.4807 23.6029)" class="st30" cx="47.8" cy="3.1" rx="0.3" ry="3.2"/>
				</g>
				<g>
					
						<ellipse transform="matrix(0.8701 -0.4929 0.4929 0.8701 2.6932 20.0935)" class="st30" cx="39.5" cy="4.9" rx="0.3" ry="3.1"/>
				</g>
				<g>
					
						<ellipse transform="matrix(0.8743 -0.4853 0.4853 0.8743 0.3197 16.3895)" class="st30" cx="31.8" cy="7.6" rx="0.3" ry="3.2"/>
				</g>
				<g>
					
						<ellipse transform="matrix(0.8743 -0.4853 0.4853 0.8743 -2.6346 13.3564)" class="st30" cx="24.5" cy="11.8" rx="0.3" ry="3.2"/>
				</g>
				<g>
					
						<ellipse transform="matrix(0.8743 -0.4853 0.4853 0.8743 -5.9411 10.903)" class="st30" cx="18.1" cy="16.9" rx="0.3" ry="3.2"/>
				</g>
				<g>
					<ellipse transform="matrix(0.8743 -0.4854 0.4854 0.8743 -9.2083 9.1286)" class="st30" cx="13" cy="22.3" rx="0.3" ry="3.2"/>
				</g>
				<g>
					
						<ellipse transform="matrix(0.8743 -0.4854 0.4854 0.8743 -13.1418 7.9487)" class="st30" cx="8.8" cy="29.3" rx="0.3" ry="3.3"/>
				</g>
				<g>
					
						<ellipse transform="matrix(0.8743 -0.4853 0.4853 0.8743 -17.1965 7.1116)" class="st30" cx="5.1" cy="36.8" rx="0.3" ry="3.3"/>
				</g>
				<g>
					<path class="st30" d="M1.1,41.9C1.2,41.8,2,43,3,44.5c1,1.5,1.7,2.8,1.6,2.9c-0.1,0.1-1-1.1-2-2.6C1.6,43.3,1,41.9,1.1,41.9z"
						/>
				</g>
				<g>
					<ellipse transform="matrix(0.8743 -0.4854 0.4854 0.8743 -25.9792 7.662)" class="st30" cx="1.8" cy="54" rx="0.3" ry="3.7"/>
				</g>
				<g>
					
						<ellipse transform="matrix(0.8665 -0.4991 0.4991 0.8665 -32.6259 10.2996)" class="st30" cx="2.9" cy="66.2" rx="0.3" ry="3.9"/>
				</g>
			</g>
			<linearGradient id="SVGID_1_" gradientUnits="userSpaceOnUse" x1="56.2021" y1="5.4165" x2="56.2021" y2="110.5826">
				<stop  offset="0" style="stop-color:#FBD177"/>
				<stop  offset="1" style="stop-color:#F7BF46"/>
			</linearGradient>
			<circle class="st5" cx="56.2" cy="58" r="52.6"/>
			<linearGradient id="SVGID_2_" gradientUnits="userSpaceOnUse" x1="21.3681" y1="77.4184" x2="90.4709" y2="37.5219">
				<stop  offset="0" style="stop-color:#FBD177"/>
				<stop  offset="1" style="stop-color:#DB9E1B"/>
			</linearGradient>
			<path class="st6" d="M95.8,54.1c1.8,21.5-14.5,40.5-36.6,42.3c-22,1.9-41.4-14-43.3-35.5c-1.8-21.5,14.5-40.5,36.6-42.3
				C74.6,16.7,94,32.6,95.8,54.1z"/>
			<path class="st39" d="M52.6,18.7c21.7-1.9,40.7,13.9,43.2,35.3c0-0.4,0-0.8-0.1-1.1c-1.9-22-21.3-38.4-43.3-36.5
				c-22,1.9-38.4,21.3-36.5,43.3c0,0.4,0.1,0.8,0.1,1.1C14.8,39.3,30.9,20.6,52.6,18.7z"/>
		</g>
		<path class="st39" d="M76.2,53.4C76.2,53.4,76.2,53.4,76.2,53.4c0.1-0.1,0.1-0.2,0.1-0.3c0,0,0-0.1,0-0.1c0-0.1,0-0.3,0-0.4
			c0,0,0,0,0-0.1c0-0.1-0.1-0.3-0.1-0.4c0,0,0-0.1-0.1-0.1c-0.1-0.1-0.1-0.2-0.2-0.3c0,0,0,0,0,0L50.1,24.8c0,0,0,0,0,0l0,0
			c0,0,0,0,0,0c-0.3-0.3-0.8-0.5-1.3-0.4c-0.5,0.1-0.9,0.4-1.1,0.8c0,0,0,0,0,0l0,0c0,0,0,0,0,0L31.3,58.7c0,0,0,0,0,0
			c0,0.1-0.1,0.2-0.1,0.3c0,0,0,0.1,0,0.1c0,0.1,0,0.3,0,0.4c0,0,0,0,0,0.1c0,0.1,0.1,0.3,0.1,0.4c0,0,0,0.1,0.1,0.1
			c0.1,0.1,0.1,0.2,0.2,0.3c0,0,0,0,0,0l25.8,26.8c0,0,0,0,0,0l0,0c0,0,0,0,0,0c0.1,0.1,0.1,0.1,0.2,0.2c0,0,0.1,0,0.1,0.1
			c0.1,0,0.1,0.1,0.2,0.1c0,0,0.1,0,0.1,0c0.1,0,0.2,0,0.2,0.1c0,0,0.1,0,0.1,0c0.1,0,0.2,0,0.3,0c0.1,0,0.2-0.1,0.3-0.1
			c0,0,0.1,0,0.1,0c0.1,0,0.1-0.1,0.2-0.1c0,0,0.1,0,0.1-0.1c0.1-0.1,0.1-0.1,0.2-0.2c0,0,0,0,0.1-0.1c0.1-0.1,0.1-0.2,0.2-0.2
			c0,0,0,0,0,0l0,0c0,0,0,0,0,0L76.2,53.4z M53.5,64.4L36,58.8l15-10.7L53.5,64.4z M54,47.7l17.5,5.6l-15,10.7L54,47.7z M53.5,44.3
			l-2.2-13.9l18.3,19L53.5,44.3z M50.4,44.8l-13.8,9.8l11.6-23.7L50.4,44.8z M54,67.8l2.2,13.9l-18.3-19L54,67.8z M57,67.3l13.8-9.8
			L59.2,81.2L57,67.3z"/>
		
			<linearGradient id="SVGID_3_" gradientUnits="userSpaceOnUse" x1="39.3142" y1="66.4068" x2="73.2543" y2="45.9242" gradientTransform="matrix(0.988 -0.1545 0.1545 0.988 -8.0097 9.3599)">
			<stop  offset="0" style="stop-color:#FFF0D0"/>
			<stop  offset="1" style="stop-color:#F7BF46"/>
		</linearGradient>
		<linearGradient id="SVGID_4_" gradientUnits="userSpaceOnUse" x1="40.3279" y1="69.5367" x2="72.2273" y2="42.7699">
			<stop  offset="0" style="stop-color:#FFF0D0"/>
			<stop  offset="1" style="stop-color:#F7BF46"/>
		</linearGradient>
		<path style="fill:url(#SVGID_3_);stroke:url(#SVGID_4_);stroke-width:2;stroke-miterlimit:10;" d="M78.8,53.5
			C78.8,53.5,78.8,53.5,78.8,53.5c0.1-0.1,0.1-0.2,0.1-0.3c0,0,0-0.1,0-0.1c0-0.1,0-0.3,0-0.4c0,0,0,0,0-0.1c0-0.1-0.1-0.3-0.1-0.4
			c0,0,0-0.1-0.1-0.1c-0.1-0.1-0.1-0.2-0.2-0.3c0,0,0,0,0,0L52.7,25c0,0,0,0,0,0l0,0c0,0,0,0,0,0c-0.3-0.3-0.8-0.5-1.3-0.4
			c-0.5,0.1-0.9,0.4-1.1,0.8c0,0,0,0,0,0l0,0c0,0,0,0,0,0L33.8,58.8c0,0,0,0,0,0c0,0.1-0.1,0.2-0.1,0.3c0,0,0,0.1,0,0.1
			c0,0.1,0,0.3,0,0.4c0,0,0,0,0,0.1c0,0.1,0.1,0.3,0.1,0.4c0,0,0,0.1,0.1,0.1c0.1,0.1,0.1,0.2,0.2,0.3c0,0,0,0,0,0l25.8,26.8
			c0,0,0,0,0,0l0,0c0,0,0,0,0,0c0.1,0.1,0.1,0.1,0.2,0.2c0,0,0.1,0,0.1,0.1c0.1,0,0.1,0.1,0.2,0.1c0,0,0.1,0,0.1,0
			c0.1,0,0.2,0,0.2,0.1c0,0,0.1,0,0.1,0c0.1,0,0.2,0,0.3,0c0.1,0,0.2-0.1,0.3-0.1c0,0,0.1,0,0.1,0c0.1,0,0.1-0.1,0.2-0.1
			c0,0,0.1,0,0.1-0.1c0.1-0.1,0.1-0.1,0.2-0.2c0,0,0,0,0.1-0.1c0.1-0.1,0.1-0.2,0.2-0.2c0,0,0,0,0,0l0,0c0,0,0,0,0,0L78.8,53.5z
			 M56,64.5l-17.5-5.6l15-10.7L56,64.5z M56.5,47.8L74,53.4L59.1,64L56.5,47.8z M56,44.4l-2.2-13.9l18.3,19L56,44.4z M53,44.9
			l-13.8,9.8L50.8,31L53,44.9z M56.6,67.9l2.2,13.9l-18.3-19L56.6,67.9z M59.6,67.4l13.8-9.8L61.8,81.3L59.6,67.4z"/>
		<path class="st38" d="M38.9,46.3l12.4-22.8c0,0-1.1-0.1-1.6,0.9C49.1,25.4,38.9,46.3,38.9,46.3z"/>
		<path class="st38" d="M59.3,94.4c-22,1.9-41.4-14-43.3-35.5c-0.1-0.8-0.1-1.5-0.1-2.3c0,1.4,0,2.8,0.1,4.3
			c1.8,21.5,21.2,37.4,43.3,35.5C80.5,94.6,96.5,76.9,96,56.3C95.4,76,79.8,92.6,59.3,94.4z"/>
	</g>
</g>
<g id="Plant" class="st0">
</g>
</svg>
