<?xml version="1.0" encoding="utf-8"?>
<!-- Generator: Adobe Illustrator 21.1.0, SVG Export Plug-In . SVG Version: 6.00 Build 0)  -->
<svg version="1.1" id="Icon_Set" xmlns="http://www.w3.org/2000/svg" xmlns:xlink="http://www.w3.org/1999/xlink" x="0px" y="0px"
	 viewBox="0 0 53 69" style="enable-background:new 0 0 53 69;" xml:space="preserve">
<style type="text/css">
	.st0{fill:#1F1F25;}
	.st1{fill:#FF5252;}
	.st2{fill:#FFD740;}
	.st3{fill:#40C4FF;}
	.st4{fill:#FFFFFF;}
	.st5{fill:#4DB6AC;}
	.st6{fill:url(#SVGID_1_);}
	.st7{fill:url(#SVGID_2_);}
	.st8{fill:url(#SVGID_3_);}
	.st9{fill:url(#SVGID_4_);}
	.st10{fill:url(#SVGID_5_);}
	.st11{fill:#4FC3F7;}
	.st12{fill:url(#SVGID_6_);}
	.st13{fill:url(#SVGID_7_);}
	.st14{fill:url(#SVGID_8_);}
	.st15{fill:url(#SVGID_9_);}
	.st16{fill:url(#SVGID_10_);}
	.st17{fill:url(#SVGID_11_);}
	.st18{fill:url(#SVGID_12_);}
	.st19{fill:url(#SVGID_13_);}
	.st20{fill:#FFE6AE;}
	.st21{fill:url(#SVGID_14_);}
	.st22{display:none;fill:#1F1F25;}
	.st23{fill:url(#SVGID_15_);}
	.st24{fill:url(#SVGID_16_);}
	.st25{fill:url(#SVGID_17_);}
	.st26{fill:url(#SVGID_18_);}
	.st27{fill:none;stroke:#1F1F25;stroke-miterlimit:10;}
</style>
<g id="Bitcoin_Calculator">
	<g>
		<linearGradient id="SVGID_1_" gradientUnits="userSpaceOnUse" x1="32.5003" y1="10.5" x2="52.5003" y2="10.5">
			<stop  offset="0" style="stop-color:#FFE7B3"/>
			<stop  offset="1" style="stop-color:#FFBE15"/>
		</linearGradient>
		<circle class="st6" cx="42.5" cy="10.5" r="10"/>
		<path class="st0" d="M42.5,21C36.7,21,32,16.3,32,10.5S36.7,0,42.5,0C48.3,0,53,4.7,53,10.5S48.3,21,42.5,21z M42.5,1
			C37.3,1,33,5.3,33,10.5s4.3,9.5,9.5,9.5s9.5-4.3,9.5-9.5S47.7,1,42.5,1z"/>
	</g>
	<g>
		<path class="st0" d="M32.9,19.5H6.1c-0.9,0-1.6-0.8-1.6-1.8v-2.3c0-1,0.7-1.8,1.6-1.8h25c0.3,0,0.5,0.2,0.5,0.5s-0.2,0.5-0.5,0.5
			h-25c-0.3,0-0.6,0.4-0.6,0.8v2.3c0,0.5,0.3,0.8,0.6,0.8h26.9c0.3,0,0.6-0.4,0.6-0.8V16c0-0.3,0.2-0.5,0.5-0.5s0.5,0.2,0.5,0.5v1.7
			C34.5,18.7,33.8,19.5,32.9,19.5z"/>
	</g>
	<g>
		<path class="st0" d="M33.5,65.5h-28C4.7,65.5,4,64.8,4,64V29c0-0.8,0.7-1.5,1.5-1.5h28c0.8,0,1.5,0.7,1.5,1.5v35
			C35,64.8,34.3,65.5,33.5,65.5z M5.5,28.5C5.2,28.5,5,28.7,5,29v35c0,0.3,0.2,0.5,0.5,0.5h28c0.3,0,0.5-0.2,0.5-0.5V29
			c0-0.3-0.2-0.5-0.5-0.5H5.5z"/>
	</g>
	<g>
		<path class="st0" d="M36,24H3c-1.7,0-3-1.3-3-3v-9c0-1.7,1.3-3,3-3h27.6c0.3,0,0.5,0.2,0.5,0.5S30.8,10,30.6,10H3
			c-1.1,0-2,0.9-2,2v9c0,1.1,0.9,2,2,2h33c1.1,0,2-0.9,2-2v0.8c0-0.3,0.2-0.5,0.5-0.5s0.5,0.2,0.5,0.5V21C39,22.7,37.7,24,36,24z"/>
	</g>
	<g>
		<path class="st0" d="M36,69H3c-1.7,0-3-1.3-3-3V26c0-1.7,1.3-3,3-3h33c1.7,0,3,1.3,3,3v40C39,67.7,37.7,69,36,69z M3,24
			c-1.1,0-2,0.9-2,2v40c0,1.1,0.9,2,2,2h33c1.1,0,2-0.9,2-2V26c0-1.1-0.9-2-2-2H3z"/>
	</g>
	<g>
		<path class="st0" d="M43.5,11H40c-0.3,0-0.5-0.2-0.5-0.5v-4C39.5,6.2,39.7,6,40,6h3.5C44.9,6,46,7.1,46,8.5S44.9,11,43.5,11z
			 M40.5,10h3c0.8,0,1.5-0.7,1.5-1.5S44.3,7,43.5,7h-3V10z"/>
	</g>
	<g>
		<path class="st0" d="M44.5,15H40c-0.3,0-0.5-0.2-0.5-0.5v-4c0-0.3,0.2-0.5,0.5-0.5h4.5c1.4,0,2.5,1.1,2.5,2.5S45.9,15,44.5,15z
			 M40.5,14h4c0.8,0,1.5-0.7,1.5-1.5S45.3,11,44.5,11h-4V14z"/>
	</g>
	<g>
		<path class="st0" d="M40,7h-1.5C38.2,7,38,6.8,38,6.5S38.2,6,38.5,6H40c0.3,0,0.5,0.2,0.5,0.5S40.3,7,40,7z"/>
	</g>
	<g>
		<path class="st0" d="M40,15h-1.5c-0.3,0-0.5-0.2-0.5-0.5s0.2-0.5,0.5-0.5H40c0.3,0,0.5,0.2,0.5,0.5S40.3,15,40,15z"/>
	</g>
	<g>
		<path class="st0" d="M41.5,7C41.2,7,41,6.8,41,6.5v-2C41,4.2,41.2,4,41.5,4S42,4.2,42,4.5v2C42,6.8,41.8,7,41.5,7z"/>
	</g>
	<g>
		<path class="st0" d="M43.5,7C43.2,7,43,6.8,43,6.5v-2C43,4.2,43.2,4,43.5,4S44,4.2,44,4.5v2C44,6.8,43.8,7,43.5,7z"/>
	</g>
	<g>
		<path class="st0" d="M41.5,17c-0.3,0-0.5-0.2-0.5-0.5v-2c0-0.3,0.2-0.5,0.5-0.5s0.5,0.2,0.5,0.5v2C42,16.8,41.8,17,41.5,17z"/>
	</g>
	<g>
		<path class="st0" d="M43.5,17c-0.3,0-0.5-0.2-0.5-0.5v-2c0-0.3,0.2-0.5,0.5-0.5s0.5,0.2,0.5,0.5v2C44,16.8,43.8,17,43.5,17z"/>
	</g>
</g>
<g>
	<linearGradient id="SVGID_2_" gradientUnits="userSpaceOnUse" x1="11.5191" y1="46.4996" x2="28.6615" y2="46.4996">
		<stop  offset="0" style="stop-color:#FFE7B3"/>
		<stop  offset="1" style="stop-color:#FFBE15"/>
	</linearGradient>
	<path class="st7" d="M18,52.6c-0.4,0-0.8-0.1-1.1-0.4l-5-4.9c-0.6-0.6-0.6-1.5,0-2.1s1.5-0.6,2.1,0L18,49l8.1-8.1
		c0.6-0.6,1.5-0.6,2.1,0c0.6,0.6,0.6,1.5,0,2.1L19,52.2C18.7,52.4,18.4,52.6,18,52.6z"/>
	<path class="st0" d="M18,53.1c-0.5,0-1-0.2-1.4-0.6l-5-4.9c-0.4-0.4-0.6-0.9-0.6-1.4c0-0.5,0.2-1,0.6-1.4c0.8-0.8,2.1-0.8,2.8,0
		l3.5,3.5l7.8-7.8c0.8-0.8,2-0.8,2.8,0c0.4,0.4,0.6,0.9,0.6,1.4s-0.2,1-0.6,1.4l-9.2,9.2C19,52.9,18.5,53.1,18,53.1z M13,45.1
		c-0.3,0-0.5,0.1-0.7,0.3c-0.2,0.2-0.3,0.4-0.3,0.7s0.1,0.5,0.3,0.7l5,4.9c0.4,0.4,1,0.4,1.4,0l9.2-9.2c0.2-0.2,0.3-0.4,0.3-0.7
		s-0.1-0.5-0.3-0.7c-0.4-0.4-1-0.4-1.4,0l-8.1,8.1c-0.2,0.2-0.5,0.2-0.7,0l-3.9-3.9C13.5,45.3,13.3,45.1,13,45.1z"/>
</g>
</svg>
