<?xml version="1.0" encoding="utf-8"?>
<!-- Generator: Adobe Illustrator 21.1.0, SVG Export Plug-In . SVG Version: 6.00 Build 0)  -->
<svg version="1.1" id="Icon_Set" xmlns="http://www.w3.org/2000/svg" xmlns:xlink="http://www.w3.org/1999/xlink" x="0px" y="0px"
	 viewBox="0 0 64 54" style="enable-background:new 0 0 64 54;" xml:space="preserve">
<style type="text/css">
	.st0{fill:#1F1F25;}
	.st1{fill:#FF5252;}
	.st2{fill:#FFD740;}
	.st3{fill:#40C4FF;}
	.st4{fill:#FFFFFF;}
	.st5{fill:#4DB6AC;}
	.st6{fill:url(#SVGID_1_);}
	.st7{fill:url(#SVGID_2_);}
	.st8{fill:url(#SVGID_3_);}
	.st9{fill:url(#SVGID_4_);}
	.st10{fill:url(#SVGID_5_);}
	.st11{fill:#4FC3F7;}
	.st12{fill:url(#SVGID_6_);}
	.st13{fill:url(#SVGID_7_);}
	.st14{fill:url(#SVGID_8_);}
	.st15{fill:url(#SVGID_9_);}
	.st16{fill:url(#SVGID_10_);}
	.st17{fill:url(#SVGID_11_);}
	.st18{fill:url(#SVGID_12_);}
	.st19{fill:url(#SVGID_13_);}
	.st20{fill:#FFE6AE;}
	.st21{fill:url(#SVGID_14_);}
	.st22{display:none;fill:#1F1F25;}
	.st23{fill:url(#SVGID_15_);}
	.st24{fill:url(#SVGID_16_);}
	.st25{fill:url(#SVGID_17_);}
	.st26{fill:url(#SVGID_18_);}
	.st27{fill:none;stroke:#1F1F25;stroke-miterlimit:10;}
</style>
<g id="Ordered_Records">
	<g>
		<path class="st0" d="M15.7,52.8h-12c-1.7,0-3-1.3-3-3v-23c0-1.7,1.3-3,3-3h12c1.7,0,3,1.3,3,3v23C18.7,51.5,17.3,52.8,15.7,52.8z
			 M3.7,24.8c-1.1,0-2,0.9-2,2v23c0,1.1,0.9,2,2,2h12c1.1,0,2-0.9,2-2v-23c0-1.1-0.9-2-2-2H3.7z"/>
	</g>
	<g>
		<path class="st0" d="M15.2,35.8h-11c-0.3,0-0.5-0.2-0.5-0.5s0.2-0.5,0.5-0.5h11c0.3,0,0.5,0.2,0.5,0.5S15.4,35.8,15.2,35.8z"/>
	</g>
	<g>
		<path class="st0" d="M15.2,40.8h-11c-0.3,0-0.5-0.2-0.5-0.5s0.2-0.5,0.5-0.5h11c0.3,0,0.5,0.2,0.5,0.5S15.4,40.8,15.2,40.8z"/>
	</g>
	<g>
		<path class="st0" d="M15.2,45.8h-11c-0.3,0-0.5-0.2-0.5-0.5s0.2-0.5,0.5-0.5h11c0.3,0,0.5,0.2,0.5,0.5S15.4,45.8,15.2,45.8z"/>
	</g>
	<g>
		<path class="st0" d="M9.7,30.8c-1.1,0-2-0.9-2-2s0.9-2,2-2s2,0.9,2,2S10.8,30.8,9.7,30.8z M9.7,27.8c-0.6,0-1,0.4-1,1s0.4,1,1,1
			s1-0.4,1-1S10.2,27.8,9.7,27.8z"/>
	</g>
	<g>
		<linearGradient id="SVGID_1_" gradientUnits="userSpaceOnUse" x1="47.1588" y1="38.3009" x2="64.1588" y2="38.3009">
			<stop  offset="0" style="stop-color:#FFE7B3"/>
			<stop  offset="1" style="stop-color:#FFBE15"/>
		</linearGradient>
		<path class="st6" d="M61.7,52.3h-12c-1.4,0-2.5-1.1-2.5-2.5v-23c0-1.4,1.1-2.5,2.5-2.5h12c1.4,0,2.5,1.1,2.5,2.5v23
			C64.2,51.2,63,52.3,61.7,52.3z"/>
		<path class="st0" d="M61.7,52.8h-12c-1.7,0-3-1.3-3-3v-23c0-1.7,1.3-3,3-3h12c1.7,0,3,1.3,3,3v23C64.7,51.5,63.3,52.8,61.7,52.8z
			 M49.7,24.8c-1.1,0-2,0.9-2,2v23c0,1.1,0.9,2,2,2h12c1.1,0,2-0.9,2-2v-23c0-1.1-0.9-2-2-2H49.7z"/>
	</g>
	<g>
		<path class="st0" d="M61.2,35.8h-11c-0.3,0-0.5-0.2-0.5-0.5s0.2-0.5,0.5-0.5h11c0.3,0,0.5,0.2,0.5,0.5S61.4,35.8,61.2,35.8z"/>
	</g>
	<g>
		<path class="st0" d="M61.2,40.8h-11c-0.3,0-0.5-0.2-0.5-0.5s0.2-0.5,0.5-0.5h11c0.3,0,0.5,0.2,0.5,0.5S61.4,40.8,61.2,40.8z"/>
	</g>
	<g>
		<path class="st0" d="M61.2,45.8h-11c-0.3,0-0.5-0.2-0.5-0.5s0.2-0.5,0.5-0.5h11c0.3,0,0.5,0.2,0.5,0.5S61.4,45.8,61.2,45.8z"/>
	</g>
	<g>
		<path class="st0" d="M55.7,30.8c-1.1,0-2-0.9-2-2s0.9-2,2-2s2,0.9,2,2S56.8,30.8,55.7,30.8z M55.7,27.8c-0.6,0-1,0.4-1,1
			s0.4,1,1,1s1-0.4,1-1S56.2,27.8,55.7,27.8z"/>
	</g>
	<g>
		<path class="st0" d="M39.2,32.8h-12c-1.7,0-3-1.3-3-3v-23c0-1.7,1.3-3,3-3h12c1.7,0,3,1.3,3,3v23C42.2,31.5,40.8,32.8,39.2,32.8z
			 M27.2,4.8c-1.1,0-2,0.9-2,2v23c0,1.1,0.9,2,2,2h12c1.1,0,2-0.9,2-2v-23c0-1.1-0.9-2-2-2H27.2z"/>
	</g>
	<g>
		<path class="st0" d="M38.7,15.8h-11c-0.3,0-0.5-0.2-0.5-0.5s0.2-0.5,0.5-0.5h11c0.3,0,0.5,0.2,0.5,0.5S38.9,15.8,38.7,15.8z"/>
	</g>
	<g>
		<path class="st0" d="M38.7,20.8h-11c-0.3,0-0.5-0.2-0.5-0.5s0.2-0.5,0.5-0.5h11c0.3,0,0.5,0.2,0.5,0.5S38.9,20.8,38.7,20.8z"/>
	</g>
	<g>
		<path class="st0" d="M38.7,25.8h-11c-0.3,0-0.5-0.2-0.5-0.5s0.2-0.5,0.5-0.5h11c0.3,0,0.5,0.2,0.5,0.5S38.9,25.8,38.7,25.8z"/>
	</g>
	<g>
		<path class="st0" d="M33.2,10.8c-1.1,0-2-0.9-2-2s0.9-2,2-2s2,0.9,2,2S34.3,10.8,33.2,10.8z M33.2,7.8c-0.6,0-1,0.4-1,1s0.4,1,1,1
			s1-0.4,1-1S33.7,7.8,33.2,7.8z"/>
	</g>
	<g>
		<path class="st0" d="M9.7,21.8c-0.3,0-0.5-0.2-0.5-0.5v-5.5c0-1.7,1.3-3,3-3h9.5c0.3,0,0.5,0.2,0.5,0.5s-0.2,0.5-0.5,0.5h-9.5
			c-1.1,0-2,0.9-2,2v5.5C10.2,21.6,9.9,21.8,9.7,21.8z"/>
	</g>
	<g>
		<path class="st0" d="M19.7,15.8c-0.1,0-0.3,0-0.4-0.1c-0.2-0.2-0.2-0.5,0-0.7l1.6-1.6l-1.6-1.6c-0.2-0.2-0.2-0.5,0-0.7
			s0.5-0.2,0.7,0l2,2c0.2,0.2,0.2,0.5,0,0.7l-2,2C19.9,15.8,19.8,15.8,19.7,15.8z"/>
	</g>
	<g>
		<path class="st0" d="M44.2,46.3h-8.5c-1.7,0-3-1.3-3-3v-8c0-0.3,0.2-0.5,0.5-0.5s0.5,0.2,0.5,0.5v8c0,1.1,0.9,2,2,2h8.5
			c0.3,0,0.5,0.2,0.5,0.5S44.4,46.3,44.2,46.3z"/>
	</g>
	<g>
		<path class="st0" d="M42.2,48.3c-0.1,0-0.3,0-0.4-0.1c-0.2-0.2-0.2-0.5,0-0.7l1.6-1.6l-1.6-1.6c-0.2-0.2-0.2-0.5,0-0.7
			s0.5-0.2,0.7,0l2,2c0.2,0.2,0.2,0.5,0,0.7l-2,2C42.4,48.3,42.3,48.3,42.2,48.3z"/>
	</g>
	<g>
		<linearGradient id="SVGID_2_" gradientUnits="userSpaceOnUse" x1="48.6588" y1="6.301" x2="63.6588" y2="6.301">
			<stop  offset="0" style="stop-color:#FFE7B3"/>
			<stop  offset="1" style="stop-color:#FFBE15"/>
		</linearGradient>
		<circle class="st7" cx="56.2" cy="6.3" r="7.5"/>
	</g>
	<g>
		<path class="st0" d="M54.7,9.1c-0.1,0-0.3-0.1-0.4-0.1l-2.8-2.8c-0.2-0.2-0.2-0.5,0-0.7s0.5-0.2,0.7,0l2.5,2.5l5-5
			c0.2-0.2,0.5-0.2,0.7,0s0.2,0.5,0,0.7L55.1,9C55,9.1,54.9,9.1,54.7,9.1z"/>
	</g>
</g>
</svg>
