<?xml version="1.0" encoding="utf-8"?>
<!-- Generator: Adobe Illustrator 21.1.0, SVG Export Plug-In . SVG Version: 6.00 Build 0)  -->
<svg version="1.1" id="Icon_Set" xmlns="http://www.w3.org/2000/svg" xmlns:xlink="http://www.w3.org/1999/xlink" x="0px" y="0px"
	 viewBox="0 0 57 63" style="enable-background:new 0 0 57 63;" xml:space="preserve">
<style type="text/css">
	.st0{fill:#1F1F25;}
	.st1{fill:#FF5252;}
	.st2{fill:#FFD740;}
	.st3{fill:#40C4FF;}
	.st4{fill:#FFFFFF;}
	.st5{fill:#4DB6AC;}
	.st6{fill:url(#SVGID_1_);}
	.st7{fill:url(#SVGID_2_);}
	.st8{fill:url(#SVGID_3_);}
	.st9{fill:url(#SVGID_4_);}
	.st10{fill:url(#SVGID_5_);}
	.st11{fill:#4FC3F7;}
	.st12{fill:url(#SVGID_6_);}
	.st13{fill:url(#SVGID_7_);}
	.st14{fill:url(#SVGID_8_);}
	.st15{fill:url(#SVGID_9_);}
	.st16{fill:url(#SVGID_10_);}
	.st17{fill:url(#SVGID_11_);}
	.st18{fill:url(#SVGID_12_);}
	.st19{fill:url(#SVGID_13_);}
	.st20{fill:#FFE6AE;}
	.st21{fill:url(#SVGID_14_);}
	.st22{display:none;fill:#1F1F25;}
	.st23{fill:url(#SVGID_15_);}
	.st24{fill:url(#SVGID_16_);}
	.st25{fill:url(#SVGID_17_);}
	.st26{fill:url(#SVGID_18_);}
	.st27{fill:none;stroke:#1F1F25;stroke-miterlimit:10;}
</style>
<g id="Withdraw">
	<g>
		<linearGradient id="SVGID_1_" gradientUnits="userSpaceOnUse" x1="14.0006" y1="47.4995" x2="43.0006" y2="47.4995">
			<stop  offset="0" style="stop-color:#FFE7B3"/>
			<stop  offset="1" style="stop-color:#FFBE15"/>
		</linearGradient>
		<path class="st6" d="M14,32.5v29c0,0.6,0.4,1,1,1h27c0.6,0,1-0.4,1-1v-29"/>
		<path class="st0" d="M42,63H15c-0.8,0-1.5-0.7-1.5-1.5v-29c0-0.3,0.2-0.5,0.5-0.5s0.5,0.2,0.5,0.5v29c0,0.3,0.2,0.5,0.5,0.5h27
			c0.3,0,0.5-0.2,0.5-0.5v-29c0-0.3,0.2-0.5,0.5-0.5s0.5,0.2,0.5,0.5v29C43.5,62.3,42.8,63,42,63z"/>
	</g>
	<g>
		<linearGradient id="SVGID_2_" gradientUnits="userSpaceOnUse" x1="18.5006" y1="45.2495" x2="38.5006" y2="45.2495">
			<stop  offset="0" style="stop-color:#FFE7B3"/>
			<stop  offset="1" style="stop-color:#FFBE15"/>
		</linearGradient>
		<polyline class="st7" points="18.5,32.5 18.5,58 38.5,58 38.5,32.5 		"/>
		<path class="st0" d="M38.5,58.5h-20c-0.3,0-0.5-0.2-0.5-0.5V32.5c0-0.3,0.2-0.5,0.5-0.5s0.5,0.2,0.5,0.5v25h19v-25
			c0-0.3,0.2-0.5,0.5-0.5s0.5,0.2,0.5,0.5V58C39,58.3,38.8,58.5,38.5,58.5z"/>
	</g>
	<g>
		<path class="st4" d="M23.6,32.5c-1.3,1.3-2.1,3-2.1,5c0,3.9,3.1,7,7,7s7-3.1,7-7c0-2-0.8-3.7-2.1-5"/>
		<path class="st0" d="M28.5,45c-4.1,0-7.5-3.4-7.5-7.5c0-2,0.8-3.9,2.3-5.4c0.2-0.2,0.5-0.2,0.7,0s0.2,0.5,0,0.7
			c-1.3,1.2-2,2.9-2,4.6c0,3.6,2.9,6.5,6.5,6.5s6.5-2.9,6.5-6.5c0-1.8-0.7-3.4-2-4.6c-0.2-0.2-0.2-0.5,0-0.7s0.5-0.2,0.7,0
			c1.5,1.4,2.3,3.3,2.3,5.4C36,41.6,32.6,45,28.5,45z"/>
	</g>
	<g>
		<path class="st0" d="M40.5,60.5L40.5,60.5l-6,0c-0.3,0-0.5-0.2-0.5-0.5c0-1.7,0.7-3.4,1.9-4.6s2.9-1.9,4.6-1.9c0,0,0,0,0,0
			c0.3,0,0.5,0.2,0.5,0.5v6c0,0.1-0.1,0.3-0.1,0.4S40.6,60.5,40.5,60.5z M35,59.5l5,0v-5c-1.3,0.1-2.5,0.7-3.4,1.6
			S35.1,58.2,35,59.5z"/>
	</g>
	<g>
		<path class="st0" d="M22.5,60.5h-6c-0.3,0-0.5-0.2-0.5-0.5v-6c0-0.3,0.2-0.5,0.5-0.5c3.6,0,6.5,2.9,6.5,6.5
			C23,60.3,22.8,60.5,22.5,60.5z M17,59.5h5c-0.2-2.6-2.3-4.7-5-5V59.5z"/>
	</g>
	<g>
		<path class="st0" d="M54,41h-9c-0.3,0-0.5-0.2-0.5-0.5S44.7,40,45,40h9c1.1,0,2-0.9,2-2V19c0-1.1-0.9-2-2-2h-9.5
			c-0.3,0-0.5-0.2-0.5-0.5C44,8,37,1,28.5,1S13,8,13,16.5c0,0.3-0.2,0.5-0.5,0.5H3c-1.1,0-2,0.9-2,2v19c0,1.1,0.9,2,2,2h9
			c0.3,0,0.5,0.2,0.5,0.5S12.3,41,12,41H3c-1.7,0-3-1.3-3-3V19c0-1.7,1.3-3,3-3h9c0.3-8.9,7.6-16,16.5-16C37.4,0,44.7,7.1,45,16h9
			c1.7,0,3,1.3,3,3v19C57,39.7,55.7,41,54,41z"/>
	</g>
	<g>
		<path class="st0" d="M50.5,41H45c-0.3,0-0.5-0.2-0.5-0.5S44.7,40,45,40h5v-8.5c0-0.3-0.2-0.5-0.5-0.5h-42C7.2,31,7,31.2,7,31.5V40
			h5c0.3,0,0.5,0.2,0.5,0.5S12.3,41,12,41H6.5C6.2,41,6,40.8,6,40.5v-9C6,30.7,6.7,30,7.5,30h42c0.8,0,1.5,0.7,1.5,1.5v9
			C51,40.8,50.8,41,50.5,41z"/>
	</g>
	<g>
		<linearGradient id="SVGID_3_" gradientUnits="userSpaceOnUse" x1="18.5006" y1="16.4995" x2="38.5006" y2="16.4995">
			<stop  offset="0" style="stop-color:#FFE7B3"/>
			<stop  offset="1" style="stop-color:#FFBE15"/>
		</linearGradient>
		<circle class="st8" cx="28.5" cy="16.5" r="10"/>
		<path class="st0" d="M28.5,27C22.7,27,18,22.3,18,16.5S22.7,6,28.5,6S39,10.7,39,16.5S34.3,27,28.5,27z M28.5,7
			c-5.2,0-9.5,4.3-9.5,9.5s4.3,9.5,9.5,9.5c5.2,0,9.5-4.3,9.5-9.5S33.7,7,28.5,7z"/>
	</g>
	<g>
		<path class="st0" d="M29.5,17H26c-0.3,0-0.5-0.2-0.5-0.5v-4c0-0.3,0.2-0.5,0.5-0.5h3.5c1.4,0,2.5,1.1,2.5,2.5
			C32,15.9,30.9,17,29.5,17z M26.5,16h3c0.8,0,1.5-0.7,1.5-1.5S30.3,13,29.5,13h-3V16z"/>
	</g>
	<g>
		<path class="st0" d="M30.5,21H26c-0.3,0-0.5-0.2-0.5-0.5v-4c0-0.3,0.2-0.5,0.5-0.5h4.5c1.4,0,2.5,1.1,2.5,2.5
			C33,19.9,31.9,21,30.5,21z M26.5,20h4c0.8,0,1.5-0.7,1.5-1.5S31.3,17,30.5,17h-4V20z"/>
	</g>
	<g>
		<path class="st0" d="M26,13h-1.5c-0.3,0-0.5-0.2-0.5-0.5s0.2-0.5,0.5-0.5H26c0.3,0,0.5,0.2,0.5,0.5S26.3,13,26,13z"/>
	</g>
	<g>
		<path class="st0" d="M26,21h-1.5c-0.3,0-0.5-0.2-0.5-0.5s0.2-0.5,0.5-0.5H26c0.3,0,0.5,0.2,0.5,0.5S26.3,21,26,21z"/>
	</g>
	<g>
		<path class="st0" d="M27.5,13c-0.3,0-0.5-0.2-0.5-0.5v-2c0-0.3,0.2-0.5,0.5-0.5s0.5,0.2,0.5,0.5v2C28,12.8,27.8,13,27.5,13z"/>
	</g>
	<g>
		<path class="st0" d="M29.5,13c-0.3,0-0.5-0.2-0.5-0.5v-2c0-0.3,0.2-0.5,0.5-0.5s0.5,0.2,0.5,0.5v2C30,12.8,29.8,13,29.5,13z"/>
	</g>
	<g>
		<path class="st0" d="M27.5,23c-0.3,0-0.5-0.2-0.5-0.5v-2c0-0.3,0.2-0.5,0.5-0.5s0.5,0.2,0.5,0.5v2C28,22.8,27.8,23,27.5,23z"/>
	</g>
	<g>
		<path class="st0" d="M29.5,23c-0.3,0-0.5-0.2-0.5-0.5v-2c0-0.3,0.2-0.5,0.5-0.5s0.5,0.2,0.5,0.5v2C30,22.8,29.8,23,29.5,23z"/>
	</g>
	<g>
		<path class="st0" d="M27.2,40c-1,0-1.8-0.8-1.8-1.8v-2.8c0-0.3,0.2-0.5,0.5-0.5s0.5,0.2,0.5,0.5v2.8c0,0.4,0.3,0.8,0.8,0.8
			s0.8-0.3,0.8-0.8v-1.5c0-1,0.8-1.8,1.8-1.8s1.8,0.8,1.8,1.8V39c0,0.3-0.2,0.5-0.5,0.5s-0.5-0.2-0.5-0.5v-2.2
			c0-0.4-0.3-0.8-0.8-0.8S29,36.3,29,36.7v1.5C29,39.2,28.2,40,27.2,40z"/>
	</g>
	<g>
		<path class="st0" d="M32.5,38H31c-0.3,0-0.5-0.2-0.5-0.5S30.7,37,31,37h1.5c0.3,0,0.5,0.2,0.5,0.5S32.8,38,32.5,38z"/>
	</g>
	<g>
		<path class="st0" d="M26,38h-1.5c-0.3,0-0.5-0.2-0.5-0.5s0.2-0.5,0.5-0.5H26c0.3,0,0.5,0.2,0.5,0.5S26.3,38,26,38z"/>
	</g>
</g>
</svg>
