<?xml version="1.0" encoding="utf-8"?>
<!-- Generator: Adobe Illustrator 21.1.0, SVG Export Plug-In . SVG Version: 6.00 Build 0)  -->
<svg version="1.1" id="Icon_Set" xmlns="http://www.w3.org/2000/svg" xmlns:xlink="http://www.w3.org/1999/xlink" x="0px" y="0px"
	 viewBox="0 0 55 57" style="enable-background:new 0 0 55 57;" xml:space="preserve">
<style type="text/css">
	.st0{fill:#1F1F25;}
	.st1{fill:#FF5252;}
	.st2{fill:#FFD740;}
	.st3{fill:#40C4FF;}
	.st4{fill:#FFFFFF;}
	.st5{fill:#4DB6AC;}
	.st6{fill:url(#SVGID_1_);}
	.st7{fill:url(#SVGID_2_);}
	.st8{fill:url(#SVGID_3_);}
	.st9{fill:url(#SVGID_4_);}
	.st10{fill:url(#SVGID_5_);}
	.st11{fill:#4FC3F7;}
	.st12{fill:url(#SVGID_6_);}
	.st13{fill:url(#SVGID_7_);}
	.st14{fill:url(#SVGID_8_);}
	.st15{fill:url(#SVGID_9_);}
	.st16{fill:url(#SVGID_10_);}
	.st17{fill:url(#SVGID_11_);}
	.st18{fill:url(#SVGID_12_);}
	.st19{fill:url(#SVGID_13_);}
	.st20{fill:#FFE6AE;}
	.st21{fill:url(#SVGID_14_);}
	.st22{display:none;fill:#1F1F25;}
	.st23{fill:url(#SVGID_15_);}
	.st24{fill:url(#SVGID_16_);}
	.st25{fill:url(#SVGID_17_);}
	.st26{fill:url(#SVGID_18_);}
	.st27{fill:none;stroke:#1F1F25;stroke-miterlimit:10;}
</style>
<g id="Encrypted">
	<g>
		<linearGradient id="SVGID_1_" gradientUnits="userSpaceOnUse" x1="11.2774" y1="28.2498" x2="33.7231" y2="28.2498">
			<stop  offset="0" style="stop-color:#FFE7B3"/>
			<stop  offset="1" style="stop-color:#FFBE15"/>
		</linearGradient>
		<path class="st6" d="M19.5,36.1c-0.4,0-0.8-0.1-1.1-0.4L11.7,29c-0.6-0.6-0.6-1.5,0-2.1s1.5-0.6,2.1,0l5.7,5.7l11.7-11.7
			c0.6-0.6,1.5-0.6,2.1,0c0.6,0.6,0.6,1.5,0,2.1L20.6,35.7C20.3,36,19.9,36.1,19.5,36.1z"/>
		<path class="st0" d="M19.5,36.6c-0.5,0-1-0.2-1.4-0.6l-6.7-6.7c-0.4-0.4-0.6-0.9-0.6-1.4c0-0.5,0.2-1,0.6-1.4
			c0.8-0.8,2.1-0.8,2.8,0l5.3,5.3l11.3-11.3c0.8-0.8,2.1-0.8,2.8,0c0.4,0.4,0.6,0.9,0.6,1.4s-0.2,1-0.6,1.4L20.9,36
			C20.5,36.4,20,36.6,19.5,36.6z M12.8,26.9c-0.3,0-0.5,0.1-0.7,0.3c-0.2,0.2-0.3,0.4-0.3,0.7s0.1,0.5,0.3,0.7l6.7,6.7
			c0.4,0.4,1,0.4,1.4,0l12.7-12.7c0.2-0.2,0.3-0.4,0.3-0.7s-0.1-0.5-0.3-0.7c-0.4-0.4-1-0.4-1.4,0L19.8,32.8c-0.2,0.2-0.5,0.2-0.7,0
			l-5.7-5.7C13.3,27,13,26.9,12.8,26.9z"/>
	</g>
	<g>
		<path class="st0" d="M52,38c-0.3,0-0.5-0.2-0.5-0.5v-3c0-3.9-3.1-7-7-7s-7,3.1-7,7v3c0,0.3-0.2,0.5-0.5,0.5s-0.5-0.2-0.5-0.5v-3
			c0-4.4,3.6-8,8-8s8,3.6,8,8v3C52.5,37.8,52.3,38,52,38z"/>
	</g>
	<g>
		<path class="st0" d="M49,38c-0.3,0-0.5-0.2-0.5-0.5v-3c0-2.2-1.8-4-4-4s-4,1.8-4,4v3c0,0.3-0.2,0.5-0.5,0.5s-0.5-0.2-0.5-0.5v-3
			c0-2.8,2.2-5,5-5s5,2.2,5,5v3C49.5,37.8,49.3,38,49,38z"/>
	</g>
	<g>
		<path class="st0" d="M22.5,56.5c-0.1,0-0.2,0-0.3-0.1l-11.1-7.6C4.2,44.1,0,36.2,0,27.8V5.5c0-0.2,0.1-0.3,0.2-0.4
			C0.4,5,0.6,5,0.7,5l2,0.9C8,8.4,14.2,7.4,18.5,3.5l3.7-3.4c0.2-0.2,0.5-0.2,0.7,0l3.7,3.4C30.8,7.4,37,8.4,42.3,6l2-0.9
			c0.2-0.1,0.3-0.1,0.5,0C44.9,5.2,45,5.3,45,5.5V25c0,0.3-0.2,0.5-0.5,0.5S44,25.3,44,25V6.3l-1.3,0.6c-5.6,2.6-12.3,1.5-16.8-2.6
			l-3.4-3.1l-3.4,3.1C14.6,8.4,7.9,9.4,2.3,6.9L1,6.3v21.5C1,35.9,5,43.5,11.7,48l10.8,7.4l9.7-6.6c0.2-0.2,0.5-0.1,0.7,0.1
			c0.2,0.2,0.1,0.5-0.1,0.7l-10,6.8C22.7,56.5,22.6,56.5,22.5,56.5z"/>
	</g>
	<g>
		<path class="st0" d="M41.5,25.5c-0.3,0-0.5-0.2-0.5-0.5V10.6c-6,1.6-12.5,0-17.2-4.2c-0.2-0.2-0.2-0.5,0-0.7
			c0.2-0.2,0.5-0.2,0.7,0c4.5,4.1,11,5.6,16.8,3.8c0.2,0,0.3,0,0.4,0.1C41.9,9.7,42,9.8,42,10v15C42,25.3,41.8,25.5,41.5,25.5z"/>
	</g>
	<g>
		<linearGradient id="SVGID_2_" gradientUnits="userSpaceOnUse" x1="34.5002" y1="47.9998" x2="54.5002" y2="47.9998">
			<stop  offset="0" style="stop-color:#FFE7B3"/>
			<stop  offset="1" style="stop-color:#FFBE15"/>
		</linearGradient>
		<path class="st7" d="M52,39.5H37c-1.4,0-2.5,1.1-2.5,2.5v12c0,1.4,1.1,2.5,2.5,2.5h15c1.4,0,2.5-1.1,2.5-2.5V42
			C54.5,40.6,53.4,39.5,52,39.5z M46.5,51.5h-4l0.8-3.4c-0.5-0.4-0.8-0.9-0.8-1.6c0-1.1,0.9-2,2-2s2,0.9,2,2c0,0.6-0.3,1.2-0.8,1.6
			L46.5,51.5z"/>
		<path class="st0" d="M52,57H37c-1.7,0-3-1.3-3-3V42c0-1.7,1.3-3,3-3h15c1.7,0,3,1.3,3,3v12C55,55.7,53.7,57,52,57z M37,40
			c-1.1,0-2,0.9-2,2v12c0,1.1,0.9,2,2,2h15c1.1,0,2-0.9,2-2V42c0-1.1-0.9-2-2-2H37z M46.5,52h-4c-0.2,0-0.3-0.1-0.4-0.2
			C42,51.7,42,51.5,42,51.4l0.7-3.2c-0.5-0.5-0.7-1.1-0.7-1.7c0-1.4,1.1-2.5,2.5-2.5s2.5,1.1,2.5,2.5c0,0.7-0.3,1.3-0.7,1.7l0.7,3.2
			c0,0.1,0,0.3-0.1,0.4C46.8,51.9,46.7,52,46.5,52z M43.1,51h2.8l-0.6-2.8c0-0.2,0-0.4,0.2-0.5c0.4-0.3,0.6-0.7,0.6-1.2
			c0-0.8-0.7-1.5-1.5-1.5S43,45.7,43,46.5c0,0.5,0.2,0.9,0.6,1.2c0.2,0.1,0.2,0.3,0.2,0.5L43.1,51z"/>
	</g>
</g>
</svg>
