<?xml version="1.0" encoding="utf-8"?>
<!-- Generator: Adobe Illustrator 23.0.0, SVG Export Plug-In . SVG Version: 6.00 Build 0)  -->
<svg version="1.1" id="Icon_Set" xmlns="http://www.w3.org/2000/svg" xmlns:xlink="http://www.w3.org/1999/xlink" x="0px" y="0px"
	 viewBox="0 0 64 54" style="enable-background:new 0 0 64 54;" xml:space="preserve">
<style type="text/css">
	.st0{fill:#1F1F25;}
	.st1{fill:url(#SVGID_1_);}
	.st2{fill:url(#SVGID_2_);}
</style>
<g id="Ordered_Records">
	<g>
		<path class="st0" d="M15,54H3c-1.7,0-3-1.3-3-3V28c0-1.7,1.3-3,3-3h12c1.7,0,3,1.3,3,3v23C18,52.7,16.6,54,15,54z M3,26
			c-1.1,0-2,0.9-2,2v23c0,1.1,0.9,2,2,2h12c1.1,0,2-0.9,2-2V28c0-1.1-0.9-2-2-2H3z"/>
	</g>
	<g>
		<path class="st0" d="M14.5,37h-11C3.2,37,3,36.8,3,36.5S3.2,36,3.5,36h11c0.3,0,0.5,0.2,0.5,0.5S14.7,37,14.5,37z"/>
	</g>
	<g>
		<path class="st0" d="M14.5,42h-11C3.2,42,3,41.8,3,41.5S3.2,41,3.5,41h11c0.3,0,0.5,0.2,0.5,0.5S14.7,42,14.5,42z"/>
	</g>
	<g>
		<path class="st0" d="M14.5,47h-11C3.2,47,3,46.8,3,46.5S3.2,46,3.5,46h11c0.3,0,0.5,0.2,0.5,0.5S14.7,47,14.5,47z"/>
	</g>
	<g>
		<path class="st0" d="M9,32c-1.1,0-2-0.9-2-2c0-1.1,0.9-2,2-2s2,0.9,2,2C11,31.1,10.1,32,9,32z M9,29c-0.6,0-1,0.4-1,1
			c0,0.6,0.4,1,1,1s1-0.4,1-1C10,29.4,9.5,29,9,29z"/>
	</g>
	<g>
		
			<linearGradient id="SVGID_1_" gradientUnits="userSpaceOnUse" x1="46.4588" y1="18.9" x2="63.4588" y2="18.9" gradientTransform="matrix(1 0 0 -1 0 58.4)">
			<stop  offset="0" style="stop-color:#FFE7B3"/>
			<stop  offset="1" style="stop-color:#FFBE15"/>
		</linearGradient>
		<path class="st1" d="M61,53.5H49c-1.4,0-2.5-1.1-2.5-2.5V28c0-1.4,1.1-2.5,2.5-2.5h12c1.4,0,2.5,1.1,2.5,2.5v23
			C63.5,52.4,62.3,53.5,61,53.5z"/>
		<path class="st0" d="M61,54H49c-1.7,0-3-1.3-3-3V28c0-1.7,1.3-3,3-3h12c1.7,0,3,1.3,3,3v23C64,52.7,62.6,54,61,54z M49,26
			c-1.1,0-2,0.9-2,2v23c0,1.1,0.9,2,2,2h12c1.1,0,2-0.9,2-2V28c0-1.1-0.9-2-2-2H49z"/>
	</g>
	<g>
		<path class="st0" d="M60.5,37h-11c-0.3,0-0.5-0.2-0.5-0.5s0.2-0.5,0.5-0.5h11c0.3,0,0.5,0.2,0.5,0.5S60.7,37,60.5,37z"/>
	</g>
	<g>
		<path class="st0" d="M60.5,42h-11c-0.3,0-0.5-0.2-0.5-0.5s0.2-0.5,0.5-0.5h11c0.3,0,0.5,0.2,0.5,0.5S60.7,42,60.5,42z"/>
	</g>
	<g>
		<path class="st0" d="M60.5,47h-11c-0.3,0-0.5-0.2-0.5-0.5s0.2-0.5,0.5-0.5h11c0.3,0,0.5,0.2,0.5,0.5S60.7,47,60.5,47z"/>
	</g>
	<g>
		<path class="st0" d="M55,32c-1.1,0-2-0.9-2-2c0-1.1,0.9-2,2-2s2,0.9,2,2C57,31.1,56.1,32,55,32z M55,29c-0.6,0-1,0.4-1,1
			c0,0.6,0.4,1,1,1s1-0.4,1-1C56,29.4,55.5,29,55,29z"/>
	</g>
	<g>
		<path class="st0" d="M38.5,34h-12c-1.7,0-3-1.3-3-3V8c0-1.7,1.3-3,3-3h12c1.7,0,3,1.3,3,3v23C41.5,32.7,40.1,34,38.5,34z M26.5,6
			c-1.1,0-2,0.9-2,2v23c0,1.1,0.9,2,2,2h12c1.1,0,2-0.9,2-2V8c0-1.1-0.9-2-2-2C38.5,6,26.5,6,26.5,6z"/>
	</g>
	<g>
		<path class="st0" d="M38,17H27c-0.3,0-0.5-0.2-0.5-0.5S26.7,16,27,16h11c0.3,0,0.5,0.2,0.5,0.5S38.2,17,38,17z"/>
	</g>
	<g>
		<path class="st0" d="M38,22H27c-0.3,0-0.5-0.2-0.5-0.5S26.7,21,27,21h11c0.3,0,0.5,0.2,0.5,0.5S38.2,22,38,22z"/>
	</g>
	<g>
		<path class="st0" d="M38,27H27c-0.3,0-0.5-0.2-0.5-0.5S26.7,26,27,26h11c0.3,0,0.5,0.2,0.5,0.5S38.2,27,38,27z"/>
	</g>
	<g>
		<path class="st0" d="M32.5,12c-1.1,0-2-0.9-2-2s0.9-2,2-2s2,0.9,2,2S33.6,12,32.5,12z M32.5,9c-0.6,0-1,0.4-1,1s0.4,1,1,1
			s1-0.4,1-1S33,9,32.5,9z"/>
	</g>
	<g>
		<path class="st0" d="M9,23c-0.3,0-0.5-0.2-0.5-0.5V17c0-1.7,1.3-3,3-3H21c0.3,0,0.5,0.2,0.5,0.5S21.3,15,21,15h-9.5
			c-1.1,0-2,0.9-2,2v5.5C9.5,22.8,9.2,23,9,23z"/>
	</g>
	<g>
		<path class="st0" d="M19,17c-0.1,0-0.3,0-0.4-0.1c-0.2-0.2-0.2-0.5,0-0.7l1.6-1.6L18.6,13c-0.2-0.2-0.2-0.5,0-0.7s0.5-0.2,0.7,0
			l2,2c0.2,0.2,0.2,0.5,0,0.7l-2,2C19.2,17,19.1,17,19,17z"/>
	</g>
	<g>
		<path class="st0" d="M43.5,47.5H35c-1.7,0-3-1.3-3-3v-8c0-0.3,0.2-0.5,0.5-0.5s0.5,0.2,0.5,0.5v8c0,1.1,0.9,2,2,2h8.5
			c0.3,0,0.5,0.2,0.5,0.5S43.7,47.5,43.5,47.5z"/>
	</g>
	<g>
		<path class="st0" d="M41.5,49.5c-0.1,0-0.3,0-0.4-0.1c-0.2-0.2-0.2-0.5,0-0.7l1.6-1.6l-1.6-1.6c-0.2-0.2-0.2-0.5,0-0.7
			s0.5-0.2,0.7,0l2,2c0.2,0.2,0.2,0.5,0,0.7l-2,2C41.7,49.5,41.6,49.5,41.5,49.5z"/>
	</g>
	<g>
		
			<linearGradient id="SVGID_2_" gradientUnits="userSpaceOnUse" x1="47.9588" y1="50.9" x2="62.9588" y2="50.9" gradientTransform="matrix(1 0 0 -1 0 58.4)">
			<stop  offset="0" style="stop-color:#FFE7B3"/>
			<stop  offset="1" style="stop-color:#FFBE15"/>
		</linearGradient>
		<circle class="st2" cx="55.5" cy="7.5" r="7.5"/>
	</g>
	<g>
		<path class="st0" d="M54,10.3c-0.1,0-0.3-0.1-0.4-0.1l-2.8-2.8c-0.2-0.2-0.2-0.5,0-0.7s0.5-0.2,0.7,0L54,9.2l5-5
			c0.2-0.2,0.5-0.2,0.7,0c0.2,0.2,0.2,0.5,0,0.7l-5.3,5.3C54.3,10.3,54.2,10.3,54,10.3z"/>
	</g>
</g>
</svg>
