<?xml version="1.0" encoding="utf-8"?>
<!-- Generator: Adobe Illustrator 21.1.0, SVG Export Plug-In . SVG Version: 6.00 Build 0)  -->
<svg version="1.1" id="Icon_Set" xmlns="http://www.w3.org/2000/svg" xmlns:xlink="http://www.w3.org/1999/xlink" x="0px" y="0px"
	 viewBox="0 0 59 60.5" style="enable-background:new 0 0 59 60.5;" xml:space="preserve">
<style type="text/css">
	.st0{fill:#1F1F25;}
	.st1{fill:#FF5252;}
	.st2{fill:#FFD740;}
	.st3{fill:#40C4FF;}
	.st4{fill:#FFFFFF;}
	.st5{fill:#4DB6AC;}
	.st6{fill:url(#SVGID_1_);}
	.st7{fill:url(#SVGID_2_);}
	.st8{fill:url(#SVGID_3_);}
	.st9{fill:url(#SVGID_4_);}
	.st10{fill:url(#SVGID_5_);}
	.st11{fill:#4FC3F7;}
	.st12{fill:url(#SVGID_6_);}
	.st13{fill:url(#SVGID_7_);}
	.st14{fill:url(#SVGID_8_);}
	.st15{fill:url(#SVGID_9_);}
	.st16{fill:url(#SVGID_10_);}
	.st17{fill:url(#SVGID_11_);}
	.st18{fill:url(#SVGID_12_);}
	.st19{fill:url(#SVGID_13_);}
	.st20{fill:#FFE6AE;}
	.st21{fill:url(#SVGID_14_);}
	.st22{display:none;fill:#1F1F25;}
	.st23{fill:url(#SVGID_15_);}
	.st24{fill:url(#SVGID_16_);}
	.st25{fill:url(#SVGID_17_);}
	.st26{fill:url(#SVGID_18_);}
	.st27{fill:none;stroke:#1F1F25;stroke-miterlimit:10;}
</style>
<g>
	<g id="Payment_System_Technology">
		<g>
			<linearGradient id="SVGID_1_" gradientUnits="userSpaceOnUse" x1="21.159" y1="35.3009" x2="39.159" y2="35.3009">
				<stop  offset="0" style="stop-color:#FFE7B3"/>
				<stop  offset="1" style="stop-color:#FFBE15"/>
			</linearGradient>
			<path class="st6" d="M36.7,44.3h-13c-1.4,0-2.5-1.1-2.5-2.5v-13c0-1.4,1.1-2.5,2.5-2.5h13c1.4,0,2.5,1.1,2.5,2.5v13
				C39.2,43.2,38,44.3,36.7,44.3z"/>
			<path class="st0" d="M36.7,44.8h-13c-1.7,0-3-1.3-3-3v-13c0-1.7,1.3-3,3-3h13c1.7,0,3,1.3,3,3v13C39.7,43.5,38.3,44.8,36.7,44.8z
				 M23.7,26.8c-1.1,0-2,0.9-2,2v13c0,1.1,0.9,2,2,2h13c1.1,0,2-0.9,2-2v-13c0-1.1-0.9-2-2-2H23.7z"/>
		</g>
		<g>
			<path class="st0" d="M24.2,53.3c-0.3,0-0.5-0.2-0.5-0.5v-3.5c0-0.3,0.2-0.5,0.5-0.5s0.5,0.2,0.5,0.5v3.5
				C24.7,53.1,24.4,53.3,24.2,53.3z"/>
		</g>
		<g>
			<path class="st0" d="M36.2,53.3c-0.3,0-0.5-0.2-0.5-0.5v-3.5c0-0.3,0.2-0.5,0.5-0.5s0.5,0.2,0.5,0.5v3.5
				C36.7,53.1,36.4,53.3,36.2,53.3z"/>
		</g>
		<g>
			<path class="st0" d="M40.2,59.3h-20c-0.8,0-1.5-0.7-1.5-1.5v-2c0-0.8,0.7-1.5,1.5-1.5h20c0.8,0,1.5,0.7,1.5,1.5v2
				C41.7,58.6,41,59.3,40.2,59.3z M20.2,55.3c-0.3,0-0.5,0.2-0.5,0.5v2c0,0.3,0.2,0.5,0.5,0.5h20c0.3,0,0.5-0.2,0.5-0.5v-2
				c0-0.3-0.2-0.5-0.5-0.5H20.2z"/>
		</g>
		<g>
			<path class="st0" d="M59.2,41.8h-18c-0.3,0-0.5-0.2-0.5-0.5s0.2-0.5,0.5-0.5h18c0.3,0,0.5,0.2,0.5,0.5S59.4,41.8,59.2,41.8z"/>
		</g>
		<g>
			<path class="st0" d="M19.2,41.8h-18c-0.3,0-0.5-0.2-0.5-0.5s0.2-0.5,0.5-0.5h18c0.3,0,0.5,0.2,0.5,0.5S19.4,41.8,19.2,41.8z"/>
		</g>
		<g>
			<path class="st0" d="M43.2,7.8c-0.3,0-0.5-0.2-0.5-0.5v-4c0-0.3-0.2-0.5-0.5-0.5h-4c-0.3,0-0.5-0.2-0.5-0.5s0.2-0.5,0.5-0.5h4
				c0.8,0,1.5,0.7,1.5,1.5v4C43.7,7.6,43.4,7.8,43.2,7.8z"/>
		</g>
		<g>
			<path class="st0" d="M46.2,41.8c-0.3,0-0.5-0.2-0.5-0.5V1.8c0-1.1-0.9-2-2-2h-27c-1.1,0-2,0.9-2,2v39.5c0,0.3-0.2,0.5-0.5,0.5
				s-0.5-0.2-0.5-0.5V1.8c0-1.7,1.3-3,3-3h27c1.7,0,3,1.3,3,3v39.5C46.7,41.6,46.4,41.8,46.2,41.8z"/>
		</g>
		<g>
			<path class="st0" d="M54.2,47.8h-48c-3,0-5.5-2.5-5.5-5.5v-30c0-3,2.5-5.5,5.5-5.5h6c0.3,0,0.5,0.2,0.5,0.5s-0.2,0.5-0.5,0.5h-6
				c-2.5,0-4.5,2-4.5,4.5v30c0,2.5,2,4.5,4.5,4.5h48c2.5,0,4.5-2,4.5-4.5v-30c0-2.5-2-4.5-4.5-4.5h-6c-0.3,0-0.5-0.2-0.5-0.5
				s0.2-0.5,0.5-0.5h6c3,0,5.5,2.5,5.5,5.5v30C59.7,45.3,57.2,47.8,54.2,47.8z"/>
		</g>
		<g>
			<path class="st0" d="M35.8,15.3h-9.5c-0.2,0-0.4-0.1-0.5-0.3l-2.9-7.7h-1.8c-0.3,0-0.5-0.2-0.5-0.5s0.2-0.5,0.5-0.5h2.2
				c0.2,0,0.4,0.1,0.5,0.3l2.9,7.7h8.8l1.7-5l-10,0l0,0c-0.3,0-0.5-0.2-0.5-0.5c0-0.3,0.2-0.5,0.5-0.5l10.7,0l0,0
				c0.2,0,0.3,0.1,0.4,0.2c0.1,0.1,0.1,0.3,0.1,0.5l-2,6C36.2,15.2,36,15.3,35.8,15.3z"/>
		</g>
		<g>
			<path class="st0" d="M26.8,21.3c-1.4,0-2.5-1.1-2.5-2.5s1.1-2.5,2.5-2.5s2.5,1.1,2.5,2.5S28.1,21.3,26.8,21.3z M26.8,17.3
				c-0.8,0-1.5,0.7-1.5,1.5s0.7,1.5,1.5,1.5s1.5-0.7,1.5-1.5S27.6,17.3,26.8,17.3z"/>
		</g>
		<g>
			<path class="st0" d="M33.8,21.3c-1.4,0-2.5-1.1-2.5-2.5s1.1-2.5,2.5-2.5s2.5,1.1,2.5,2.5S35.1,21.3,33.8,21.3z M33.8,17.3
				c-0.8,0-1.5,0.7-1.5,1.5s0.7,1.5,1.5,1.5s1.5-0.7,1.5-1.5S34.6,17.3,33.8,17.3z"/>
		</g>
		<g>
			<linearGradient id="SVGID_2_" gradientUnits="userSpaceOnUse" x1="4.1588" y1="18.801" x2="19.1588" y2="18.801">
				<stop  offset="0" style="stop-color:#FFE7B3"/>
				<stop  offset="1" style="stop-color:#FFBE15"/>
			</linearGradient>
			<circle class="st7" cx="11.7" cy="18.8" r="7.5"/>
		</g>
		<g>
			<path class="st0" d="M10.2,21.6c-0.1,0-0.3-0.1-0.4-0.1l-2.8-2.8c-0.2-0.2-0.2-0.5,0-0.7s0.5-0.2,0.7,0l2.5,2.5l5-5
				c0.2-0.2,0.5-0.2,0.7,0s0.2,0.5,0,0.7l-5.3,5.3C10.5,21.6,10.4,21.6,10.2,21.6z"/>
		</g>
	</g>
	<rect x="24.3" y="29.8" class="st27" width="4.6" height="4.6"/>
	<rect x="24.3" y="36.7" class="st27" width="4.6" height="4.6"/>
	<rect x="30.8" y="36.3" class="st0" width="1.8" height="1.8"/>
	<rect x="34.4" y="36.3" class="st0" width="1.8" height="1.8"/>
	<rect x="30.8" y="39.9" class="st0" width="1.8" height="1.8"/>
	<rect x="34.4" y="39.9" class="st0" width="1.8" height="1.8"/>
	<rect x="32.6" y="38.1" class="st0" width="1.8" height="1.8"/>
	<rect x="31.3" y="29.8" class="st27" width="4.6" height="4.6"/>
</g>
</svg>
