<?xml version="1.0" encoding="utf-8"?>
<!-- Generator: Adobe Illustrator 21.1.0, SVG Export Plug-In . SVG Version: 6.00 Build 0)  -->
<svg version="1.1" id="Icon_Set" xmlns="http://www.w3.org/2000/svg" xmlns:xlink="http://www.w3.org/1999/xlink" x="0px" y="0px"
	 viewBox="0 0 64 63" style="enable-background:new 0 0 64 63;" xml:space="preserve">
<style type="text/css">
	.st0{fill:#1F1F25;}
	.st1{fill:#FF5252;}
	.st2{fill:#FFD740;}
	.st3{fill:#40C4FF;}
	.st4{fill:#FFFFFF;}
	.st5{fill:#4DB6AC;}
	.st6{fill:url(#SVGID_1_);}
	.st7{fill:url(#SVGID_2_);}
	.st8{fill:url(#SVGID_3_);}
	.st9{fill:url(#SVGID_4_);}
	.st10{fill:url(#SVGID_5_);}
	.st11{fill:#4FC3F7;}
	.st12{fill:url(#SVGID_6_);}
	.st13{fill:url(#SVGID_7_);}
	.st14{fill:url(#SVGID_8_);}
	.st15{fill:url(#SVGID_9_);}
	.st16{fill:url(#SVGID_10_);}
	.st17{fill:url(#SVGID_11_);}
	.st18{fill:url(#SVGID_12_);}
	.st19{fill:url(#SVGID_13_);}
	.st20{fill:#FFE6AE;}
	.st21{fill:url(#SVGID_14_);}
	.st22{display:none;fill:#1F1F25;}
	.st23{fill:url(#SVGID_15_);}
	.st24{fill:url(#SVGID_16_);}
	.st25{fill:url(#SVGID_17_);}
	.st26{fill:url(#SVGID_18_);}
	.st27{fill:none;stroke:#1F1F25;stroke-miterlimit:10;}
</style>
<g id="OTC_Trading">
	<g>
		<path class="st0" d="M18.2,15.8c-4.7,0-8.5-3.8-8.5-8.5s3.8-8.5,8.5-8.5s8.5,3.8,8.5,8.5S22.8,15.8,18.2,15.8z M18.2-0.2
			c-4.1,0-7.5,3.4-7.5,7.5s3.4,7.5,7.5,7.5s7.5-3.4,7.5-7.5S22.3-0.2,18.2-0.2z"/>
	</g>
	<g>
		<path class="st0" d="M10.9,7.8h-0.8c-0.3,0-0.5-0.2-0.5-0.5c0-4.7,3.8-8.5,8.5-8.5c2.5,0,4.9,1.1,6.5,3.1c0.1,0.1,0.1,0.2,0.1,0.4
			c0,0.1-0.1,0.3-0.2,0.3L24,3.1c0,0,0,0,0,0C20.4,6.1,15.7,7.8,10.9,7.8z M10.7,6.8h0.2c4.5,0,9-1.6,12.5-4.5l0.2-0.2
			c-1.4-1.5-3.4-2.3-5.4-2.3C14.2-0.2,10.9,2.9,10.7,6.8z M23.7,2.7L23.7,2.7L23.7,2.7z"/>
	</g>
	<g>
		<path class="st0" d="M25.2,33.3c-0.3,0-0.5-0.2-0.5-0.5v-6.5c0-0.3,0.2-0.5,0.5-0.5s0.5,0.2,0.5,0.5v6.5
			C25.7,33.1,25.4,33.3,25.2,33.3z"/>
	</g>
	<g>
		<path class="st0" d="M11.2,33.3c-0.3,0-0.5-0.2-0.5-0.5v-6.5c0-0.3,0.2-0.5,0.5-0.5s0.5,0.2,0.5,0.5v6.5
			C11.7,33.1,11.4,33.3,11.2,33.3z"/>
	</g>
	<g>
		<path class="st0" d="M20.7,33.3c-0.2,0-0.5-0.2-0.5-0.4l-1.4-11.6h-1.1l-1.4,11.6c0,0.3-0.3,0.5-0.6,0.4c-0.3,0-0.5-0.3-0.4-0.6
			l1.5-12c0-0.3,0.2-0.4,0.5-0.4h2c0.3,0,0.5,0.2,0.5,0.4l1.5,12C21.2,33,21,33.3,20.7,33.3C20.7,33.3,20.7,33.3,20.7,33.3z"/>
	</g>
	<g>
		<path class="st0" d="M18.2,21.3L18.2,21.3h-3.5c-0.1,0-0.3-0.1-0.4-0.2c-0.1-0.1-0.1-0.2-0.1-0.4l0.5-4.5c0-0.2,0.2-0.4,0.4-0.4
			c0.2-0.1,0.4,0,0.5,0.2l2.6,3.8l2.6-3.9c0.1-0.2,0.3-0.3,0.5-0.2c0.2,0,0.4,0.2,0.4,0.4l0.5,4.5c0,0.1,0,0.3-0.1,0.4
			c-0.1,0.1-0.2,0.2-0.4,0.2H18.2C18.2,21.3,18.2,21.3,18.2,21.3z M19.1,20.3h2l-0.3-2.6L19.1,20.3z M15.2,20.3h2l-1.7-2.6
			L15.2,20.3z"/>
	</g>
	<g>
		<path class="st0" d="M30.2,33.3c-0.3,0-0.5-0.2-0.5-0.5v-9.3c0-1.8-1-3.4-2.7-4.1l-6-2.7c-0.2-0.1-0.3-0.3-0.3-0.5l0-0.9
			c-1.6,0.5-3.4,0.5-5,0l0,0.9c0,0.2-0.1,0.4-0.3,0.5l-6,2.7c-1.6,0.7-2.7,2.3-2.7,4.1v9.2c0,0.3-0.2,0.5-0.5,0.5s-0.5-0.2-0.5-0.5
			v-9.2c0-2.2,1.3-4.1,3.3-5l5.7-2.5l0-1.3c0-0.2,0.1-0.3,0.2-0.4c0.1-0.1,0.3-0.1,0.5,0c1.8,0.7,3.8,0.7,5.6,0c0.2-0.1,0.3,0,0.5,0
			s0.2,0.2,0.2,0.4l0,1.3l5.7,2.6c2,0.9,3.3,2.9,3.3,5v9.3C30.7,33.1,30.4,33.3,30.2,33.3z"/>
	</g>
	<g>
		<path class="st0" d="M61.7,61.8h-58c-1.7,0-3-1.3-3-3V37.3c0-1.7,1.3-3,3-3h58c1.7,0,3,1.3,3,3v21.5
			C64.7,60.5,63.3,61.8,61.7,61.8z M3.7,35.3c-1.1,0-2,0.9-2,2v21.5c0,1.1,0.9,2,2,2h58c1.1,0,2-0.9,2-2V37.3c0-1.1-0.9-2-2-2H3.7z"
			/>
	</g>
	<g>
		<linearGradient id="SVGID_1_" gradientUnits="userSpaceOnUse" x1="34.6586" y1="14.8453" x2="59.6586" y2="14.8453">
			<stop  offset="0" style="stop-color:#FFE7B3"/>
			<stop  offset="1" style="stop-color:#FFBE15"/>
		</linearGradient>
		<path class="st6" d="M57.2,2.3h-20c-1.4,0-2.5,1.1-2.5,2.5v15.5c0,1.4,1.1,2.5,2.5,2.5h4.5v3.6c0,0.9,1.1,1.3,1.7,0.7l4.3-4.3h9.5
			c1.4,0,2.5-1.1,2.5-2.5V4.8C59.7,3.4,58.5,2.3,57.2,2.3z"/>
		<path class="st0" d="M42.7,27.9c-0.2,0-0.4,0-0.6-0.1c-0.6-0.2-0.9-0.8-0.9-1.4v-3.1h-4c-1.7,0-3-1.3-3-3V4.8c0-1.7,1.3-3,3-3h20
			c1.7,0,3,1.3,3,3v15.5c0,1.7-1.3,3-3,3h-9.3l-4.1,4.1C43.4,27.7,43.1,27.9,42.7,27.9z M37.2,2.8c-1.1,0-2,0.9-2,2v15.5
			c0,1.1,0.9,2,2,2h4.5c0.3,0,0.5,0.2,0.5,0.5v3.6c0,0.3,0.2,0.4,0.3,0.5c0.1,0,0.3,0.1,0.5-0.1l4.3-4.3c0.1-0.1,0.2-0.1,0.4-0.1
			h9.5c1.1,0,2-0.9,2-2V4.8c0-1.1-0.9-2-2-2H37.2z"/>
	</g>
	<g>
		<path class="st4" d="M45,18.6c-0.4,0-0.8-0.1-1.1-0.4l-5-4.9c-0.6-0.6-0.6-1.5,0-2.1s1.5-0.6,2.1,0L45,15l8.1-8.1
			c0.6-0.6,1.5-0.6,2.1,0c0.6,0.6,0.6,1.5,0,2.1l-9.2,9.2C45.8,18.4,45.4,18.6,45,18.6z"/>
		<path class="st0" d="M45,19.1c-0.5,0-1-0.2-1.4-0.6l-5-5c-0.4-0.4-0.6-0.9-0.6-1.4c0-0.5,0.2-1,0.6-1.4c0.8-0.8,2-0.8,2.8,0
			l3.5,3.5l7.8-7.8c0.8-0.8,2-0.8,2.8,0c0.4,0.4,0.6,0.9,0.6,1.4c0,0.5-0.2,1-0.6,1.4l-9.2,9.2C46.1,18.9,45.6,19.1,45,19.1z
			 M40.1,11.1c-0.3,0-0.5,0.1-0.7,0.3c-0.2,0.2-0.3,0.4-0.3,0.7c0,0.3,0.1,0.5,0.3,0.7l5,5c0.4,0.4,1,0.4,1.4,0l9.2-9.2
			c0.2-0.2,0.3-0.4,0.3-0.7c0-0.3-0.1-0.5-0.3-0.7c-0.4-0.4-1-0.4-1.4,0l-8.1,8.1c-0.2,0.2-0.5,0.2-0.7,0l-3.9-3.9
			C40.6,11.2,40.3,11.1,40.1,11.1z"/>
	</g>
	<g>
		<path class="st0" d="M64.2,48.6h-63c-0.3,0-0.5-0.2-0.5-0.5s0.2-0.5,0.5-0.5h63c0.3,0,0.5,0.2,0.5,0.5S64.4,48.6,64.2,48.6z"/>
	</g>
	<g>
		<linearGradient id="SVGID_2_" gradientUnits="userSpaceOnUse" x1="22.6586" y1="48.0517" x2="42.6586" y2="48.0517">
			<stop  offset="0" style="stop-color:#FFE7B3"/>
			<stop  offset="1" style="stop-color:#FFBE15"/>
		</linearGradient>
		<circle class="st7" cx="32.7" cy="48.1" r="10"/>
		<path class="st0" d="M32.7,58.6c-5.8,0-10.5-4.7-10.5-10.5s4.7-10.5,10.5-10.5c5.8,0,10.5,4.7,10.5,10.5S38.4,58.6,32.7,58.6z
			 M32.7,38.6c-5.2,0-9.5,4.3-9.5,9.5s4.3,9.5,9.5,9.5s9.5-4.3,9.5-9.5S37.9,38.6,32.7,38.6z"/>
	</g>
	<g>
		<path class="st0" d="M33.7,48.6h-3.5c-0.3,0-0.5-0.2-0.5-0.5v-4c0-0.3,0.2-0.5,0.5-0.5h3.5c1.4,0,2.5,1.1,2.5,2.5
			S35,48.6,33.7,48.6z M30.7,47.6h3c0.8,0,1.5-0.7,1.5-1.5s-0.7-1.5-1.5-1.5h-3V47.6z"/>
	</g>
	<g>
		<path class="st0" d="M34.7,52.6h-4.5c-0.3,0-0.5-0.2-0.5-0.5v-4c0-0.3,0.2-0.5,0.5-0.5h4.5c1.4,0,2.5,1.1,2.5,2.5
			S36,52.6,34.7,52.6z M30.7,51.6h4c0.8,0,1.5-0.7,1.5-1.5s-0.7-1.5-1.5-1.5h-4V51.6z"/>
	</g>
	<g>
		<path class="st0" d="M30.2,44.6h-1.5c-0.3,0-0.5-0.2-0.5-0.5s0.2-0.5,0.5-0.5h1.5c0.3,0,0.5,0.2,0.5,0.5S30.4,44.6,30.2,44.6z"/>
	</g>
	<g>
		<path class="st0" d="M30.2,52.6h-1.5c-0.3,0-0.5-0.2-0.5-0.5s0.2-0.5,0.5-0.5h1.5c0.3,0,0.5,0.2,0.5,0.5S30.4,52.6,30.2,52.6z"/>
	</g>
	<g>
		<path class="st0" d="M31.7,44.6c-0.3,0-0.5-0.2-0.5-0.5v-2c0-0.3,0.2-0.5,0.5-0.5s0.5,0.2,0.5,0.5v2
			C32.2,44.3,31.9,44.6,31.7,44.6z"/>
	</g>
	<g>
		<path class="st0" d="M33.7,44.6c-0.3,0-0.5-0.2-0.5-0.5v-2c0-0.3,0.2-0.5,0.5-0.5s0.5,0.2,0.5,0.5v2
			C34.2,44.3,33.9,44.6,33.7,44.6z"/>
	</g>
	<g>
		<path class="st0" d="M31.7,54.6c-0.3,0-0.5-0.2-0.5-0.5v-2c0-0.3,0.2-0.5,0.5-0.5s0.5,0.2,0.5,0.5v2
			C32.2,54.3,31.9,54.6,31.7,54.6z"/>
	</g>
	<g>
		<path class="st0" d="M33.7,54.6c-0.3,0-0.5-0.2-0.5-0.5v-2c0-0.3,0.2-0.5,0.5-0.5s0.5,0.2,0.5,0.5v2
			C34.2,54.3,33.9,54.6,33.7,54.6z"/>
	</g>
	<g>
		<path class="st0" d="M61.2,43.3c-0.3,0-0.5-0.2-0.5-0.5v-4c0-0.3-0.2-0.5-0.5-0.5h-4c-0.3,0-0.5-0.2-0.5-0.5s0.2-0.5,0.5-0.5h4
			c0.8,0,1.5,0.7,1.5,1.5v4C61.7,43.1,61.4,43.3,61.2,43.3z"/>
	</g>
</g>
</svg>
