<?xml version="1.0" encoding="utf-8"?>
<!-- Generator: Adobe Illustrator 23.0.0, SVG Export Plug-In . SVG Version: 6.00 Build 0)  -->
<svg version="1.1" id="Icon_Set" xmlns="http://www.w3.org/2000/svg" xmlns:xlink="http://www.w3.org/1999/xlink" x="0px" y="0px"
	 viewBox="0 0 64 63" style="enable-background:new 0 0 64 63;" xml:space="preserve">
<style type="text/css">
	.st0{fill:#1F1F25;}
	.st1{fill:url(#SVGID_1_);}
	.st2{fill:#FFFFFF;}
	.st3{fill:url(#SVGID_2_);}
</style>
<g id="OTC_Trading">
	<g>
		<path class="st0" d="M17.5,17C12.8,17,9,13.2,9,8.5S12.8,0,17.5,0S26,3.8,26,8.5S22.1,17,17.5,17z M17.5,1C13.4,1,10,4.4,10,8.5
			s3.4,7.5,7.5,7.5S25,12.6,25,8.5S21.6,1,17.5,1z"/>
	</g>
	<g>
		<path class="st0" d="M10.2,9H9.4C9.1,9,8.9,8.8,8.9,8.5c0-4.7,3.8-8.5,8.5-8.5c2.5,0,4.9,1.1,6.5,3.1C24,3.2,24,3.3,24,3.5
			c0,0.1-0.1,0.3-0.2,0.3l-0.5,0.5l0,0C19.7,7.3,15,9,10.2,9z M10,8h0.2c4.5,0,9-1.6,12.5-4.5l0.2-0.2C21.5,1.8,19.5,1,17.5,1
			C13.5,1,10.2,4.1,10,8z M23,3.9L23,3.9L23,3.9z"/>
	</g>
	<g>
		<path class="st0" d="M24.5,34.5c-0.3,0-0.5-0.2-0.5-0.5v-6.5c0-0.3,0.2-0.5,0.5-0.5s0.5,0.2,0.5,0.5V34
			C25,34.3,24.7,34.5,24.5,34.5z"/>
	</g>
	<g>
		<path class="st0" d="M10.5,34.5c-0.3,0-0.5-0.2-0.5-0.5v-6.5c0-0.3,0.2-0.5,0.5-0.5s0.5,0.2,0.5,0.5V34
			C11,34.3,10.7,34.5,10.5,34.5z"/>
	</g>
	<g>
		<path class="st0" d="M20,34.5c-0.2,0-0.5-0.2-0.5-0.4l-1.4-11.6H17l-1.4,11.6c0,0.3-0.3,0.5-0.6,0.4c-0.3,0-0.5-0.3-0.4-0.6
			l1.5-12c0-0.3,0.2-0.4,0.5-0.4h2c0.3,0,0.5,0.2,0.5,0.4l1.5,12C20.5,34.2,20.3,34.5,20,34.5L20,34.5z"/>
	</g>
	<g>
		<path class="st0" d="M17.5,22.5L17.5,22.5H14c-0.1,0-0.3-0.1-0.4-0.2c-0.1-0.1-0.1-0.2-0.1-0.4l0.5-4.5c0-0.2,0.2-0.4,0.4-0.4
			c0.2-0.1,0.4,0,0.5,0.2l2.6,3.8l2.6-3.9c0.1-0.2,0.3-0.3,0.5-0.2c0.2,0,0.4,0.2,0.4,0.4l0.5,4.5c0,0.1,0,0.3-0.1,0.4
			c-0.1,0.1-0.2,0.2-0.4,0.2L17.5,22.5C17.5,22.5,17.5,22.5,17.5,22.5z M18.4,21.5h2l-0.3-2.6L18.4,21.5z M14.5,21.5h2l-1.7-2.6
			L14.5,21.5z"/>
	</g>
	<g>
		<path class="st0" d="M29.5,34.5c-0.3,0-0.5-0.2-0.5-0.5v-9.3c0-1.8-1-3.4-2.7-4.1l-6-2.7c-0.2-0.1-0.3-0.3-0.3-0.5v-0.9
			c-1.6,0.5-3.4,0.5-5,0v0.9c0,0.2-0.1,0.4-0.3,0.5l-6,2.7C7.1,21.3,6,22.9,6,24.7v9.2c0,0.3-0.2,0.5-0.5,0.5S5,34.2,5,33.9v-9.2
			c0-2.2,1.3-4.1,3.3-5l5.7-2.5v-1.3c0-0.2,0.1-0.3,0.2-0.4c0.1-0.1,0.3-0.1,0.5,0c1.8,0.7,3.8,0.7,5.6,0c0.2-0.1,0.3,0,0.5,0
			s0.2,0.2,0.2,0.4v1.3l5.7,2.6c2,0.9,3.3,2.9,3.3,5v9.3C30,34.3,29.7,34.5,29.5,34.5z"/>
	</g>
	<g>
		<path class="st0" d="M61,63H3c-1.7,0-3-1.3-3-3V38.5c0-1.7,1.3-3,3-3h58c1.7,0,3,1.3,3,3V60C64,61.7,62.6,63,61,63z M3,36.5
			c-1.1,0-2,0.9-2,2V60c0,1.1,0.9,2,2,2h58c1.1,0,2-0.9,2-2V38.5c0-1.1-0.9-2-2-2H3z"/>
	</g>
	<g>
		
			<linearGradient id="SVGID_1_" gradientUnits="userSpaceOnUse" x1="33.9586" y1="50.3574" x2="58.9586" y2="50.3574" gradientTransform="matrix(1 0 0 -1 0 66.4)">
			<stop  offset="0" style="stop-color:#FFE7B3"/>
			<stop  offset="1" style="stop-color:#FFBE15"/>
		</linearGradient>
		<path class="st1" d="M56.5,3.5h-20C35.1,3.5,34,4.6,34,6v15.5c0,1.4,1.1,2.5,2.5,2.5H41v3.6c0,0.9,1.1,1.3,1.7,0.7L47,24h9.5
			c1.4,0,2.5-1.1,2.5-2.5V6C59,4.6,57.8,3.5,56.5,3.5z"/>
		<path class="st0" d="M42,29.1c-0.2,0-0.4,0-0.6-0.1c-0.6-0.2-0.9-0.8-0.9-1.4v-3.1h-4c-1.7,0-3-1.3-3-3V6c0-1.7,1.3-3,3-3h20
			c1.7,0,3,1.3,3,3v15.5c0,1.7-1.3,3-3,3h-9.3l-4.1,4.1C42.7,28.9,42.4,29.1,42,29.1z M36.5,4c-1.1,0-2,0.9-2,2v15.5
			c0,1.1,0.9,2,2,2H41c0.3,0,0.5,0.2,0.5,0.5v3.6c0,0.3,0.2,0.4,0.3,0.5c0.1,0,0.3,0.1,0.5-0.1l4.3-4.3c0.1-0.1,0.2-0.1,0.4-0.1h9.5
			c1.1,0,2-0.9,2-2V6c0-1.1-0.9-2-2-2C56.5,4,36.5,4,36.5,4z"/>
	</g>
	<g>
		<path class="st2" d="M44.3,19.8c-0.4,0-0.8-0.1-1.1-0.4l-5-4.9c-0.6-0.6-0.6-1.5,0-2.1s1.5-0.6,2.1,0l4,3.8l8.1-8.1
			c0.6-0.6,1.5-0.6,2.1,0s0.6,1.5,0,2.1l-9.2,9.2C45.1,19.6,44.7,19.8,44.3,19.8z"/>
		<path class="st0" d="M44.3,20.3c-0.5,0-1-0.2-1.4-0.6l-5-5c-0.4-0.4-0.6-0.9-0.6-1.4s0.2-1,0.6-1.4c0.8-0.8,2-0.8,2.8,0l3.5,3.5
			L52,7.6c0.8-0.8,2-0.8,2.8,0C55.2,8,55.4,8.5,55.4,9c0,0.5-0.2,1-0.6,1.4l-9.2,9.2C45.4,20.1,44.9,20.3,44.3,20.3z M39.4,12.3
			c-0.3,0-0.5,0.1-0.7,0.3s-0.3,0.4-0.3,0.7s0.1,0.5,0.3,0.7l5,5c0.4,0.4,1,0.4,1.4,0l9.2-9.2c0.2-0.2,0.3-0.4,0.3-0.7
			s-0.1-0.5-0.3-0.7c-0.4-0.4-1-0.4-1.4,0l-8.1,8.1c-0.2,0.2-0.5,0.2-0.7,0l-3.9-3.9C39.9,12.4,39.6,12.3,39.4,12.3z"/>
	</g>
	<g>
		<path class="st0" d="M63.5,49.8h-63c-0.3,0-0.5-0.2-0.5-0.5s0.2-0.5,0.5-0.5h63c0.3,0,0.5,0.2,0.5,0.5S63.7,49.8,63.5,49.8z"/>
	</g>
	<g>
		
			<linearGradient id="SVGID_2_" gradientUnits="userSpaceOnUse" x1="21.9586" y1="17.1" x2="41.9586" y2="17.1" gradientTransform="matrix(1 0 0 -1 0 66.4)">
			<stop  offset="0" style="stop-color:#FFE7B3"/>
			<stop  offset="1" style="stop-color:#FFBE15"/>
		</linearGradient>
		<circle class="st3" cx="32" cy="49.3" r="10"/>
		<path class="st0" d="M32,59.8c-5.8,0-10.5-4.7-10.5-10.5S26.2,38.8,32,38.8s10.5,4.7,10.5,10.5S37.7,59.8,32,59.8z M32,39.8
			c-5.2,0-9.5,4.3-9.5,9.5s4.3,9.5,9.5,9.5s9.5-4.3,9.5-9.5S37.2,39.8,32,39.8z"/>
	</g>
	<g>
		<path class="st0" d="M33,49.8h-3.5c-0.3,0-0.5-0.2-0.5-0.5v-4c0-0.3,0.2-0.5,0.5-0.5H33c1.4,0,2.5,1.1,2.5,2.5S34.3,49.8,33,49.8z
			 M30,48.8h3c0.8,0,1.5-0.7,1.5-1.5s-0.7-1.5-1.5-1.5h-3V48.8z"/>
	</g>
	<g>
		<path class="st0" d="M34,53.8h-4.5c-0.3,0-0.5-0.2-0.5-0.5v-4c0-0.3,0.2-0.5,0.5-0.5H34c1.4,0,2.5,1.1,2.5,2.5S35.3,53.8,34,53.8z
			 M30,52.8h4c0.8,0,1.5-0.7,1.5-1.5s-0.7-1.5-1.5-1.5h-4V52.8z"/>
	</g>
	<g>
		<path class="st0" d="M29.5,45.8H28c-0.3,0-0.5-0.2-0.5-0.5s0.2-0.5,0.5-0.5h1.5c0.3,0,0.5,0.2,0.5,0.5S29.7,45.8,29.5,45.8z"/>
	</g>
	<g>
		<path class="st0" d="M29.5,53.8H28c-0.3,0-0.5-0.2-0.5-0.5s0.2-0.5,0.5-0.5h1.5c0.3,0,0.5,0.2,0.5,0.5S29.7,53.8,29.5,53.8z"/>
	</g>
	<g>
		<path class="st0" d="M31,45.8c-0.3,0-0.5-0.2-0.5-0.5v-2c0-0.3,0.2-0.5,0.5-0.5s0.5,0.2,0.5,0.5v2C31.5,45.5,31.2,45.8,31,45.8z"
			/>
	</g>
	<g>
		<path class="st0" d="M33,45.8c-0.3,0-0.5-0.2-0.5-0.5v-2c0-0.3,0.2-0.5,0.5-0.5s0.5,0.2,0.5,0.5v2C33.5,45.5,33.2,45.8,33,45.8z"
			/>
	</g>
	<g>
		<path class="st0" d="M31,55.8c-0.3,0-0.5-0.2-0.5-0.5v-2c0-0.3,0.2-0.5,0.5-0.5s0.5,0.2,0.5,0.5v2C31.5,55.5,31.2,55.8,31,55.8z"
			/>
	</g>
	<g>
		<path class="st0" d="M33,55.8c-0.3,0-0.5-0.2-0.5-0.5v-2c0-0.3,0.2-0.5,0.5-0.5s0.5,0.2,0.5,0.5v2C33.5,55.5,33.2,55.8,33,55.8z"
			/>
	</g>
	<g>
		<path class="st0" d="M60.5,44.5c-0.3,0-0.5-0.2-0.5-0.5v-4c0-0.3-0.2-0.5-0.5-0.5h-4c-0.3,0-0.5-0.2-0.5-0.5s0.2-0.5,0.5-0.5h4
			c0.8,0,1.5,0.7,1.5,1.5v4C61,44.3,60.7,44.5,60.5,44.5z"/>
	</g>
</g>
</svg>
