<?xml version="1.0" encoding="utf-8"?>
<!-- Generator: Adobe Illustrator 23.0.0, SVG Export Plug-In . SVG Version: 6.00 Build 0)  -->
<svg version="1.1" id="Icon_Set" xmlns="http://www.w3.org/2000/svg" xmlns:xlink="http://www.w3.org/1999/xlink" x="0px" y="0px"
	 viewBox="0 0 59 60.5" style="enable-background:new 0 0 59 60.5;" xml:space="preserve">
<style type="text/css">
	.st0{fill:url(#SVGID_1_);}
	.st1{fill:#1F1F25;}
	.st2{fill:url(#SVGID_2_);}
	.st3{fill:none;stroke:#1F1F25;stroke-miterlimit:10;}
</style>
<g>
	<g id="Payment_System_Technology">
		
			<linearGradient id="SVGID_1_" gradientUnits="userSpaceOnUse" x1="20.459" y1="27.9" x2="38.459" y2="27.9" gradientTransform="matrix(1 0 0 -1 0 64.4)">
			<stop  offset="0" style="stop-color:#FFE7B3"/>
			<stop  offset="1" style="stop-color:#FFBE15"/>
		</linearGradient>
		<path class="st0" d="M36,45.5H23c-1.4,0-2.5-1.1-2.5-2.5V30c0-1.4,1.1-2.5,2.5-2.5h13c1.4,0,2.5,1.1,2.5,2.5v13
			C38.5,44.4,37.3,45.5,36,45.5z"/>
		<path class="st1" d="M36,46H23c-1.7,0-3-1.3-3-3V30c0-1.7,1.3-3,3-3h13c1.7,0,3,1.3,3,3v13C39,44.7,37.6,46,36,46z M23,28
			c-1.1,0-2,0.9-2,2v13c0,1.1,0.9,2,2,2h13c1.1,0,2-0.9,2-2V30c0-1.1-0.9-2-2-2H23z"/>
		<path class="st1" d="M23.5,54.5c-0.3,0-0.5-0.2-0.5-0.5v-3.5c0-0.3,0.2-0.5,0.5-0.5s0.5,0.2,0.5,0.5V54
			C24,54.3,23.7,54.5,23.5,54.5z"/>
		<path class="st1" d="M35.5,54.5c-0.3,0-0.5-0.2-0.5-0.5v-3.5c0-0.3,0.2-0.5,0.5-0.5s0.5,0.2,0.5,0.5V54
			C36,54.3,35.7,54.5,35.5,54.5z"/>
		<path class="st1" d="M39.5,60.5h-20c-0.8,0-1.5-0.7-1.5-1.5v-2c0-0.8,0.7-1.5,1.5-1.5h20c0.8,0,1.5,0.7,1.5,1.5v2
			C41,59.8,40.3,60.5,39.5,60.5z M19.5,56.5c-0.3,0-0.5,0.2-0.5,0.5v2c0,0.3,0.2,0.5,0.5,0.5h20c0.3,0,0.5-0.2,0.5-0.5v-2
			c0-0.3-0.2-0.5-0.5-0.5H19.5z"/>
		<path class="st1" d="M58.5,43h-18c-0.3,0-0.5-0.2-0.5-0.5s0.2-0.5,0.5-0.5h18c0.3,0,0.5,0.2,0.5,0.5S58.7,43,58.5,43z"/>
		<path class="st1" d="M18.5,43h-18C0.2,43,0,42.8,0,42.5S0.2,42,0.5,42h18c0.3,0,0.5,0.2,0.5,0.5S18.7,43,18.5,43z"/>
		<path class="st1" d="M42.5,9C42.2,9,42,8.8,42,8.5v-4C42,4.2,41.8,4,41.5,4h-4C37.2,4,37,3.8,37,3.5S37.2,3,37.5,3h4
			C42.3,3,43,3.7,43,4.5v4C43,8.8,42.7,9,42.5,9z"/>
		<path class="st1" d="M45.5,43c-0.3,0-0.5-0.2-0.5-0.5V3c0-1.1-0.9-2-2-2H16c-1.1,0-2,0.9-2,2v39.5c0,0.3-0.2,0.5-0.5,0.5
			S13,42.8,13,42.5V3c0-1.7,1.3-3,3-3h27c1.7,0,3,1.3,3,3v39.5C46,42.8,45.7,43,45.5,43z"/>
		<path class="st1" d="M53.5,49h-48c-3,0-5.5-2.5-5.5-5.5v-30C0,10.5,2.5,8,5.5,8h6C11.8,8,12,8.2,12,8.5S11.8,9,11.5,9h-6
			C3,9,1,11,1,13.5v30C1,46,3,48,5.5,48h48c2.5,0,4.5-2,4.5-4.5v-30C58,11,56,9,53.5,9h-6C47.2,9,47,8.8,47,8.5S47.2,8,47.5,8h6
			c3,0,5.5,2.5,5.5,5.5v30C59,46.5,56.5,49,53.5,49z"/>
		<path class="st1" d="M35.1,16.5h-9.5c-0.2,0-0.4-0.1-0.5-0.3l-2.9-7.7h-1.8c-0.3,0-0.5-0.2-0.5-0.5s0.2-0.5,0.5-0.5h2.2
			c0.2,0,0.4,0.1,0.5,0.3l2.9,7.7h8.8l1.7-5h-10l0,0c-0.3,0-0.5-0.2-0.5-0.5s0.2-0.5,0.5-0.5h10.7l0,0c0.2,0,0.3,0.1,0.4,0.2
			c0.1,0.1,0.1,0.3,0.1,0.5l-2,6C35.5,16.4,35.3,16.5,35.1,16.5z"/>
		<path class="st1" d="M26.1,22.5c-1.4,0-2.5-1.1-2.5-2.5s1.1-2.5,2.5-2.5s2.5,1.1,2.5,2.5S27.4,22.5,26.1,22.5z M26.1,18.5
			c-0.8,0-1.5,0.7-1.5,1.5s0.7,1.5,1.5,1.5s1.5-0.7,1.5-1.5S26.9,18.5,26.1,18.5z"/>
		<path class="st1" d="M33.1,22.5c-1.4,0-2.5-1.1-2.5-2.5s1.1-2.5,2.5-2.5s2.5,1.1,2.5,2.5S34.4,22.5,33.1,22.5z M33.1,18.5
			c-0.8,0-1.5,0.7-1.5,1.5s0.7,1.5,1.5,1.5s1.5-0.7,1.5-1.5S33.9,18.5,33.1,18.5z"/>
		
			<linearGradient id="SVGID_2_" gradientUnits="userSpaceOnUse" x1="3.4588" y1="44.4" x2="18.4588" y2="44.4" gradientTransform="matrix(1 0 0 -1 0 64.4)">
			<stop  offset="0" style="stop-color:#FFE7B3"/>
			<stop  offset="1" style="stop-color:#FFBE15"/>
		</linearGradient>
		<circle class="st2" cx="11" cy="20" r="7.5"/>
		<path class="st1" d="M9.5,22.8c-0.1,0-0.3-0.1-0.4-0.1l-2.8-2.8c-0.2-0.2-0.2-0.5,0-0.7s0.5-0.2,0.7,0l2.5,2.5l5-5
			c0.2-0.2,0.5-0.2,0.7,0c0.2,0.2,0.2,0.5,0,0.7l-5.3,5.3C9.8,22.8,9.7,22.8,9.5,22.8z"/>
	</g>
	<rect x="23.6" y="31" class="st3" width="4.6" height="4.6"/>
	<rect x="23.6" y="37.9" class="st3" width="4.6" height="4.6"/>
	<rect x="30.1" y="37.5" class="st1" width="1.8" height="1.8"/>
	<rect x="33.7" y="37.5" class="st1" width="1.8" height="1.8"/>
	<rect x="30.1" y="41.1" class="st1" width="1.8" height="1.8"/>
	<rect x="33.7" y="41.1" class="st1" width="1.8" height="1.8"/>
	<rect x="31.9" y="39.3" class="st1" width="1.8" height="1.8"/>
	<rect x="30.6" y="31" class="st3" width="4.6" height="4.6"/>
</g>
</svg>
