<?xml version="1.0" encoding="utf-8"?>
<!-- Generator: Adobe Illustrator 21.1.0, SVG Export Plug-In . SVG Version: 6.00 Build 0)  -->
<svg version="1.1" id="Icon_Set" xmlns="http://www.w3.org/2000/svg" xmlns:xlink="http://www.w3.org/1999/xlink" x="0px" y="0px"
	 viewBox="0 0 61 55" style="enable-background:new 0 0 61 55;" xml:space="preserve">
<style type="text/css">
	.st0{fill:#1F1F25;}
	.st1{fill:#FF5252;}
	.st2{fill:#FFD740;}
	.st3{fill:#40C4FF;}
	.st4{fill:#FFFFFF;}
	.st5{fill:#4DB6AC;}
	.st6{fill:url(#SVGID_1_);}
	.st7{fill:url(#SVGID_2_);}
	.st8{fill:url(#SVGID_3_);}
	.st9{fill:url(#SVGID_4_);}
	.st10{fill:url(#SVGID_5_);}
	.st11{fill:#4FC3F7;}
	.st12{fill:url(#SVGID_6_);}
	.st13{fill:url(#SVGID_7_);}
	.st14{fill:url(#SVGID_8_);}
	.st15{fill:url(#SVGID_9_);}
	.st16{fill:url(#SVGID_10_);}
	.st17{fill:url(#SVGID_11_);}
	.st18{fill:url(#SVGID_12_);}
	.st19{fill:url(#SVGID_13_);}
	.st20{fill:#FFE6AE;}
	.st21{fill:url(#SVGID_14_);}
	.st22{display:none;fill:#1F1F25;}
	.st23{fill:url(#SVGID_15_);}
	.st24{fill:url(#SVGID_16_);}
	.st25{fill:url(#SVGID_17_);}
	.st26{fill:url(#SVGID_18_);}
	.st27{fill:none;stroke:#1F1F25;stroke-miterlimit:10;}
</style>
<g id="Ethereum_Wallet">
	<g>
		<linearGradient id="SVGID_1_" gradientUnits="userSpaceOnUse" x1="17.2502" y1="10.5" x2="37.2502" y2="10.5">
			<stop  offset="0" style="stop-color:#FFE7B3"/>
			<stop  offset="1" style="stop-color:#FFBE15"/>
		</linearGradient>
		<circle class="st6" cx="27.3" cy="10.5" r="10"/>
		<path class="st0" d="M27.2,21c-5.8,0-10.5-4.7-10.5-10.5S21.5,0,27.2,0C33,0,37.8,4.7,37.8,10.5S33,21,27.2,21z M27.2,1
			c-5.2,0-9.5,4.3-9.5,9.5S22,20,27.2,20s9.5-4.3,9.5-9.5S32.5,1,27.2,1z"/>
	</g>
	<g>
		<path class="st0" d="M54,28.5c-0.3,0-0.5-0.2-0.5-0.5v-7.5c0-2.5-2-4.5-4.5-4.5H38.6c-0.3,0-0.5-0.2-0.5-0.5s0.2-0.5,0.5-0.5H49
			c3,0,5.5,2.5,5.5,5.5V28C54.5,28.3,54.3,28.5,54,28.5z"/>
	</g>
	<g>
		<path class="st0" d="M49,55H5.5c-3,0-5.5-2.5-5.5-5.5v-29c0-3,2.5-5.5,5.5-5.5h10.4c0.3,0,0.5,0.2,0.5,0.5S16.1,16,15.9,16H5.5
			C3,16,1,18,1,20.5v29C1,52,3,54,5.5,54H49c2.5,0,4.5-2,4.5-4.5V42c0-0.3,0.2-0.5,0.5-0.5s0.5,0.2,0.5,0.5v7.5
			C54.5,52.5,52,55,49,55z"/>
	</g>
	<g>
		<path class="st0" d="M58,40.5H43.5c-1.7,0-3-1.3-3-3v-5c0-1.7,1.3-3,3-3H58c1.7,0,3,1.3,3,3v5C61,39.2,59.7,40.5,58,40.5z
			 M43.5,30.5c-1.1,0-2,0.9-2,2v5c0,1.1,0.9,2,2,2H58c1.1,0,2-0.9,2-2v-5c0-1.1-0.9-2-2-2H43.5z"/>
	</g>
	<g>
		<path class="st0" d="M6,50H3.5C3.2,50,3,49.8,3,49.5S3.2,49,3.5,49H6c0.3,0,0.5,0.2,0.5,0.5S6.3,50,6,50z"/>
	</g>
	<g>
		<path class="st0" d="M11,50H8.5C8.2,50,8,49.8,8,49.5S8.2,49,8.5,49H11c0.3,0,0.5,0.2,0.5,0.5S11.3,50,11,50z"/>
	</g>
	<g>
		<path class="st0" d="M16,50h-2.5c-0.3,0-0.5-0.2-0.5-0.5s0.2-0.5,0.5-0.5H16c0.3,0,0.5,0.2,0.5,0.5S16.3,50,16,50z"/>
	</g>
	<g>
		<path class="st0" d="M21,50h-2.5c-0.3,0-0.5-0.2-0.5-0.5s0.2-0.5,0.5-0.5H21c0.3,0,0.5,0.2,0.5,0.5S21.3,50,21,50z"/>
	</g>
	<g>
		<path class="st0" d="M26,50h-2.5c-0.3,0-0.5-0.2-0.5-0.5s0.2-0.5,0.5-0.5H26c0.3,0,0.5,0.2,0.5,0.5S26.3,50,26,50z"/>
	</g>
	<g>
		<path class="st0" d="M31,50h-2.5c-0.3,0-0.5-0.2-0.5-0.5s0.2-0.5,0.5-0.5H31c0.3,0,0.5,0.2,0.5,0.5S31.3,50,31,50z"/>
	</g>
	<g>
		<path class="st0" d="M36,50h-2.5c-0.3,0-0.5-0.2-0.5-0.5s0.2-0.5,0.5-0.5H36c0.3,0,0.5,0.2,0.5,0.5S36.3,50,36,50z"/>
	</g>
	<g>
		<path class="st0" d="M41,50h-2.5c-0.3,0-0.5-0.2-0.5-0.5s0.2-0.5,0.5-0.5H41c0.3,0,0.5,0.2,0.5,0.5S41.3,50,41,50z"/>
	</g>
	<g>
		<path class="st0" d="M46,50h-2.5c-0.3,0-0.5-0.2-0.5-0.5s0.2-0.5,0.5-0.5H46c0.3,0,0.5,0.2,0.5,0.5S46.3,50,46,50z"/>
	</g>
	<g>
		<path class="st0" d="M51,50h-2.5c-0.3,0-0.5-0.2-0.5-0.5s0.2-0.5,0.5-0.5H51c0.3,0,0.5,0.2,0.5,0.5S51.3,50,51,50z"/>
	</g>
	<g>
		<circle class="st4" cx="46" cy="35" r="2.5"/>
		<path class="st0" d="M46,38c-1.7,0-3-1.3-3-3s1.3-3,3-3s3,1.3,3,3S47.7,38,46,38z M46,33c-1.1,0-2,0.9-2,2s0.9,2,2,2s2-0.9,2-2
			S47.1,33,46,33z"/>
	</g>
	<g>
		<path class="st0" d="M27.2,18c-0.2,0-0.3-0.1-0.4-0.2l-4.5-7c-0.1-0.2-0.1-0.4,0-0.5l4.5-7c0.2-0.3,0.7-0.3,0.8,0l4.5,7
			c0.1,0.2,0.1,0.4,0,0.5l-4.5,7C27.6,17.9,27.4,18,27.2,18z M23.3,10.5l3.9,6.1l3.9-6.1l-3.9-6.1L23.3,10.5z"/>
	</g>
	<g>
		<path class="st0" d="M27.2,13c-0.1,0-0.1,0-0.2,0l-4.5-2c-0.2-0.1-0.3-0.3-0.3-0.5s0.1-0.4,0.3-0.5L27,8C27.2,8,27.3,8,27.5,8
			l4.5,2c0.2,0.1,0.3,0.3,0.3,0.5S32.1,10.9,32,11l-4.5,2C27.4,13,27.3,13,27.2,13z M24,10.5l3.3,1.5l3.3-1.5L27.2,9L24,10.5z"/>
	</g>
	<g>
		<path class="st0" d="M27.2,17.5c-0.3,0-0.5-0.2-0.5-0.5V4c0-0.3,0.2-0.5,0.5-0.5s0.5,0.2,0.5,0.5v13
			C27.8,17.3,27.5,17.5,27.2,17.5z"/>
	</g>
	<g>
		<path class="st0" d="M51,24c-0.3,0-0.5-0.2-0.5-0.5V21c0-1.1-0.9-2-2-2H46c-0.3,0-0.5-0.2-0.5-0.5S45.7,18,46,18h2.5
			c1.7,0,3,1.3,3,3v2.5C51.5,23.8,51.3,24,51,24z"/>
	</g>
</g>
</svg>
