<?xml version="1.0" encoding="utf-8"?>
<!-- Generator: Adobe Illustrator 21.1.0, SVG Export Plug-In . SVG Version: 6.00 Build 0)  -->
<svg version="1.1" id="Icon_Set" xmlns="http://www.w3.org/2000/svg" xmlns:xlink="http://www.w3.org/1999/xlink" x="0px" y="0px"
	 viewBox="0 0 61 63" style="enable-background:new 0 0 61 63;" xml:space="preserve">
<style type="text/css">
	.st0{fill:#1F1F25;}
	.st1{fill:#FF5252;}
	.st2{fill:#FFD740;}
	.st3{fill:#40C4FF;}
	.st4{fill:#FFFFFF;}
	.st5{fill:#4DB6AC;}
	.st6{fill:url(#SVGID_1_);}
	.st7{fill:url(#SVGID_2_);}
	.st8{fill:url(#SVGID_3_);}
	.st9{fill:url(#SVGID_4_);}
	.st10{fill:url(#SVGID_5_);}
	.st11{fill:#4FC3F7;}
	.st12{fill:url(#SVGID_6_);}
	.st13{fill:url(#SVGID_7_);}
	.st14{fill:url(#SVGID_8_);}
	.st15{fill:url(#SVGID_9_);}
	.st16{fill:url(#SVGID_10_);}
	.st17{fill:url(#SVGID_11_);}
	.st18{fill:url(#SVGID_12_);}
	.st19{fill:url(#SVGID_13_);}
	.st20{fill:#FFE6AE;}
	.st21{fill:url(#SVGID_14_);}
	.st22{display:none;fill:#1F1F25;}
	.st23{fill:url(#SVGID_15_);}
	.st24{fill:url(#SVGID_16_);}
	.st25{fill:url(#SVGID_17_);}
	.st26{fill:url(#SVGID_18_);}
	.st27{fill:none;stroke:#1F1F25;stroke-miterlimit:10;}
</style>
<g id="Cryptocurrency_Wallet">
	<g>
		<linearGradient id="SVGID_1_" gradientUnits="userSpaceOnUse" x1="24.7502" y1="10.5" x2="44.7502" y2="10.5">
			<stop  offset="0" style="stop-color:#FFE7B3"/>
			<stop  offset="1" style="stop-color:#FFBE15"/>
		</linearGradient>
		<path class="st6" d="M34.8,0.5c-5.5,0-10,4.5-10,10c0,0.4,0,0.9,0.1,1.3c4.4,1,7.9,4.3,9,8.7c0.3,0,0.6,0,0.9,0
			c5.5,0,10-4.5,10-10C44.8,5,40.3,0.5,34.8,0.5z"/>
	</g>
	<g>
		<path class="st0" d="M34.8,21c-0.3,0-0.6,0-1,0c-0.3,0-0.5-0.3-0.5-0.5c0-0.3,0.3-0.5,0.5-0.5c0.3,0,0.6,0,0.9,0
			c5.2,0,9.5-4.3,9.5-9.5S40,1,34.8,1s-9.5,4.3-9.5,9.5c0,0.4,0,0.8,0.1,1.2c0,0.3-0.2,0.5-0.4,0.6c-0.3,0-0.5-0.2-0.6-0.4
			c-0.1-0.5-0.1-0.9-0.1-1.4C24.2,4.7,29,0,34.8,0c5.8,0,10.5,4.7,10.5,10.5S40.5,21,34.8,21z"/>
	</g>
	<g>
		<path class="st0" d="M54,36.5c-0.3,0-0.5-0.2-0.5-0.5v-7.5c0-2.5-2-4.5-4.5-4.5H34.2c-0.3,0-0.5-0.2-0.5-0.5S34,23,34.2,23H49
			c3,0,5.5,2.5,5.5,5.5V36C54.5,36.3,54.3,36.5,54,36.5z"/>
	</g>
	<g>
		<path class="st0" d="M49,63H5.5c-3,0-5.5-2.5-5.5-5.5v-29c0-3,2.5-5.5,5.5-5.5h4.8c0.3,0,0.5,0.2,0.5,0.5S10.5,24,10.2,24H5.5
			C3,24,1,26,1,28.5v29C1,60,3,62,5.5,62H49c2.5,0,4.5-2,4.5-4.5V50c0-0.3,0.2-0.5,0.5-0.5s0.5,0.2,0.5,0.5v7.5
			C54.5,60.5,52,63,49,63z"/>
	</g>
	<g>
		<path class="st0" d="M58,48.5H43.5c-1.7,0-3-1.3-3-3v-5c0-1.7,1.3-3,3-3H58c1.7,0,3,1.3,3,3v5C61,47.2,59.7,48.5,58,48.5z
			 M43.5,38.5c-1.1,0-2,0.9-2,2v5c0,1.1,0.9,2,2,2H58c1.1,0,2-0.9,2-2v-5c0-1.1-0.9-2-2-2H43.5z"/>
	</g>
	<g>
		<path class="st0" d="M46,46c-1.7,0-3-1.3-3-3s1.3-3,3-3s3,1.3,3,3S47.7,46,46,46z M46,41c-1.1,0-2,0.9-2,2s0.9,2,2,2s2-0.9,2-2
			S47.1,41,46,41z"/>
	</g>
	<g>
		<path class="st0" d="M34.8,18c-0.2,0-0.3-0.1-0.4-0.2l-4.5-7c-0.1-0.2-0.1-0.4,0-0.5l4.5-7c0.2-0.3,0.7-0.3,0.8,0l4.5,7
			c0.1,0.2,0.1,0.4,0,0.5l-4.5,7C35.1,17.9,34.9,18,34.8,18z M30.8,10.5l3.9,6.1l3.9-6.1l-3.9-6.1L30.8,10.5z"/>
	</g>
	<g>
		<path class="st0" d="M34.8,13c-0.1,0-0.1,0-0.2,0L30,11c-0.2-0.1-0.3-0.3-0.3-0.5s0.1-0.4,0.3-0.5l4.5-2C34.7,8,34.8,8,35,8l4.5,2
			c0.2,0.1,0.3,0.3,0.3,0.5s-0.1,0.4-0.3,0.5L35,13C34.9,13,34.8,13,34.8,13z M31.5,10.5l3.3,1.5l3.3-1.5L34.8,9L31.5,10.5z"/>
	</g>
	<g>
		<path class="st0" d="M34.8,17.5c-0.3,0-0.5-0.2-0.5-0.5V4c0-0.3,0.2-0.5,0.5-0.5s0.5,0.2,0.5,0.5v13C35.2,17.3,35,17.5,34.8,17.5z
			"/>
	</g>
	<g>
		<linearGradient id="SVGID_2_" gradientUnits="userSpaceOnUse" x1="12.2502" y1="23.5" x2="32.2502" y2="23.5">
			<stop  offset="0" style="stop-color:#FFE7B3"/>
			<stop  offset="1" style="stop-color:#FFBE15"/>
		</linearGradient>
		<circle class="st7" cx="22.3" cy="23.5" r="10"/>
		<path class="st0" d="M22.2,34c-5.8,0-10.5-4.7-10.5-10.5S16.5,13,22.2,13c5.8,0,10.5,4.7,10.5,10.5S28,34,22.2,34z M22.2,14
			c-5.2,0-9.5,4.3-9.5,9.5S17,33,22.2,33s9.5-4.3,9.5-9.5S27.5,14,22.2,14z"/>
	</g>
	<g>
		<path class="st0" d="M19.8,20h-1.5c-0.3,0-0.5-0.2-0.5-0.5S18,19,18.2,19h1.5c0.3,0,0.5,0.2,0.5,0.5S20,20,19.8,20z"/>
	</g>
	<g>
		<path class="st0" d="M19.8,28h-1.5c-0.3,0-0.5-0.2-0.5-0.5S18,27,18.2,27h1.5c0.3,0,0.5,0.2,0.5,0.5S20,28,19.8,28z"/>
	</g>
	<g>
		<path class="st0" d="M21.2,20c-0.3,0-0.5-0.2-0.5-0.5v-2c0-0.3,0.2-0.5,0.5-0.5s0.5,0.2,0.5,0.5v2C21.8,19.8,21.5,20,21.2,20z"/>
	</g>
	<g>
		<path class="st0" d="M23.2,20c-0.3,0-0.5-0.2-0.5-0.5v-2c0-0.3,0.2-0.5,0.5-0.5s0.5,0.2,0.5,0.5v2C23.8,19.8,23.5,20,23.2,20z"/>
	</g>
	<g>
		<path class="st0" d="M23.2,24h-3.5c-0.3,0-0.5-0.2-0.5-0.5v-4c0-0.3,0.2-0.5,0.5-0.5h3.5c1.4,0,2.5,1.1,2.5,2.5S24.6,24,23.2,24z
			 M20.2,23h3c0.8,0,1.5-0.7,1.5-1.5S24.1,20,23.2,20h-3V23z"/>
	</g>
	<g>
		<path class="st0" d="M24.2,28h-4.5c-0.3,0-0.5-0.2-0.5-0.5v-4c0-0.3,0.2-0.5,0.5-0.5h4.5c1.4,0,2.5,1.1,2.5,2.5S25.6,28,24.2,28z
			 M20.2,27h4c0.8,0,1.5-0.7,1.5-1.5S25.1,24,24.2,24h-4V27z"/>
	</g>
	<g>
		<path class="st0" d="M21.2,30c-0.3,0-0.5-0.2-0.5-0.5v-2c0-0.3,0.2-0.5,0.5-0.5s0.5,0.2,0.5,0.5v2C21.8,29.8,21.5,30,21.2,30z"/>
	</g>
	<g>
		<path class="st0" d="M23.2,30c-0.3,0-0.5-0.2-0.5-0.5v-2c0-0.3,0.2-0.5,0.5-0.5s0.5,0.2,0.5,0.5v2C23.8,29.8,23.5,30,23.2,30z"/>
	</g>
	<g>
		<path class="st0" d="M6,58H3.5C3.2,58,3,57.8,3,57.5S3.2,57,3.5,57H6c0.3,0,0.5,0.2,0.5,0.5S6.3,58,6,58z"/>
	</g>
	<g>
		<path class="st0" d="M11,58H8.5C8.2,58,8,57.8,8,57.5S8.2,57,8.5,57H11c0.3,0,0.5,0.2,0.5,0.5S11.3,58,11,58z"/>
	</g>
	<g>
		<path class="st0" d="M16,58h-2.5c-0.3,0-0.5-0.2-0.5-0.5s0.2-0.5,0.5-0.5H16c0.3,0,0.5,0.2,0.5,0.5S16.3,58,16,58z"/>
	</g>
	<g>
		<path class="st0" d="M21,58h-2.5c-0.3,0-0.5-0.2-0.5-0.5s0.2-0.5,0.5-0.5H21c0.3,0,0.5,0.2,0.5,0.5S21.3,58,21,58z"/>
	</g>
	<g>
		<path class="st0" d="M26,58h-2.5c-0.3,0-0.5-0.2-0.5-0.5s0.2-0.5,0.5-0.5H26c0.3,0,0.5,0.2,0.5,0.5S26.3,58,26,58z"/>
	</g>
	<g>
		<path class="st0" d="M31,58h-2.5c-0.3,0-0.5-0.2-0.5-0.5s0.2-0.5,0.5-0.5H31c0.3,0,0.5,0.2,0.5,0.5S31.3,58,31,58z"/>
	</g>
	<g>
		<path class="st0" d="M36,58h-2.5c-0.3,0-0.5-0.2-0.5-0.5s0.2-0.5,0.5-0.5H36c0.3,0,0.5,0.2,0.5,0.5S36.3,58,36,58z"/>
	</g>
	<g>
		<path class="st0" d="M41,58h-2.5c-0.3,0-0.5-0.2-0.5-0.5s0.2-0.5,0.5-0.5H41c0.3,0,0.5,0.2,0.5,0.5S41.3,58,41,58z"/>
	</g>
	<g>
		<path class="st0" d="M46,58h-2.5c-0.3,0-0.5-0.2-0.5-0.5s0.2-0.5,0.5-0.5H46c0.3,0,0.5,0.2,0.5,0.5S46.3,58,46,58z"/>
	</g>
	<g>
		<path class="st0" d="M51,58h-2.5c-0.3,0-0.5-0.2-0.5-0.5s0.2-0.5,0.5-0.5H51c0.3,0,0.5,0.2,0.5,0.5S51.3,58,51,58z"/>
	</g>
	<g>
		<path class="st0" d="M51,32c-0.3,0-0.5-0.2-0.5-0.5V29c0-1.1-0.9-2-2-2H46c-0.3,0-0.5-0.2-0.5-0.5S45.7,26,46,26h2.5
			c1.7,0,3,1.3,3,3v2.5C51.5,31.8,51.3,32,51,32z"/>
	</g>
</g>
</svg>
