<?xml version="1.0" encoding="utf-8"?>
<!-- Generator: Adobe Illustrator 21.1.0, SVG Export Plug-In . SVG Version: 6.00 Build 0)  -->
<svg version="1.1" id="_x2014_ÎÓÈ_x5F_1" xmlns="http://www.w3.org/2000/svg" xmlns:xlink="http://www.w3.org/1999/xlink"
	 x="0px" y="0px" viewBox="0 0 99.1 93.5" style="enable-background:new 0 0 99.1 93.5;" xml:space="preserve">
<style type="text/css">
	.st0{display:none;fill:#B3E0FF;}
	.st1{display:none;}
	.st2{display:inline;fill:#FFFFFF;}
	.st3{display:none;opacity:0.5;fill:#FFFFFF;}
	.st4{display:inline;}
	.st5{fill:#7DC3EA;}
	.st6{fill:#FFFFFF;}
	.st7{fill:url(#SVGID_1_);}
	.st8{fill:url(#SVGID_2_);}
	.st9{fill:url(#SVGID_3_);}
	.st10{display:inline;fill:#7DC3EA;}
	.st11{display:inline;fill:#396CAA;}
	.st12{display:inline;fill:url(#SVGID_4_);}
	.st13{display:inline;fill:#D4ECFF;}
	.st14{display:inline;fill:#5793CE;}
	.st15{display:inline;fill:url(#SVGID_5_);}
	.st16{fill:#D4ECFF;}
	.st17{fill:#5793CE;}
	.st18{fill:#396CAA;}
	.st19{display:inline;fill:#FF2C9C;}
	.st20{display:none;fill:#FFFFFF;}
	.st21{display:none;opacity:0.4;fill:#FFFFFF;}
	.st22{display:inline;opacity:0.4;}
	.st23{fill:#DCDEE2;}
	.st24{display:inline;fill:url(#SVGID_6_);}
	.st25{display:inline;fill:url(#SVGID_7_);}
	.st26{display:none;fill:#F7F7F7;}
	.st27{fill:#CBCDD1;}
	.st28{fill:#B5B8BC;}
	.st29{fill:#E3E5EC;}
	.st30{fill:url(#SVGID_8_);}
	.st31{fill:url(#SVGID_9_);}
	.st32{fill:#34343F;}
	.st33{fill:#464654;}
	.st34{fill:#FFC01D;}
	.st35{display:inline;fill:#CBCDD1;}
	.st36{display:none;opacity:0.5;fill:#173D7A;}
	.st37{fill:url(#SVGID_10_);}
	.st38{fill:url(#SVGID_11_);}
	.st39{fill:url(#SVGID_12_);}
	.st40{fill:url(#SVGID_13_);}
	.st41{fill:#FFBF17;}
	.st42{fill:url(#SVGID_14_);}
	.st43{display:none;fill:#CBCDD1;}
	.st44{display:none;fill:#D4ECFF;}
	.st45{fill:#FFF5E0;}
	.st46{fill:url(#SVGID_15_);}
	.st47{display:inline;fill:url(#SVGID_16_);}
	.st48{display:inline;fill:url(#SVGID_17_);}
	.st49{display:inline;fill:url(#SVGID_18_);}
	.st50{display:inline;fill:url(#SVGID_19_);}
	.st51{display:inline;fill:url(#SVGID_20_);}
	.st52{display:inline;fill:url(#SVGID_21_);}
	.st53{display:inline;fill:url(#SVGID_22_);}
	.st54{display:inline;fill:#B47D4F;}
	.st55{display:inline;fill:url(#SVGID_23_);}
	.st56{display:inline;fill:url(#SVGID_24_);}
	.st57{display:inline;fill:url(#SVGID_25_);}
	.st58{display:inline;fill:url(#SVGID_26_);}
	.st59{display:inline;fill:url(#SVGID_27_);}
	.st60{display:inline;fill:url(#SVGID_28_);}
	.st61{display:inline;fill:url(#SVGID_29_);}
	.st62{display:inline;fill:#32323D;}
	.st63{display:inline;fill:url(#SVGID_30_);}
	.st64{display:inline;fill:url(#SVGID_31_);}
	.st65{display:inline;fill:#58586B;}
	.st66{fill:#58586B;}
	.st67{fill:url(#SVGID_32_);}
	.st68{fill:url(#SVGID_33_);}
	.st69{display:inline;fill:url(#SVGID_34_);}
	.st70{display:inline;fill:url(#SVGID_35_);}
	.st71{fill:url(#SVGID_36_);}
	.st72{fill:url(#SVGID_37_);}
</style>
<g class="st1">
	<g class="st22">
		<path class="st23" d="M87.8,53.6l-0.3-0.2l-31-17.9l31.3-18.1l0.3,0.2l31,17.9L87.8,53.6z M58.8,35.6l29.1,16.8l29.1-16.8
			L87.8,18.8L58.8,35.6z"/>
		<path class="st23" d="M118,71.1l-0.3-0.2L86.7,53L118,34.9l0.3,0.2l31,17.9L118,71.1z M88.9,53L118,69.8L147.1,53L118,36.2
			L88.9,53z"/>
		<path class="st23" d="M27.5,53.6l-0.3-0.2l-31-17.9l31.3-18.1l31.3,18.1L27.5,53.6z M-1.6,35.6l29.1,16.8l29.1-16.8L27.5,18.8
			L-1.6,35.6z"/>
		<path class="st23" d="M57.6,71.1L26.4,53l31.3-18.1l0.3,0.2l31,17.9L57.6,71.1z M28.6,53l29.1,16.8L86.7,53L57.6,36.2L28.6,53z"/>
		<path class="st23" d="M87.8,88.5l-0.3-0.2l-31-17.9l31.3-18.1l0.3,0.2l31,17.9L87.8,88.5z M58.8,70.4l29.1,16.8l29.1-16.8
			L87.8,53.6L58.8,70.4z"/>
		<path class="st23" d="M118,105.9l-0.3-0.2l-31-17.9L118,69.8l0.3,0.2l31,17.9L118,105.9z M88.9,87.8l29.1,16.8l29.1-16.8L118,71.1
			L88.9,87.8z"/>
		<path class="st23" d="M-2.7,71.1L-3,70.9L-34,53l31.3-18.1l0.3,0.2l31,17.9L-2.7,71.1z M-31.8,53l29.1,16.8L26.4,53L-2.7,36.2
			L-31.8,53z"/>
		<path class="st23" d="M27.5,88.5l-0.3-0.2l-31-17.9l31.3-18.1l31.3,18.1L27.5,88.5z M-1.6,70.4l29.1,16.8l29.1-16.8L27.5,53.6
			L-1.6,70.4z"/>
		<path class="st23" d="M57.6,105.9l-0.3-0.2l-31-17.9l31.3-18.1l0.3,0.2l31,17.9L57.6,105.9z M28.6,87.8l29.1,16.8l29.1-16.8
			L57.6,71.1L28.6,87.8z"/>
		<path class="st23" d="M87.8,123.3l-31.3-18.1l31.3-18.1l0.3,0.2l31,17.9L87.8,123.3z M58.8,105.3L87.8,122l29.1-16.8L87.8,88.5
			L58.8,105.3z"/>
		<path class="st23" d="M-2.7,105.9l-0.3-0.2l-31-17.9l31.3-18.1l0.3,0.2l31,17.9L-2.7,105.9z M-31.8,87.8l29.1,16.8l29.1-16.8
			L-2.7,71.1L-31.8,87.8z"/>
		<path class="st23" d="M27.5,123.3l-0.3-0.2l-31-17.9l31.3-18.1l0.3,0.2l31,17.9L27.5,123.3z M-1.6,105.3L27.5,122l29.1-16.8
			L27.5,88.5L-1.6,105.3z"/>
	</g>
	<linearGradient id="SVGID_1_" gradientUnits="userSpaceOnUse" x1="85.2933" y1="78.7718" x2="137.2368" y2="-11.1971">
		<stop  offset="0" style="stop-color:#58586B"/>
		<stop  offset="1" style="stop-color:#1F1F26"/>
	</linearGradient>
	<path style="display:inline;fill:url(#SVGID_1_);" d="M-57.8,141.7c0.3,3.4,2.3,6.3,5.7,8.3l70.8,40.9c2.6,1.5,5.9,2.3,9.4,2.3
		c5.2,0,10.3-1.8,14-4.8L159.5,90l30-3.2L87.6,27.9c-6-3.5-13.6-2.8-19,1.7L-53,131.7c-2.9,2.4-4.6,5.5-4.8,8.7
		C-57.9,140.8-57.9,141.2-57.8,141.7z"/>
	<linearGradient id="SVGID_2_" gradientUnits="userSpaceOnUse" x1="-31.5771" y1="92.9902" x2="52.2277" y2="92.9902">
		<stop  offset="0" style="stop-color:#006EFF"/>
		<stop  offset="1" style="stop-color:#1F8DFF"/>
	</linearGradient>
	<path style="display:inline;fill:url(#SVGID_2_);" d="M51.9,92.7c-0.1,0.2-0.2,0.4-0.4,0.6C51.6,93.1,51.8,92.9,51.9,92.7z"/>
	<linearGradient id="SVGID_3_" gradientUnits="userSpaceOnUse" x1="-27.2455" y1="92.9902" x2="52.2225" y2="92.9902">
		<stop  offset="0" style="stop-color:#005ED4"/>
		<stop  offset="1" style="stop-color:#002765"/>
	</linearGradient>
	<path style="display:inline;fill:url(#SVGID_3_);" d="M51.9,92.7c-0.1,0.2-0.2,0.4-0.4,0.6C51.6,93.1,51.8,92.9,51.9,92.7z"/>
	
		<linearGradient id="SVGID_4_" gradientUnits="userSpaceOnUse" x1="-536.4781" y1="-287.7732" x2="-429.8605" y2="-287.7732" gradientTransform="matrix(0.866 0.5 -0.8152 0.684 234.1254 551.6261)">
		<stop  offset="0" style="stop-color:#303030"/>
		<stop  offset="1" style="stop-color:#000000"/>
	</linearGradient>
	<path class="st12" d="M19.8,188.9L-51,148c-5.9-3.4-6.2-10-0.6-14.7L59.9,39.8c5.6-4.7,14.9-5.7,20.9-2.3l70.8,40.9
		c5.9,3.4,6.2,10,0.6,14.7L40.7,186.6C35.1,191.3,25.8,192.4,19.8,188.9z"/>
	<path class="st2" d="M-46.2,137L66,42.8c2.8-2.3,7.5-2.9,10.4-1.1l70,40.4c3,1.7,3.1,5,0.3,7.3L34.6,183.6
		c-2.8,2.3-7.5,2.9-10.4,1.1l-70-40.4C-48.9,142.6-49,139.3-46.2,137z"/>
	
		<linearGradient id="SVGID_5_" gradientUnits="userSpaceOnUse" x1="-524.2893" y1="-323.4364" x2="-442.0511" y2="-323.4364" gradientTransform="matrix(0.866 0.5 -0.8152 0.684 234.1254 551.6261)">
		<stop  offset="0" style="stop-color:#EFF0F2"/>
		<stop  offset="1" style="stop-color:#DCDEE7"/>
	</linearGradient>
	<path class="st15" d="M94.1,121.3L30.7,84.7c-2.2-1.2-2.3-3.6-0.2-5.3L57,57.1c2-1.7,5.4-2.1,7.6-0.8L128,92.9
		c2.2,1.2,2.3,3.6,0.2,5.3l-26.5,22.2C99.7,122.2,96.3,122.6,94.1,121.3z"/>
	
		<linearGradient id="SVGID_6_" gradientUnits="userSpaceOnUse" x1="-521.1343" y1="-299.3571" x2="-445.2038" y2="-255.5186" gradientTransform="matrix(0.866 0.5 -0.8152 0.684 234.1254 551.6261)">
		<stop  offset="0" style="stop-color:#FFE7B3"/>
		<stop  offset="1" style="stop-color:#FFBE15"/>
	</linearGradient>
	<path class="st24" d="M57.5,152.1l-63.4-36.6c-2.2-1.2-2.3-3.6-0.2-5.3l24.9-20.9c2-1.7,5.4-2.1,7.6-0.8l63.4,36.6
		c2.2,1.2,2.3,3.6,0.2,5.3L65,151.3C63,153,59.6,153.3,57.5,152.1z"/>
	
		<linearGradient id="SVGID_7_" gradientUnits="userSpaceOnUse" x1="-516.2587" y1="-351.5364" x2="-450.0822" y2="-313.3294" gradientTransform="matrix(0.866 0.5 -0.8152 0.684 234.1254 551.6261)">
		<stop  offset="0" style="stop-color:#303030"/>
		<stop  offset="1" style="stop-color:#000000"/>
	</linearGradient>
	<polygon class="st25" points="118.1,106.8 46.9,65.7 55.3,58.5 126.5,99.7 	"/>
	<linearGradient id="SVGID_8_" gradientUnits="userSpaceOnUse" x1="-57.8469" y1="152.3014" x2="204.8101" y2="152.3014">
		<stop  offset="0" style="stop-color:#363642"/>
		<stop  offset="1" style="stop-color:#58586B"/>
	</linearGradient>
	<path style="display:inline;fill:url(#SVGID_8_);" d="M199.5,92.6L199.5,92.6l-14.6-8.5c-0.1-0.1-0.2-0.1-0.3-0.2
		c-6.5-3.6-14.5-2.7-20.2,2L42.1,188.3c-3.7,3.1-8.8,4.8-14,4.8c-3.5,0-6.7-0.8-9.4-2.3l-70.8-40.9c-3.4-2-5.4-4.9-5.7-8.3
		c0-0.5,0-0.9,0-1.4l0,0l0,29.6c0,0.5,0,1,0,1.5c0.3,3.4,2.3,6.3,5.7,8.3l70.8,40.9c2.6,1.5,5.9,2.3,9.4,2.3c5.2,0,10.3-1.8,14-4.8
		L155,123.5l20.1,11.4l0,0c3.1,2,7.5,1.8,12.4-1.1c9.5-5.5,17.3-18.9,17.3-29.9C204.8,98.2,202.8,94.3,199.5,92.6z"/>
</g>
<g>
	<path class="st41" d="M4.5,20.6l17.7-10.2c0,0-0.7,10.1-0.7,10.2s-10.1,3.1-10.1,3.1L4.5,20.6z"/>
	<linearGradient id="SVGID_9_" gradientUnits="userSpaceOnUse" x1="17.6392" y1="46.4028" x2="99.1301" y2="46.4028">
		<stop  offset="0" style="stop-color:#FFD465"/>
		<stop  offset="1" style="stop-color:#FFBE15"/>
	</linearGradient>
	<path class="st31" d="M99.1,79.1c0-7.1-5-15.8-11.2-19.4c-1.3-0.8-2.6-1.2-3.8-1.4C82.3,49,75.8,39,68.1,34.5
		c-2.3-1.3-4.6-2.1-6.6-2.2C60.4,21,52.5,8.1,43,2.5c-5-2.9-9.5-3.2-12.9-1.5l0,0l-0.2,0.1c-0.1,0-0.2,0.1-0.3,0.1L19.2,7.5l3.5,2.7
		c-3.1,1.4-5.1,4.8-5.1,10c0,9.5,6.7,21,14.9,25.8l50.8,36.3l1.6,10.6l11-6.5c0,0,0,0,0,0l0.1,0l0,0C97.9,85.1,99.1,82.6,99.1,79.1z
		"/>
	<path class="st43" d="M18.2,16L42.1,2c-4.6-2.4-8.8-2.6-12-1l0,0l-0.2,0.1c-0.1,0-0.2,0.1-0.3,0.1L19.2,7.5l3.5,2.7
		C20.5,11.1,18.9,13.1,18.2,16z"/>
	<path class="st43" d="M62.3,57.1l17.4-10.2c-3-5.2-7.1-9.7-11.7-12.3c-0.6-0.3-1.2-0.7-1.8-0.9l-22.2,13L62.3,57.1z"/>
	<path class="st44" d="M24.2,8.6l7.8,4.5l14.2-8.4c-1-0.8-2.1-1.5-3.2-2.2c-1.7-1-3.4-1.7-5-2.1L24.2,8.6z"/>
	<path class="st44" d="M77.8,43.8L63.9,52l4.8,5.4L81.4,50C80.4,47.8,79.2,45.8,77.8,43.8z"/>
	<path class="st45" d="M77,66.2c-1.3-0.8-2.6-1.2-3.8-1.4c-1.8-9.4-8.3-19.3-16.1-23.8c-2.3-1.3-4.6-2.1-6.6-2.2
		C49.5,27.4,41.6,14.5,32,9C21.7,3,13.4,7.9,13.4,19.8c0,0.4,0,0.8,0,1.2C5.9,17.5,0,21.4,0,30.3c0,9.5,6.7,21,14.9,25.8L77,92
		c6.2,3.6,11.2,0.7,11.2-6.5S83.2,69.7,77,66.2z"/>
	<g class="st1">
		<path class="st2" d="M13.4,21c0-0.4,0-0.8,0-1.2c0,0,0,0,0-0.1c-4.2-1.6-7.7-0.9-10,1.7C5.8,19.4,9.4,19.1,13.4,21z"/>
		<path class="st2" d="M77.9,65.3c-1.3-0.8-2.6-1.2-3.8-1.4c-1.8-9.4-8.3-19.3-16.1-23.8c-2.3-1.3-4.6-2.1-6.6-2.2
			c-1.1-11.3-8.9-24.2-18.5-29.8c-6.4-3.7-12.1-3.2-15.4,0.5c3.4-2.9,8.7-3,14.5,0.4c9.6,5.5,17.5,18.4,18.5,29.8
			c2,0.2,4.2,0.9,6.6,2.2c7.8,4.5,14.3,14.4,16.1,23.8c1.2,0.2,2.5,0.6,3.8,1.4c6.2,3.6,11.2,12.2,11.2,19.4c0,2.6-0.7,4.6-1.8,5.9
			c1.7-1.3,2.7-3.6,2.7-6.8C89.1,77.5,84.1,68.8,77.9,65.3z"/>
	</g>
	<g>
		<linearGradient id="SVGID_10_" gradientUnits="userSpaceOnUse" x1="3.1221" y1="49.9768" x2="85.0737" y2="49.9768">
			<stop  offset="0" style="stop-color:#FFE7B3"/>
			<stop  offset="1" style="stop-color:#FFBE15"/>
		</linearGradient>
		<path class="st37" d="M12.1,23.8l4.7,2.2l-0.2-5.1c0-0.4,0-0.7,0-1.1c0-4.6,1.4-7.9,3.9-9.4c2.5-1.5,6.1-1,10.1,1.3
			c8.5,4.9,16,16.9,17,27.4l0.2,2.6l2.6,0.2c1.6,0.1,3.4,0.7,5.2,1.8c6.8,3.9,12.9,13,14.6,21.7l0.4,2.2l2.2,0.3
			c0.9,0.1,1.8,0.5,2.7,1c5.2,3,9.6,10.6,9.6,16.7c0,2.3-0.6,3.9-1.7,4.5c-1.1,0.6-2.8,0.3-4.8-0.8L16.5,53.4
			C9.2,49.3,3.1,38.7,3.1,30.3c0-3.3,1-5.8,2.6-6.8c0.7-0.4,1.5-0.7,2.5-0.7C9.4,22.8,10.7,23.2,12.1,23.8z"/>
	</g>
</g>
</svg>
