<svg xmlns="http://www.w3.org/2000/svg">
    <symbol xmlns="http://www.w3.org/2000/svg" id="rezart_logo" viewBox="0 0 446.4 267.24">
        <path d="M442.14,240.64,302,.56a1.51,1.51,0,0,0-2.33,0C298.37,1.81,170.74,221,170.74,221l-30.56-51.21.33-1.33S195.32,152,195.32,92.33,135.7,15.52,122.58,15.52H0L20.6,52.76h93.34s47.5-3.56,47.5,40.57-36.19,44.89-42.52,44.89H80.39l70.09,117.71s6.49,11.31,16.94,11.31,14.64-5.43,18.93-11.64S300.63,64.4,300.63,64.4l84.71,141.65L299,156.18,331.19,212l89,51.21s14.13,5.79,22.59-2.33S442.14,240.64,442.14,240.64ZM37.2,158.17,1.33,96.32v149s-.14,14.63,18.27,14.63,17.94-15.3,17.94-15.3Z" />
    </symbol>
    <symbol xmlns="http://www.w3.org/2000/svg" id="closeModal" viewBox="0 0 16 16">
        <path d="M16,1.6,14.4,0,8,6.4,1.6,0,0,1.6,6.4,8,0,14.4,1.6,16,8,9.6,14.4,16,16,14.4,9.6,8Z"/>
    </symbol>
    <symbol xmlns="http://www.w3.org/2000/svg" id="menuBurger" viewBox="0 0 25 16">
        <path d="M.94,1.88H24.06a.94.94,0,1,0,0-1.88H.94a.94.94,0,1,0,0,1.88ZM24.06,7.06H.94a.94.94,0,1,0,0,1.88H24.06a.94.94,0,1,0,0-1.88Zm0,7.06H.94A.94.94,0,1,0,.94,16H24.06a.94.94,0,1,0,0-1.88Z"/>
    </symbol>
    <symbol xmlns="http://www.w3.org/2000/svg" id="upArrow" viewBox="0 0 426.6 512">
        <path d="M213.3,512c11.7,0,21.3-9.6,21.3-21.3V65.1L389.9,228c4.1,4.4,9.9,6.7,15.5,6.7c5.3,0,10.5-2,14.7-5.9c8.5-8.1,8.8-21.6,0.8-30.1L243.5,12.5c-8-8-18.8-12.5-30.1-12.5c-11.3,0-22.1,4.4-30.5,12.9L5.9,198.7c-8.1,8.5-7.7,22,0.8,30.1c8.5,8.1,22,7.7,30.1-0.8L192,64.4v426.3C192,502.4,201.6,512,213.3,512L213.3,512z"/>
    </symbol>
</svg>