<svg xmlns="http://www.w3.org/2000/svg">
    <symbol xmlns="http://www.w3.org/2000/svg" id="rezart_logo" viewBox="0 0 446.4 267.24">
        <path d="M442.14,240.64,302,.56a1.51,1.51,0,0,0-2.33,0C298.37,1.81,170.74,221,170.74,221l-30.56-51.21.33-1.33S195.32,152,195.32,92.33,135.7,15.52,122.58,15.52H0L20.6,52.76h93.34s47.5-3.56,47.5,40.57-36.19,44.89-42.52,44.89H80.39l70.09,117.71s6.49,11.31,16.94,11.31,14.64-5.43,18.93-11.64S300.63,64.4,300.63,64.4l84.71,141.65L299,156.18,331.19,212l89,51.21s14.13,5.79,22.59-2.33S442.14,240.64,442.14,240.64ZM37.2,158.17,1.33,96.32v149s-.14,14.63,18.27,14.63,17.94-15.3,17.94-15.3Z" />
    </symbol>
    <symbol xmlns="http://www.w3.org/2000/svg" id="closeModal" viewBox="0 0 16 16">
        <path d="M16,1.6,14.4,0,8,6.4,1.6,0,0,1.6,6.4,8,0,14.4,1.6,16,8,9.6,14.4,16,16,14.4,9.6,8Z"/>
    </symbol>
    <symbol xmlns="http://www.w3.org/2000/svg" id="menuBurger" viewBox="0 0 25 16">
        <path d="M.94,1.88H24.06a.94.94,0,1,0,0-1.88H.94a.94.94,0,1,0,0,1.88ZM24.06,7.06H.94a.94.94,0,1,0,0,1.88H24.06a.94.94,0,1,0,0-1.88Zm0,7.06H.94A.94.94,0,1,0,.94,16H24.06a.94.94,0,1,0,0-1.88Z"/>
    </symbol>
    <symbol xmlns="http://www.w3.org/2000/svg" id="hand" viewBox="0 0 382.9 385.5">
        <path d="M104.7,200.1c-13.4-22.1-27.1-44.1-41-65.9c-5.6-8.7-10.7-19.1-19.2-25.5c-8.7-6.6-19.4-5.6-28.4,0c-8,5-14.3,13.2-15.8,22.6c-1.7,10.9,3.8,20.6,9.7,29.2c12.9,18.8,26.8,37.2,36.6,57.9c10.6,22.4,12.4,46.2,15.7,70.3c2.9,20.7,8.3,42.1,22.7,58c7.6,8.4,17.5,13.8,27.5,18.8c10.4,5.2,20.8,10.9,31.9,14.5c21.1,7,44.4,6.8,65.7,0.8c45.5-13,76.4-52.8,107.2-86c17.5-18.9,35.8-37.2,52.4-56.8c6.5-7.6,12.3-16.3,12.9-26.6c0.5-8.6-2.9-17.9-10.3-22.8c-8.9-5.9-20.3-3.2-29.7-0.2c-9.5,3.1-18.7,7.5-27,13.1c-8.3,5.6-15.9,12.3-22.4,19.9c-2.9,3.4-5.6,7-8,10.7c-3.1,4.7-5.3,9.9-8.6,14.4c-2.4,3.2-6.8,7.5-11.3,6c-4.8-1.6-5-8.9-5.2-13c-0.6-12.6,1.6-25,4.9-37.1c6.6-24.3,15.7-47.9,22.2-72.3c3.3-12.3,6.2-24.6,8.9-37c2.5-11.9,5.4-24.1,6.1-36.3c0.6-10.5-1.6-21.1-8.5-29.2c-6.1-7.2-15.3-11.1-24.6-9c-23,5-27.5,35.5-33.2,54.1c-7.7,25.4-15.5,50.8-23.2,76.1c-3.9,12.7-7.7,25.4-11.6,38.1c3.3,0.4,6.5,0.9,9.8,1.3c-1.8-29.7-3.6-59.5-5.4-89.2c-0.9-15.2-1.9-30.4-2.8-45.6c-0.7-11.6-0.2-24.3-4.1-35.4c-3.5-9.8-11.2-17.3-22-18c-9.5-0.6-19.5,4.1-25.7,11.2c-8.2,9.3-10.8,21.7-12,33.7c-1.4,13.6-1.8,27.5-1.9,41.1c-0.5,32.6,1.8,65.3,7.8,97.3c3.2-0.9,6.4-1.8,9.6-2.7c-7.8-29.3-16.4-58.4-25.8-87.2c-4.3-13.2-8.2-26.8-13.9-39.4c-4.1-9-10.2-18.1-19.8-21.7c-23.2-8.7-38.2,17.8-39.5,37.1c-1.4,21.8,8,42.5,17.4,61.6c10.8,22,23.7,44.7,22.3,70.1c-0.4,6.4,9.6,6.4,10,0c2.3-41.5-29.5-73.4-38.1-112.2c-2.1-9.4-2.7-19.7,0-29c2.5-8.5,9.1-18.7,18.9-19.1c10.1-0.4,16.2,9.7,19.9,17.6c5.3,11.4,8.7,23.9,12.6,35.9c9.7,29.4,18.5,59.1,26.4,89.1c1.7,6.3,10.8,3.6,9.6-2.7c-4.8-25.5-7-51.4-7.4-77.3c-0.2-12.9,0.1-25.8,0.7-38.6c0.5-11.6,0.7-23.8,4.3-34.9c3-9.4,9.6-17.7,19.8-19.6c10.1-1.9,16.3,5.3,18.5,14.4c2.7,11.1,2.3,23.3,3,34.6c0.8,13.2,1.6,26.4,2.4,39.7c1.8,29.7,3.6,59.5,5.4,89.2c0.3,5.6,8.1,6.9,9.8,1.3c7.1-23.5,14.3-47,21.4-70.4c7-23.1,13.4-46.6,21.2-69.5c3-8.9,8.5-20.1,19-21.5c9.4-1.3,16.6,7.7,18.7,15.8c3,11.2-0.1,23.3-2.2,34.4c-2.2,11.2-4.6,22.4-7.3,33.5c-5.5,22.8-12.5,45.1-19.8,67.3c-6.9,20.7-13.8,43.1-11.2,65.2c0.9,8.1,4.6,16.5,13.5,18.2c8.8,1.6,16.5-4,21.3-10.9c5.6-8,9.6-16.8,16.1-24.3c6-6.9,13-13,20.6-18c7.9-5.2,16.4-9.2,25.5-11.9c8.8-2.6,20.3-4.7,24.1,6.1c3.2,9-1.4,17.9-6.9,24.9c-7,8.9-15.3,16.9-23,25.2c-16.3,17.6-32.7,35.3-49,52.9c-14.5,15.6-28.9,31.7-46,44.5c-17,12.7-36.6,21.6-57.8,23.7c-21.8,2.2-41.6-3-61-12.7c-9.6-4.8-19.9-9.2-28.5-15.7c-7.7-5.8-13.4-13.8-17.5-22.4c-9.2-19.4-10.1-41.4-13-62.3c-2.9-21.6-9.3-41.4-20-60.4c-10.3-18.2-23.8-34.2-34.5-52.1c-5.4-9.1-6.4-18.7,1-27c6.6-7.4,17.2-11.5,25.1-3.8c7.5,7.3,12.6,17.8,18.1,26.5c6.4,10.1,12.8,20.3,19.1,30.4c6.1,9.9,12.2,19.8,18.3,29.8C99.4,210.7,108,205.7,104.7,200.1L104.7,200.1z" fill="inherit"/>
        <path d="M210.4,255.5c-24.7,9.5-54.2,31.4-53.2,60.8c0.2,6.4,10.2,6.4,10,0c-0.8-24.6,25.4-43.3,45.9-51.2C219,262.8,216.4,253.1,210.4,255.5L210.4,255.5z" fill="inherit"/>
    </symbol>
    <symbol xmlns="http://www.w3.org/2000/svg" id="logo" viewBox="0 0 300 300">
        <path d="M18,117.3c-1.1,1.8,0,17.5,1.5,19c1.5,1.5,19.5-9.8,18.5-13.4C37,119.4,19.5,114.8,18,117.3L18,117.3z" fill="#AFC8D1"/>
        <path d="M26.9,75c-0.4-2.1-11.4-13.2-13.6-13.4C11.1,61.5,4.9,81.8,8,83.8C11.1,85.9,27.4,78,26.9,75L26.9,75z" fill="#A3CCAE"/>
        <path d="M85.2,132c-0.2-2.1-14.3-10-16.5-9.6c-2.1,0.4-1.3,18.7,0.1,19C72.5,142.2,85.3,133.5,85.2,132L85.2,132z" fill="#F9DDE6"/>
        <path d="M68.1,52.2c2.1,0.1,12.1-12.6,12-14.8c0-2.2-18.2-4.2-18.8-2.7C59.9,38.2,66.6,52.1,68.1,52.2L68.1,52.2z" fill="#FFE4A8"/>
        <path d="M38.6,103.3c-0.5,1.1,4.6,8.7,5.7,9c1.2,0.4,5.5-9,4.8-9.5C47.6,101.5,39,102.5,38.6,103.3L38.6,103.3z" fill="#FFE4A8"/>
        <path d="M45.1,79c0.5,1.1,9.6,2.2,10.6,1.6c1-0.6-3.2-10-4.1-9.9C49.6,71,44.7,78.3,45.1,79L45.1,79z" fill="#AFC8D1"/>
        <path d="M43.3,164.1c-0.9-0.7-9.6,2-10.3,3c-0.7,1,7.1,7.7,7.8,7.3C42.6,173.2,44,164.6,43.3,164.1L43.3,164.1z" fill="#F9DDE6"/>
        <path d="M71.5,160.9c-0.9,0.8,0,9.8,0.9,10.7c0.9,0.9,9-5.4,8.7-6.2C80.2,163.4,72.1,160.3,71.5,160.9L71.5,160.9z" fill="#FFE4A8"/>
        <path d="M115.9,89.3c-1.4,0.7-2.8,1.5-4.1,2.4c-2.7-6.9-13.5-35.5-16.1-53.9c-2.9-19.9,0.3-23.9,3.2-21.9C110.5,23.6,115.2,80,115.9,89.3L115.9,89.3z" fill="#F9DDE6"/>
        <path d="M170.5,92.4c0.3,0.2,0.6,0.4,1,0.7c17,12.2,21.5,52.4,16.7,64.3c-4.8,11.9-21.5,15.7-44,16.7c-22.5,1-45.1-4.7-50.6-15.7c-4.6-9.2-3.5-39.8,9.2-57.5c1.6-2.2,3.2-4.1,5-5.7c1.3-1.3,2.7-2.4,4.1-3.3c1.3-0.9,2.7-1.7,4.1-2.4c1.7-0.8,3.4-1.5,5.1-2c6.4-2,13.3-2.2,20.2-2.2c3.6,0,9.2,0,15.4,1.5c1.7,0.4,3.5,0.9,5.3,1.6c1.4,0.5,2.8,1.1,4.1,1.8C167.6,90.5,169,91.4,170.5,92.4L170.5,92.4z" fill="#AFC8D1"/>
        <path d="M182.5,4.1c8.1,4.9,5.5,30.5,1.7,49.2c-3.6,17.7-11.3,34.1-13.7,39c-1.5-1-2.9-1.8-4.4-2.6c2.3-6.5,12.7-35.8,14.9-54.5c2.4-20-0.9-23.8-3.7-21.8c-11.8,8.3-15.1,68.4-15.4,74.5c-1.8-0.7-3.5-1.2-5.3-1.6l0.1-0.5c0,0-0.4-31.2,2.4-50.8C163,7.8,175.3-0.3,182.5,4.1L182.5,4.1z" fill="#AFC8D1"/>
        <path d="M177.3,13.5c2.8-2,6.1,1.9,3.7,21.8c-2.3,18.7-12.6,48-14.9,54.5c-1.4-0.7-2.8-1.3-4.1-1.8C162.2,81.8,165.4,21.8,177.3,13.5L177.3,13.5z" fill="#F9DDE6"/>
        <path d="M121,87.2c-1.7,0.5-3.5,1.2-5.1,2c-0.7-9.3-5.4-65.6-17-73.4c-2.9-1.9-6.1,2-3.2,21.9c2.7,18.4,13.5,47,16.1,53.9c-1.4,1-2.8,2.1-4.1,3.3c-2.3-4.3-10.7-21-14.8-39.1c-4.3-18.6-7.5-44.1,0.6-49.2c7.1-4.5,19.6,3.2,24.1,30.5C120.4,55,120.9,82.6,121,87.2L121,87.2z" fill="#AFC8D1"/>
        <path d="M144.3,147.6c0,1.8-2.5,3.3-5.6,3.3c-3.1,0-5.6-1.5-5.6-3.3c0-1.8,2.5-3.3,5.6-3.3C141.8,144.3,144.3,145.8,144.3,147.6L144.3,147.6z" fill="#F491AE"/>
        <path d="M154.9,134.8c0,0,0,0.1,0,0.3c0,0.2,0.1,0.5,0.1,0.9c0.1,0.8,0.3,1.8,0.7,3.1c0.2,0.6,0.4,1.3,0.8,1.9c0.2,0.3,0.3,0.6,0.6,0.9l0.3,0.4c0.1,0.1,0.3,0.3,0.4,0.4c0.5,0.5,1.2,0.9,1.8,1.2c0.3,0.1,0.7,0.2,1.1,0.3c0.4,0,0.8,0,1.2,0.1l0.1,0l0,0c-0.2,0,0,0-0.1,0l0,0l0,0l0.1,0l0.3,0l0.7-0.1c0.2,0,0.4-0.1,0.6-0.1l0.5-0.2c0.3-0.1,0.7-0.3,1-0.5c0.3-0.2,0.6-0.4,0.9-0.7c0.5-0.5,1-1.1,1.3-1.7c0.2-0.3,0.3-0.6,0.4-0.9c0.1-0.3,0.2-0.6,0.3-0.9c0.4-1.2,0.5-2.3,0.6-3.1c0-0.4,0.1-0.7,0.1-0.9c0-0.2,0-0.3,0-0.3l0,0c0-0.3,0.3-0.5,0.6-0.5c0.3,0,0.5,0.2,0.5,0.5c0,0,0,0.1,0,0.4c0,0.2,0.1,0.5,0.1,1c0,0.4,0,0.9,0,1.5c0,0.6-0.1,1.2-0.3,1.9c-0.1,0.4-0.2,0.7-0.3,1.1c-0.1,0.4-0.3,0.8-0.4,1.2c-0.3,0.8-0.9,1.6-1.5,2.3c-0.3,0.3-0.7,0.7-1.1,1c-0.5,0.2-0.9,0.5-1.4,0.7l-0.8,0.2c-0.3,0.1-0.5,0.2-0.7,0.2l-0.7,0.1l-0.3,0l-0.1,0l0,0l0,0l-0.1,0h0l-0.2,0c-0.5,0-1,0-1.5-0.1c-0.5-0.1-1-0.2-1.5-0.4c-1-0.4-1.9-1-2.5-1.7c-0.7-0.7-1.2-1.5-1.5-2.3c-0.4-0.8-0.6-1.5-0.7-2.2c-0.3-1.4-0.3-2.6-0.4-3.4c0-0.4,0-0.7,0-1c0-0.2,0-0.3,0-0.3c0-0.3,0.3-0.5,0.6-0.5C154.6,134.3,154.8,134.5,154.9,134.8L154.9,134.8L154.9,134.8z"/>
        <path d="M153.9,147.1c0,0,0.1-0.3,0.3-0.6c0.2-0.4,0.5-0.9,0.8-1.3c0.3-0.5,0.6-0.9,0.9-1.2c0.3-0.3,0.5-0.5,0.5-0.5c0.3-0.3,0.8-0.3,1.1,0c0.2,0.2,0.3,0.6,0.2,0.8c0,0-0.1,0.3-0.3,0.6c-0.2,0.4-0.5,0.9-0.8,1.3c-0.3,0.5-0.6,0.9-0.9,1.2c-0.3,0.3-0.5,0.5-0.5,0.5c-0.3,0.3-0.8,0.3-1.1,0C153.8,147.7,153.7,147.4,153.9,147.1L153.9,147.1z"/>
        <path d="M162.3,145.1c0,0,0.1,0.3,0.1,0.8c0.1,0.5,0.1,1.1,0.1,1.7c0,0.6,0,1.2-0.1,1.7c0,0.5-0.1,0.8-0.1,0.8c-0.1,0.4-0.5,0.7-0.9,0.6c-0.3-0.1-0.6-0.3-0.6-0.6c0,0-0.1-0.3-0.1-0.8c-0.1-0.5-0.1-1.1-0.1-1.7c0-0.6,0-1.2,0.1-1.7c0-0.5,0.1-0.8,0.1-0.8c0.1-0.4,0.5-0.7,0.9-0.6C162,144.5,162.3,144.8,162.3,145.1L162.3,145.1z"/>
        <path d="M166.6,143.3c0,0,0.2,0.2,0.5,0.5c0.3,0.3,0.7,0.7,1,1.2c0.4,0.4,0.7,0.9,1,1.2c0.3,0.3,0.4,0.6,0.4,0.6c0.2,0.4,0.1,0.8-0.2,1.1c-0.3,0.2-0.7,0.2-1-0.1c0,0-0.2-0.2-0.5-0.5c-0.3-0.3-0.7-0.7-1-1.2c-0.4-0.4-0.7-0.9-1-1.2c-0.3-0.3-0.4-0.6-0.4-0.6c-0.2-0.4-0.2-0.8,0.2-1.1C165.9,143,166.3,143,166.6,143.3L166.6,143.3z"/>
        <path d="M124.2,134.8c0,0,0,0.1,0,0.3c0,0.2,0,0.5,0,1c0,0.8,0,2-0.4,3.4c-0.2,0.7-0.4,1.5-0.7,2.2c-0.4,0.8-0.8,1.6-1.5,2.3c-0.6,0.7-1.6,1.3-2.5,1.7c-0.5,0.2-1,0.3-1.5,0.4c-0.5,0.1-1,0.1-1.5,0.1l-0.2,0h0l-0.1,0l0,0l0,0l-0.1,0l-0.3,0l-0.7-0.1c-0.2,0-0.5-0.1-0.7-0.2l-0.8-0.2c-0.5-0.2-0.9-0.5-1.4-0.7c-0.4-0.3-0.8-0.6-1.1-1c-0.7-0.7-1.2-1.5-1.5-2.3c-0.2-0.4-0.3-0.8-0.4-1.2c-0.1-0.4-0.2-0.7-0.3-1.1c-0.2-0.7-0.2-1.4-0.3-1.9c0-0.6,0-1.1,0-1.5c0-0.4,0.1-0.7,0.1-1c0-0.2,0-0.4,0-0.4c0-0.3,0.3-0.5,0.6-0.5c0.3,0,0.5,0.3,0.5,0.5l0,0c0,0,0,0.1,0,0.3c0,0.2,0,0.5,0.1,0.9c0.1,0.8,0.2,1.9,0.6,3.1c0.1,0.3,0.2,0.6,0.3,0.9c0.1,0.3,0.3,0.6,0.4,0.9c0.3,0.6,0.8,1.2,1.3,1.7c0.3,0.2,0.6,0.5,0.9,0.7c0.3,0.1,0.7,0.4,1,0.5l0.5,0.2c0.2,0.1,0.3,0.1,0.6,0.1l0.7,0.1l0.3,0l0.1,0l0,0l0,0c0,0,0.1,0-0.1,0l0,0l0.1,0c0.4,0,0.8,0,1.2-0.1c0.4-0.1,0.8-0.1,1.1-0.3c0.7-0.3,1.3-0.6,1.8-1.2c0.1-0.1,0.3-0.2,0.4-0.4l0.3-0.4c0.2-0.3,0.4-0.6,0.6-0.9c0.3-0.6,0.6-1.3,0.8-1.9c0.4-1.2,0.6-2.3,0.7-3.1c0-0.4,0.1-0.7,0.1-0.9c0-0.2,0-0.3,0-0.3l0,0c0-0.3,0.3-0.5,0.6-0.5C124,134.3,124.2,134.5,124.2,134.8L124.2,134.8z"/>
        <path d="M122.9,148c0,0-0.2-0.2-0.5-0.5c-0.3-0.3-0.6-0.8-0.9-1.2c-0.3-0.5-0.6-0.9-0.8-1.3c-0.2-0.4-0.3-0.6-0.3-0.6c-0.2-0.4,0-0.9,0.5-1c0.3-0.1,0.6,0,0.8,0.2c0,0,0.2,0.2,0.5,0.5c0.3,0.3,0.6,0.8,0.9,1.2c0.3,0.5,0.6,0.9,0.8,1.3c0.2,0.4,0.3,0.6,0.3,0.6c0.2,0.4,0,0.9-0.5,1C123.4,148.2,123.1,148.2,122.9,148L122.9,148z"/>
        <path d="M117.2,145.1c0,0,0.1,0.3,0.1,0.8c0,0.5,0.1,1.1,0.1,1.7c0,0.6,0,1.2-0.1,1.7c-0.1,0.5-0.1,0.8-0.1,0.8c-0.1,0.4-0.5,0.7-0.9,0.6c-0.3-0.1-0.5-0.3-0.6-0.6c0,0-0.1-0.3-0.1-0.8c0-0.5-0.1-1.1-0.1-1.7c0-0.6,0.1-1.2,0.1-1.7c0.1-0.5,0.1-0.8,0.1-0.8c0.1-0.4,0.5-0.7,0.9-0.6C116.9,144.5,117.1,144.8,117.2,145.1L117.2,145.1z"/>
        <path d="M112.6,144.3c0,0-0.2,0.2-0.4,0.6c-0.3,0.3-0.6,0.8-1,1.2c-0.4,0.4-0.7,0.9-1,1.2c-0.3,0.3-0.5,0.5-0.5,0.5c-0.3,0.3-0.8,0.3-1.1,0c-0.3-0.3-0.3-0.7-0.1-1c0,0,0.2-0.2,0.4-0.6c0.3-0.3,0.6-0.8,1-1.2c0.4-0.4,0.7-0.9,1-1.2c0.3-0.3,0.5-0.5,0.5-0.5c0.3-0.3,0.8-0.3,1.1,0C112.8,143.6,112.8,144,112.6,144.3L112.6,144.3z"/>
        <path d="M131.1,91.8c-1.2-0.5-1.9,1.8-0.8,2.2C131.5,94.5,132.1,92.1,131.1,91.8L131.1,91.8z" fill="#BAB3BA"/>
        <path d="M137.7,100.1c-1.2-0.5-1.9,1.8-0.8,2.3C138.1,102.8,138.7,100.5,137.7,100.1L137.7,100.1z" fill="#BAB3BA"/>
        <path d="M148.8,99.4c-1.3,0-1,2.4,0.2,2.4C150.2,101.7,149.8,99.3,148.8,99.4L148.8,99.4z" fill="#BAB3BA"/>
        <path d="M144.3,102.4c-1,0-0.8,1.8,0.1,1.8C145.3,104.2,145,102.4,144.3,102.4L144.3,102.4z" fill="#BAB3BA"/>
        <path d="M152.5,107.1c-1,0-0.8,1.8,0.1,1.8C153.6,108.9,153.3,107,152.5,107.1L152.5,107.1z" fill="#BAB3BA"/>
        <path d="M157.7,96.5c-1,0-0.8,1.8,0.1,1.8C158.8,98.3,158.5,96.4,157.7,96.5L157.7,96.5z" fill="#BAB3BA"/>
        <path d="M124.3,88.7c-1,0-0.8,1.8,0.1,1.8C125.4,90.5,125.1,88.7,124.3,88.7L124.3,88.7z" fill="#BAB3BA"/>
        <path d="M128.6,105.2c1,0,0.8,1.8-0.1,1.8C127.5,107,127.8,105.2,128.6,105.2L128.6,105.2z" fill="#BAB3BA"/>
        <path d="M133.8,109.4c1.3,0,1,2.4-0.2,2.4C132.4,111.7,132.8,109.3,133.8,109.4L133.8,109.4z" fill="#BAB3BA"/>
        <path d="M151.7,92.2c0.9-1,2.5,0.7,1.7,1.7C152.7,94.8,151,93,151.7,92.2L151.7,92.2z" fill="#BAB3BA"/>
        <path d="M126.4,98.6c-1.2-0.4-1.7,2-0.6,2.3C127,101.3,127.4,98.9,126.4,98.6L126.4,98.6z" fill="#BAB3BA"/>
        <path d="M142.5,92.6c-1.3-0.1-1.3,2.3-0.1,2.4C143.6,95.1,143.5,92.7,142.5,92.6L142.5,92.6z" fill="#BAB3BA"/>
        <path d="M143.9,109.2c-1.3-0.2-1.6,2.1-0.4,2.4C144.8,111.8,144.9,109.4,143.9,109.2L143.9,109.2z" fill="#BAB3BA"/>
        <path d="M187.2,159.2c-3.8,6.9-12.1,10.7-23.3,12.8c-2.7-2.5-4.3-6.1-4.3-10.1c0-7.7,6.3-14,14-14C180.3,147.9,186,152.7,187.2,159.2L187.2,159.2z" fill="#F9DDE6"/>
        <path d="M104.8,147.8c7.7,0,14,6.3,14,14c0,3.7-1.4,7-3.8,9.5c-10.4-2.6-18.4-7-21.5-13.1c-0.4-0.8-0.8-1.8-1.1-3C94.8,150.8,99.4,147.8,104.8,147.8L104.8,147.8z" fill="#F9DDE6"/>
        <path d="M277.1,115.6c1.3,1.8,0,17.5-1.9,19c-1.9,1.5-23.8-9.8-22.6-13.4C253.9,117.7,275.2,113,277.1,115.6L277.1,115.6z" fill="#AFC8D1"/>
        <path d="M266.3,73.3c0.4-2.1,13.9-13.2,16.6-13.4c2.7-0.2,10.3,20.2,6.5,22.2C285.5,84.2,265.7,76.2,266.3,73.3L266.3,73.3z" fill="#A3CCAE"/>
        <path d="M195.2,130.3c0.2-2.1,17.5-10,20.1-9.6c2.6,0.4,1.6,18.7-0.2,19C210.6,140.5,195,131.8,195.2,130.3L195.2,130.3z" fill="#F9DDE6"/>
        <path d="M216,50.5c-2.6,0.1-14.7-12.6-14.7-14.8c0.1-2.2,22.2-4.2,22.9-2.7C226,36.4,217.9,50.4,216,50.5L216,50.5z" fill="#FFE4A8"/>
        <path d="M251.9,101.6c0.6,1.1-5.6,8.7-7,9c-1.4,0.4-6.7-9-5.9-9.5C241,99.7,251.5,100.8,251.9,101.6L251.9,101.6z" fill="#FFE4A8"/>
        <path d="M244,77.3c-0.7,1.1-11.6,2.2-12.9,1.6c-1.3-0.6,3.9-10,5-9.9C238.6,69.3,244.5,76.5,244,77.3L244,77.3z" fill="#AFC8D1"/>
        <path d="M246.2,162.3c1.1-0.7,11.7,2,12.5,3c0.8,1-8.7,7.7-9.5,7.3C247.1,171.4,245.4,162.9,246.2,162.3L246.2,162.3z" fill="#F9DDE6"/>
        <path d="M211.9,159.1c1.1,0.8,0,9.8-1,10.7c-1.1,0.9-11-5.4-10.6-6.2C201.2,161.7,211.1,158.6,211.9,159.1L211.9,159.1z" fill="#FFE4A8"/>
        <path d="M35.7,266.5c4.5-0.7,8.7-2,12.4-3.9c3.8-1.9,6.3-4.9,7.7-9c0.4-0.9,1-1.2,1.8-0.9c0.9,0.2,1.2,0.8,1,1.8c-0.8,2.4-1.9,4.4-3.4,6.1c-1.5,1.7-3.2,3.2-5.1,4.3c-1.9,1.1-4.1,2-6.4,2.7c-2.3,0.7-4.7,1.2-7.2,1.6c0.3,2.2,0,4.1-1,5.9c-0.9,1.7-2.2,3.2-3.9,4.5c-1.6,1.3-3.4,2.3-5.4,3.1c-2,0.8-3.9,1.3-5.6,1.6c-3.4,0.5-6.4,0.3-9.2-0.6c-1.9-0.4-3.3-1.3-4.4-2.6c-1-1.3-1.5-2.8-1.4-4.4c0.1-1.6,0.8-3.1,2.1-4.5c1.3-1.4,3.4-2.4,6.3-3c2.1-0.5,4.2-0.9,6.4-1.1c2.2-0.2,4.4-0.5,6.4-0.7c-0.8-1.5-2.1-2.9-4.1-4.1c-1.9-1.3-4.1-2.6-6.4-4c-2.4-1.3-4.7-2.7-7.1-4.3c-2.4-1.6-4.5-3.4-6.4-5.4c-1.9-2-3.5-4.4-4.6-7c-1.1-2.7-1.6-5.8-1.4-9.5c0.3-5.2,1.7-10.2,4.2-14.9c2.5-4.7,5.7-8.8,9.6-12.2c5.2-4.6,11.3-7.6,18.1-8.7c2.9-0.5,6.1-0.6,9.6-0.4c3.6,0.2,6.6,1.1,9,2.8c2.5,1.6,4.1,3.5,4.9,5.7c0.8,2.2,0.9,4.5,0.4,6.9c-0.5,2.4-1.4,4.7-2.8,6.9c-1.4,2.2-3,4.2-4.7,5.9c-3.1,2.9-6.6,5.3-10.5,7.2c-4,1.9-7.7,3.2-11.3,3.9c-0.9,0.2-1.4-0.1-1.6-1c-0.2-0.9,0.1-1.4,1-1.6c3.4-0.8,6.9-2.1,10.5-3.9c3.7-1.8,6.9-4,9.8-6.6c1.5-1.3,2.8-2.9,4.1-4.7c1.2-1.9,2.1-3.8,2.6-5.7c0.5-1.9,0.5-3.8,0-5.6c-0.5-1.8-1.8-3.4-3.9-4.8c-2.6-1.9-5.8-2.6-9.8-2.1c-4.1,0.3-7.8,1.4-11.2,3.3c-3.4,1.9-6.4,4.4-9.1,7.3c-3,3.2-5.3,6.7-7.1,10.7c-1.8,4-2.8,8-3.1,11.9c-0.2,3.5,0.3,6.4,1.4,8.9c1.1,2.5,2.7,4.6,4.6,6.4c1.9,1.8,4.1,3.4,6.4,4.8c2.4,1.4,4.7,2.7,7,4.1s4.4,2.7,6.3,4.1C33.4,263,34.8,264.6,35.7,266.5L35.7,266.5z M22.2,279.2c1.7-1,3.1-2.2,4.1-3.7c1.1-1.5,1.6-3.2,1.5-5.2c-2.2,0.2-4.4,0.4-6.6,0.6c-2.2,0.2-4.4,0.5-6.4,1c-2.1,0.5-3.6,1.2-4.5,2.1c-0.9,0.9-1.5,1.9-1.6,3c-0.1,1,0.3,2,1.1,2.7c0.8,0.8,2,1.3,3.5,1.5c1.5,0.2,3,0.1,4.6-0.4C19.5,280.5,21,279.9,22.2,279.2L22.2,279.2z M60.6,248c2-1.1,4.1-1.4,6.4-1c0.7,0.2,1.3,0.4,1.8,0.6c0.5,0.2,1,0.4,1.6,0.6c0.3-1.1,0.8-2,1.5-2.7c0.7-0.7,1.6-1.2,2.8-1.3c1.4-0.1,2.6,0.2,3.8,1c1.1,0.7,2,1.7,2.7,2.7c1.5,2.3,2.1,4.8,2,7.6c-0.1,2.8-0.7,5.4-1.7,7.8c1.2,0.4,2.4,0.6,3.6,0.6c1.2,0,2.4-0.3,3.5-0.9c1.4-0.6,2.6-1.7,3.7-3.2c1.1-1.5,1.9-3.6,2.5-6.1c0.2-0.9,0.7-1.2,1.6-1c1,0.3,1.3,0.9,1,1.8c-0.7,3.1-1.7,5.5-3.1,7.3c-1.4,1.8-2.9,3.1-4.6,3.9c-3,1.5-6.1,1.6-9.5,0.3c-1.1,1.9-2.3,3.3-3.6,4.3c-1.4,1.1-2.9,1.8-4.6,2.1c-1.7,0.3-3.4,0.4-5.1,0.1c-1.7-0.3-3.4-0.9-4.9-1.7c-1.5-0.8-2.9-2-4.1-3.3c-1.6-2-2.6-4.2-3-6.6c-0.4-2.4-0.1-4.8,0.7-7C56.9,251.1,58.4,249.3,60.6,248L60.6,248z M63.4,258.4c-0.1,1.6,0.1,3.1,0.7,4.5c0.5,1.4,1.2,2.7,2,3.8c1.2,1.5,2.5,2.4,4.1,2.7c1.5,0.3,3.1-0.2,4.8-1.5c1.1-1,2-2.1,2.7-3.4c-2.2-1.4-4-3.2-5.3-5.3c-1.4-2.2-2.2-4.5-2.4-7.1v-1c-1.1-0.4-2.1-0.4-2.9-0.1c-0.8,0.3-1.5,0.9-2.1,1.8c-0.5,0.8-0.9,1.8-1.2,2.8C63.6,256.5,63.4,257.5,63.4,258.4L63.4,258.4z M79,261.9c0.5-1.3,0.9-2.6,1.2-4c0.3-1.4,0.3-2.8,0.1-4.1c-0.2-1.4-0.6-2.7-1.2-3.9c-0.6-1.2-1.6-2.1-3-2.6c-0.8-0.3-1.4-0.3-1.9-0.1c-0.4,0.2-0.8,0.6-1,1.1c-0.2,0.5-0.4,1.1-0.4,1.7c0,0.6-0.1,1.3-0.1,1.9c0.2,2.1,0.9,4,2,5.8S77.3,260.8,79,261.9L79,261.9z M134.6,283.1c-4.8-2.1-8.4-5.1-10.7-9s-3.6-8.2-4.1-12.9c-0.4-4.6-0.2-9.3,0.7-14.1c0.9-4.7,2.2-9,3.9-12.7c1.4-3.1,2.9-6,4.6-8.9s3.6-5.6,5.6-8.2c2.1-2.6,4.7-5.2,7.9-8c3.2-2.8,6.8-5,10.7-6.8c2.2-1,4.4-1.8,6.7-2.4c2.3-0.6,4.7-0.9,7-0.9c2.1,0,4.1,0.2,6.1,0.7c2,0.5,3.6,1.7,4.9,3.6c1,1.6,1.6,3.3,1.7,5.2c0.1,1.9,0,3.7-0.5,5.3c-0.6,2.6-1.8,4.9-3.5,7c-1.7,2.1-3.9,3.3-6.4,3.6c-0.5,0.1-0.9,0-1.1-0.2c-0.2-0.2-0.4-0.6-0.4-1c0-0.4,0-0.7,0.2-1c0.2-0.3,0.5-0.5,1-0.6c1.9-0.2,3.5-1.1,4.8-2.8c1.3-1.7,2.2-3.6,2.7-5.8c0.3-1.3,0.4-2.7,0.4-4.1c0-1.5-0.5-2.8-1.3-4c-1-1.5-2.3-2.3-4-2.6c-1.7-0.2-3.3-0.2-4.9,0.1c-5,0.9-9.9,3.3-14.7,7.1c-4,3.1-7.6,6.8-10.8,11.3c-3.3,4.4-6,9.2-8.3,14.2c-2.2,5-3.7,10.2-4.6,15.3c-0.9,5.2-0.9,10.1-0.1,14.7c0.3,1.5,0.7,3,1.3,4.6c0.5,1.6,1.3,3.1,2.1,4.6c0.9,1.5,1.9,2.8,3.1,3.9c1.2,1.1,2.5,2,4,2.6c2.2,0.9,4.5,1.2,7.1,1c2.6-0.2,5.3-0.8,8.2-1.8c2.9-1,5.7-2.3,8.6-4c2.9-1.7,5.6-3.5,8.2-5.5c3.5-2.9,6.5-5.8,9.2-8.8c2.7-3,4.5-5.8,5.6-8.4c0.4-0.9,1-1.2,1.8-0.9c0.9,0.4,1.1,1,0.7,1.9c-1.1,2.9-3,5.9-5.8,9.2c-2.8,3.3-6,6.3-9.8,9.2c-2.8,2.1-5.6,4-8.6,5.7c-3,1.7-6,3.1-9,4.2c-3.3,1.2-6.7,1.9-10.2,2C141.2,285.1,137.8,284.5,134.6,283.1L134.6,283.1z M209.2,282.1c-1-2.8-1.6-5.7-1.7-8.9c-0.1-3.2-0.2-6.2-0.2-9c-0.3,1.5-0.6,3-1,4.5c-0.3,1.5-0.8,3-1.3,4.4c-1.6,4.5-4.1,6.9-7.4,7c-3.1,0.2-5.6-0.6-7.6-2.4c-2-1.8-3.4-4.2-4.2-7c-0.8-2.7-1.1-5.6-0.9-8.7c0.2-3.2,0.4-5.9,0.7-8.2c0.1-0.5,0.3-0.8,0.7-1c0.3-0.2,0.8-0.2,1.3,0c1.6,0.5,2.8,1.3,3.6,2.4c0.8,1.1,1.4,2.3,1.7,3.6c0.3,1.3,0.5,2.8,0.6,4.3c0,1.5,0.1,2.9,0.1,4.2c0,2.5,0.4,4.6,1.2,6.5c0.6,1.4,1.2,2.3,1.9,2.8c0.7,0.5,1.4,0.6,2.1,0.4c0.7-0.2,1.4-0.8,2-1.7c0.6-0.9,1.1-1.9,1.6-3.1c0.5-1.5,0.9-3.1,1.3-5c0.4-1.8,0.8-3.6,1.2-5.3c0.5-2.6,1-4.8,1.6-6.7c0.5-1.9,1.4-2.9,2.6-3c1.7-0.1,3,0.5,3.9,1.8c0.9,1.3,1.6,2.8,2.1,4.7c0.4,1.8,0.7,3.7,0.8,5.6c0.1,1.9,0.1,3.5,0.1,4.7c0.1,2.3,0.2,4.6,0.3,7.1c0.1,2.5,0.4,4.8,0.9,7.1c0.7,3.2,1.6,4.6,2.6,4.4c1-0.2,2.1-1.8,3.2-4.5c1.7-4.2,3-9.1,4.1-14.4c1-5.4,2-10.3,2.9-14.9c0.2-0.9,0.7-1.2,1.6-1c0.9,0.2,1.2,0.7,1,1.6c-0.8,4.6-1.7,9.7-2.8,15c-1.1,5.4-2.5,10.3-4.1,14.7c-0.8,2-1.8,3.6-2.9,4.7c-1.1,1.2-2.5,1.8-4.1,1.8c-2.4-0.1-4.3-1-5.9-2.8C211.2,285.9,210,284,209.2,282.1L209.2,282.1z M240.5,206.2c0.5-0.2,1-0.1,1.4,0.4c0.4,0.4,0.6,0.9,0.4,1.4c-0.4,1.4-0.7,2.8-1,4.3c-0.2,1.5-0.5,3-0.7,4.6c3.6,0.3,7.1,0.6,10.7,0.8c3.6,0.2,6.9,0.4,10,0.4c3.1,0,5.9,0,8.4-0.2c2.5-0.2,4.4-0.6,5.8-1.3c0.8-0.4,1.4-0.2,1.9,0.7c0.4,0.8,0.2,1.5-0.7,1.9c-1.5,0.8-3.5,1.3-6.1,1.6c-2.6,0.2-5.6,0.3-8.8,0.3c-3.3,0-6.7-0.2-10.4-0.4c-3.7-0.2-7.4-0.5-11-0.8c-0.6,5.1-1,10.4-1.2,15.7c-0.2,5.3-0.2,10.5-0.1,15.6c0.1,5.1,0.5,9.9,1,14.4s1.3,8.4,2.1,11.8c0.1,0.6,0.3,1.6,0.7,3c0.4,1.4,0.9,2.8,1.5,4c0.6,1.2,1.3,2.1,2.1,2.6c0.8,0.5,1.8,0.1,2.7-1c1.7-1.9,3.4-5.4,5.1-10.5c1.7-5.1,3.5-12.3,5.4-21.6c0.2-0.9,0.7-1.2,1.6-1c1,0.2,1.4,0.7,1.2,1.6c-2,9.6-3.9,17-5.8,22.4c-1.9,5.3-3.7,9-5.3,11.1c-1.2,1.4-2.5,2.2-4,2.4c-1.5,0.2-2.9,0.1-4.4-0.5c-1.4-0.6-2.8-1.5-4-2.7c-1.2-1.2-2.2-2.5-3-3.9c-1.1-2-2-4.2-2.7-6.7c-0.7-2.5-1.3-5-1.8-7.6c-0.4-2.6-0.8-5.2-1-7.9c-0.2-2.6-0.4-5.1-0.5-7.3c-0.2-5.4-0.2-11.2-0.1-17.4c0.1-6.2,0.7-11.9,1.7-17.3c-4.3-0.3-8.2-0.5-11.5-0.6c-3.3-0.1-5.7,0.1-7.2,0.7c-0.8,0.3-1.4,0-1.7-0.9c-0.3-0.9-0.1-1.5,0.8-1.8c1.7-0.7,4.3-1,7.9-1c3.6,0,7.7,0.3,12.2,0.7c0.6-2.3,1.5-4.3,2.8-6.1C236.3,208.1,238.1,206.9,240.5,206.2L240.5,206.2z M279,267.1c1.5-1.9,2.8-4,4.1-6.4c1.2-2.4,2.2-4.8,3-7c0.3-0.8,0.9-1,1.8-0.7c0.9,0.4,1.2,1,0.9,1.8c-0.9,2.3-2,4.7-3.3,7.3c-1.3,2.6-2.8,4.9-4.4,6.9c-2.2,2.7-4.6,4.3-7.4,5c-2.8,0.6-5.3,0.4-7.7-0.7c-2-0.9-3.5-2.1-4.6-3.6c-1.1-1.5-1.9-3.2-2.3-5c-0.4-1.8-0.6-3.7-0.4-5.6c0.1-1.9,0.5-3.7,1.1-5.3c0.8-2.6,2.1-5,3.8-7.2c1.7-2.2,3.9-3.7,6.4-4.5c2.8-0.8,4.7-0.6,5.9,0.7c1.1,1.2,1.5,3.1,1,5.7c-0.5,2-1.5,4-3,6.1c-1.5,2.1-3.7,3.7-6.5,4.7c-0.1,0.9-0.2,1.9-0.2,3c0,1.1,0,2.1,0.1,3.2c0.1,1,0.4,2,0.8,3c0.4,0.9,0.9,1.7,1.6,2.1c0.8,0.6,1.6,0.9,2.5,0.8c0.9,0,1.8-0.3,2.6-0.7c0.8-0.4,1.6-0.9,2.4-1.6C277.9,268.3,278.5,267.7,279,267.1L279,267.1z M271.8,246.5c-0.8,1.1-1.5,2.4-2.1,4.1c-0.6,1.6-1.2,3.3-1.7,5.1c1.8-1,3.2-2.2,4.1-3.7c1-1.5,1.6-2.9,1.9-4.3c0.4-1.7,0.4-2.7,0-3C273.6,244.4,272.9,245,271.8,246.5L271.8,246.5z M292.7,217.3c1.9,0.2,3.3,1.7,4.4,4.6c1,2.9,1.8,6.4,2.4,10.7c0.5,4.3,0.9,9,1,14.2c0.1,5.2,0.1,10.2,0,15.1c-0.1,4.9-0.2,9.3-0.4,13.2c-0.1,3.9-0.2,6.7-0.2,8.4c0,0.4-0.1,0.7-0.4,1c-0.3,0.3-0.7,0.4-1.2,0.3c-1.6-0.1-2.8-1.4-3.8-3.9c-0.9-2.5-1.7-5.8-2.2-9.7c-0.5-4-0.9-8.3-1.1-13.2c-0.2-4.8-0.3-9.6-0.3-14.4c0-4.2,0-8.4,0.1-12.6c0.1-4.1,0.1-8.3,0.1-12.4C291,217.6,291.6,217.1,292.7,217.3L292.7,217.3z M299,290.1c1,0.8,1.5,1.8,1.6,3c0,1.2-0.3,2.2-1.1,3.1c-0.7,0.9-1.6,1.5-2.7,1.7c-1.1,0.2-2.2,0-3.2-0.8c-1-0.8-1.5-1.8-1.6-3c0-1.2,0.3-2.2,1.1-3.1c0.8-0.9,1.8-1.5,2.9-1.7C297.1,289,298.2,289.3,299,290.1L299,290.1z" fill="#6D6E70"/>
    </symbol>
    <symbol xmlns="http://www.w3.org/2000/svg" id="icon1" viewBox="0 0 390.9 400.6">
        <path d="M65.9,400c86.7-1.1,173.3-0.9,260,0.6c12.7,0.2,25.7,0.4,37.4-4.5c20.3-8.5,32.1-33.3,26-54.4s-29.3-35.8-51-32.2l-2.5,1c1.6-22.3,2.9-45.9-7.5-65.6c-9.8-18.5-29.4-30.9-50.1-34.4s-42.2,1.3-60.8,11c-13.5,7-26.4,17.5-30.1,32.2l-3.3,5.8c-15.2-12-36.2-16.2-54.8-10.9c-8.5,2.4-16.4,6.7-24.1,11c-4.2,2.4-8.5,4.8-12,8.2c-5.4,5.1-8.8,12.1-11.4,19.1c-2.7,7.3-4.7,14.9-6,22.6l-0.8,0.7c-10.8-0.5-21.8,0.7-31.7,5c-9.9,4.4-18.4,12.3-22.1,22.4c-1.8,5-2.4,10.3-2.8,15.6c-0.3,4.3-0.5,8.7,0.8,12.9c1.2,3.8,3.5,7.2,5.8,10.4c5.8,8.3,12.1,17,21.6,20.4C52.6,399.1,59.3,400.4,65.9,400" fill="#EBF8F7"/>
        <path d="M52.9,382c68.5-0.9,136.9-0.9,205.4-0.2c16.9,0.2,33.7,0.4,50.6,0.7c15.2,0.3,31,0.9,45.1-5.7c21.3-9.9,33.3-36.3,27.2-58.8c-3.4-12.7-12.5-23.5-23.9-30.1c-10-5.8-24.7-9.8-35.9-5.3c2.1,1.6,4.2,3.2,6.3,4.8c1.3-18.6,2.5-38-3.2-56c-5-15.9-15.6-29.2-29.7-38c-30.7-19.2-71.6-14-101,5.3c-7.5,4.9-14.3,10.9-19.2,18.5c-3.4,5.3-5,11.2-8.1,16.7c2.3-0.6,4.6-1.2,6.8-1.8c-20.8-16-48-17.3-71.4-6.5c-11.6,5.4-24.2,11.7-31.5,22.7c-3.4,5.1-5.7,10.9-7.7,16.7c-1.2,3.4-2.2,6.8-3.1,10.3c-0.4,1.7-0.8,3.5-1.2,5.3c-0.3,1.3-0.2,2.8-0.3,2.9c1.2-0.5,2.4-1,3.5-1.5c-15-0.6-30.7,1.8-43.1,10.9C7.5,301.3,2,312.8,0.5,326.6c-0.8,7.6-1,15.1,2.4,22.1c2.9,6,7.4,11.7,11.7,16.9C24.2,377.2,37.9,382.6,52.9,382c6.4-0.3,6.4-10.3,0-10c-9.8,0.4-19.9-1.9-27.1-8.9c-2.8-2.7-5.2-5.8-7.5-9c-2.7-3.8-6.1-7.8-7.5-12.4c-1.5-4.8-0.8-10.2-0.3-15.1c0.5-5.2,1.7-10.3,4.3-14.9c4-6.9,10.6-12.2,17.9-15.3c4.6-2,9.7-3.3,14.8-3.9c2.4-0.3,4.8-0.5,7.2-0.5c2.7-0.1,6,0.6,8.5-0.1c3.6-1,4.3-4.5,4.9-7.7c1-5,2.3-9.9,3.8-14.8c2.9-8.8,6.7-17.7,14.3-23.4c7.4-5.6,16.7-10.3,25.4-13.6c19.2-7.4,40.5-4.1,56.8,8.4c2.1,1.6,5.6,0.3,6.8-1.8c2-3.6,3.5-6.9,5-10.7c2.7-6.9,7.8-12.6,13.5-17.2c12.4-10,28.5-16.2,44.2-18.7c30.3-4.9,64.7,8.2,76,38.5c6.7,18,5.2,37.8,3.9,56.5c-0.2,3,3.4,6,6.3,4.8c9.1-3.6,20.7-0.1,28.8,4.6c9.1,5.4,16.3,14.1,18.9,24.4c5.6,22.1-9.7,44.7-31.4,49.6c-14.6,3.3-30.5,1.6-45.4,1.4c-15.2-0.2-30.4-0.4-45.6-0.6c-30.4-0.3-60.9-0.4-91.3-0.4c-35.1,0-70.1,0.3-105.2,0.7C46.4,372,46.4,382,52.9,382L52.9,382z" fill="#2A2422"/>
        <path d="M207.5,246.2c3.8-5.9,5.4-13.2,9.9-18.7c4.8-5.9,12.9-7.5,19.9-9c6.3-1.4,3.6-11-2.7-9.6c-8.3,1.8-17.2,4.1-23.4,10.5c-5.9,6.2-7.9,14.7-12.4,21.8C195.3,246.5,204,251.6,207.5,246.2L207.5,246.2z" fill="#2A2422"/>
        <path d="M113.7,249c-12.1,4.8-21.2,15.1-23.4,28.1c-1.1,6.3,8.6,9,9.6,2.7c1.6-9.4,7.4-17.6,16.4-21.1C122.3,256.3,119.7,246.6,113.7,249L113.7,249z" fill="#2A2422"/>
        <path d="M171.5,328.8c-3.1-14-6.3-36.5,13.3-39.3c10.8-1.6,32.1,3.7,32.7,17.4c0.2,4,4.1,5.9,7.5,4.3c6.2-2.8,9-10.2,16.8-8.9c7.4,1.2,12.4,8,16.6,13.6c3.8,5.1,12.5,0.1,8.6-5c-5.8-7.8-12.4-16.1-22.5-18.2c-4.5-0.9-9.4-0.7-13.6,1.5c-4.2,2.2-6.7,6.5-11,8.4c2.5,1.4,5,2.9,7.5,4.3c-0.8-20.3-26.7-29.6-44-27.2c-10.2,1.4-18.3,7.7-22.1,17.3c-4.4,11.2-2,23.2,0.5,34.5C163.2,337.8,172.9,335.1,171.5,328.8L171.5,328.8z" fill="#2A2422"/>
        <path d="M63,278.9C48,238.8,24.4,202.2,13.6,160.5c-1.6-6.2-11.3-3.6-9.6,2.7c10.8,41.7,34.3,78.3,49.4,118.4C55.6,287.5,65.3,284.9,63,278.9L63,278.9z" fill="#2A2422"/>
        <path d="M12.9,163.9c6.7-9.1,19.5-12.9,29.7-16.5c6-2.1,12.1-4,18.2-5.6c1.5-0.4,3.1-1,4.6-1.2c2.4-0.3,3.3-0.6,4.8,1.4c1.7,2.3,2.6,5.9,3.8,8.6c10.7,24.5,21.4,49,32,73.6c2.6,5.9,11.2,0.8,8.6-5c-6.4-14.7-12.8-29.3-19.1-44c-3.3-7.5-6.5-15-9.8-22.4c-1.6-3.6-3.1-7.2-4.7-10.8c-1.3-2.9-2.3-6.2-4.6-8.5c-4.8-4.8-11.5-3-17.3-1.5c-7.4,1.9-14.7,4.2-21.8,6.9C25,143.1,12.3,148,4.3,158.8C0.5,164,9.1,169,12.9,163.9L12.9,163.9z" fill="#2A2422"/>
        <path d="M50.6,172.6c9.9-2.3,19.3-6.3,27.9-11.7c5.4-3.4,0.4-12.1-5-8.6c-7.9,5-16.4,8.6-25.5,10.7C41.6,164.4,44.3,174,50.6,172.6L50.6,172.6z" fill="#2A2422"/>
        <path d="M75.8,189.5c3.6-2.2,7.4-4.1,11.4-5.7c2.5-1,4.3-3.4,3.5-6.2c-0.7-2.4-3.6-4.5-6.2-3.5c-4.8,1.8-9.4,4-13.8,6.7C65.3,184.3,70.3,192.9,75.8,189.5L75.8,189.5z" fill="#2A2422"/>
        <path d="M70.6,219.8c8.9-4.5,17.9-8.5,27.2-12c5.9-2.3,3.4-11.9-2.7-9.6c-10.1,3.9-20,8.2-29.6,13C59.8,214,64.9,222.7,70.6,219.8L70.6,219.8z" fill="#2A2422"/>
        <path d="M100.8,90.8c11.9,43.7,23.1,87.6,33.6,131.6c1.5,6.3,11.1,3.6,9.6-2.7c-10.5-44-21.8-87.9-33.6-131.6C108.7,82,99.1,84.6,100.8,90.8L100.8,90.8z" fill="#2A2422"/>
        <path d="M150.2,76.5c11.1,44.4,22.3,88.9,33.4,133.3c1.6,6.2,11.2,3.6,9.6-2.7c-11.1-44.4-22.3-88.9-33.4-133.3C158.3,67.6,148.6,70.2,150.2,76.5L150.2,76.5z" fill="#2A2422"/>
        <path d="M110.4,87.7c-0.3-13.7-0.3-27.4-0.1-41.1c0.1-6.8,0.3-13.7,0.5-20.5c0.1-3.2-1.3-14.8,3.7-14.3c4.7,0.4,7.6,8,9.5,11.4c3.2,5.7,6.4,11.3,9.5,17.1c6.4,11.9,12.4,24,17.2,36.7c2.2,6,11.9,3.4,9.6-2.7c-5.8-15.5-13.3-30.3-21.3-44.8C135.5,23,132.1,16,127.8,10c-3.4-4.8-8.4-8.4-14.5-8.3c-15.5,0.5-12.4,23-12.7,33.2c-0.5,17.6-0.5,35.2-0.2,52.8C100.5,94.1,110.5,94.2,110.4,87.7L110.4,87.7z" fill="#2A2422"/>
        <path d="M107.2,52.8c11.2,2,21.7-0.7,30.6-7.7c5-4-2.1-11-7.1-7.1c-5.9,4.6-13.5,6.5-20.9,5.2C103.6,42,100.9,51.6,107.2,52.8L107.2,52.8z" fill="#2A2422"/>
        <path d="M103.6,84.2c5,9.7,16.3,14.2,26.7,12.4c11.5-1.9,20.3-11.3,24.8-21.7c2.5-5.9-6.1-11-8.6-5c-3.1,7.2-8.2,14.3-16.2,16.5c-7,2-14.7-0.8-18-7.3C109.3,73.4,100.6,78.5,103.6,84.2L103.6,84.2z" fill="#2A2422"/>
        <path d="M213.2,113.4c0.7,25.5-8.5,50.3-3.9,75.8c2.1-2.1,4.1-4.1,6.2-6.2c-0.2,0-0.5-0.1-0.7-0.1c1,0.8,2,1.5,3,2.3c-0.1-0.2-0.3-0.4-0.4-0.6c-3.4-5.4-12.1-0.4-8.6,5c1,1.6,2.2,2.7,4.1,3.1c3.9,0.8,6.8-2.3,6.2-6.2c-4.4-24.4,5-48.7,4.3-73.2C223.1,107,213.1,106.9,213.2,113.4L213.2,113.4z" fill="#2A2422"/>
        <path d="M258.1,115.5c3.4,23,1.8,46.5-4.3,69c-1.7,6.2,7.9,8.9,9.6,2.7c6.6-24.3,8-49.4,4.3-74.3C266.8,106.5,257.2,109.2,258.1,115.5L258.1,115.5z" fill="#2A2422"/>
        <path d="M263.3,109.2c-7.5,0.1-15,0.2-22.5,0.4c-6.3,0.1-13.9,0.8-19.3-2.9c-5.7-3.9-8.4-12.4-9.5-18.9c-1.1-7,0-14.7,4.6-20.3c4-4.9,10.2-7.5,14.7-12c4.6-4.6,8.4-10.3,11.9-15.8c7.1-11.1,11.1-24.9,3.9-36.9c-2.3,2.3-4.6,4.6-6.8,6.8c7.5,5.5,14.7,11.1,19.2,19.5c4.6,8.5,8.6,17.7,11.5,26.9c2.9,9.5,3.9,19.2,1,28.9c-2.7,9.1-7.7,17.4-12.6,25.4c-3.4,5.5,5.3,10.5,8.6,5c5.6-9.3,11.4-18.9,14.1-29.5c2.8-10.8,1.7-22-1.5-32.6c-3.1-10.3-7.7-20.7-12.9-30.1c-5.3-9.5-13.7-16-22.3-22.4c-4.2-3.1-9.3,2.8-6.8,6.8c7.9,13.2-4.6,30.6-13.7,40c-4.8,5-11.3,7.7-15.7,13c-4.3,5.2-6.7,11.7-7.3,18.4c-1.2,12.9,4.2,31.1,16.7,37.2c6.1,3,13,3.3,19.7,3.2c8.4-0.1,16.8-0.3,25.1-0.4C269.7,119.1,269.7,109.1,263.3,109.2L263.3,109.2z" fill="#2A2422"/>
        <path d="M213.1,145.3c6.3,6.8,18.2,6.7,26.8,6.9c8.7,0.3,18.9,0.6,25.6-5.8c4.7-4.4-2.4-11.5-7.1-7.1c-4.3,4-13.2,3-18.6,2.8c-5.6-0.2-15.6,0.4-19.7-4C215.8,133.5,208.7,140.6,213.1,145.3L213.1,145.3z" fill="#2A2422"/>
        <path d="M297.8,195.1c9-21.3,18-42.8,23.4-65.3c1.2-5.1,1.4-11.5,4.2-16c2.6-4.3,7.9-6.6,12.1-8.9c11.1-6,22.3-11.9,33.4-17.9c-2.4-1-4.9-2-7.3-3c3.9,16.1,7.9,32.2,11.7,48.4c1,4.1-1.2,5.4-3.9,8.2c-2.3,2.3-4.4,4.8-6.4,7.4c-4.3,5.5-8,11.5-11.2,17.7c-6.5,12.7-11.1,26.3-16,39.7c-2.8,7.5-5.7,15-9.3,22.2c-2.4,4.8-4.6,6.9-7.4,11.4c-1,1.5-0.9,3.5,0,5c0,0,0,0,0,0.1c3.2,5.6,11.8,0.6,8.6-5c0,0,0,0,0-0.1c0,1.7,0,3.4,0,5c0.8-1.3,2-2.4,3-3.7c2.1-2.8,3.7-6.1,5.2-9.3c3.4-6.9,6.2-14.1,8.9-21.3c5.5-14.7,10.3-29.7,18-43.4c3.5-6.3,7.6-12.3,12.6-17.6c4.8-5.1,9.5-9.2,8.1-16.9c-3.1-17-8.2-33.8-12.2-50.6c-0.8-3.2-4.6-4.5-7.3-3c-11.7,6.3-23.5,12.5-35.1,18.8c-4.5,2.5-9.1,5.1-12.3,9.2c-3.5,4.4-4.4,9.8-5.6,15.2c-5.2,24.5-15,47.8-24.7,70.8C285.6,198.3,295.3,200.9,297.8,195.1L297.8,195.1z" fill="#2A2422"/>
        <path d="M308.2,153c2.3,9.4,9.4,16.6,18.2,20.4c8.5,3.7,21.5,6.9,30.1,2.1c5.6-3.1,0.6-11.8-5-8.6c-5.4,3-15.9-0.3-21.1-2.6c-6.1-2.7-10.8-7.3-12.4-13.8C316.4,144.1,306.7,146.8,308.2,153L308.2,153z" fill="#2A2422"/>
        <path d="M359.1,89.4c-0.7,6.2-3.2,11.9-6.1,17.3c-2.7,5-6.9,10-7.9,15.7c-1.1,6.3,8.5,9,9.6,2.7c1.1-6.1,6.6-12.2,9.2-17.9c2.7-5.7,4.4-11.5,5.2-17.8C369.8,83,359.8,83.1,359.1,89.4L359.1,89.4z" fill="#2A2422"/>
    </symbol>
    <symbol xmlns="http://www.w3.org/2000/svg" id="icon2" viewBox="0 0 337 333">
        <path d="M291.2,34.3c-5.6,2.9-11.8,4.6-17.9,6.2C232.8,51.3,192.3,62,151.9,72.8c-6.4,1.7-12.8,3.4-19.2,4.6c-6.5,1.2-13.1,2-19.3,4.2c-2.7,1-5.7,2.6-6.3,5.5c-0.3,1.6,0.1,3.2,0.6,4.8c6.1,19.7,12.1,39.4,18.2,59.1c0.3,1.1,0.7,2.2,1.5,3c1.9,2,5.2,1.2,7.8,0.3c45.6-15.5,92.1-28.7,139.3-38.7c8-1.7,16.1-3.3,23.9-6c9.1-3.1,14-4.2,10.7-14.6c-6.5-20.1-11.9-40.6-16-61.3" fill="#EBF8F7"/>
        <path d="M270.6,22c-8.2,4.1-17.5,5.9-26.4,8.3c-9.6,2.6-19.3,5.1-28.9,7.7C196.4,43,177.5,48,158.6,53c-18,4.8-35.8,9.7-54.1,13.1c-6.5,1.2-15.9,2.7-19.4,9.2c-1.7,3.1-1.2,6.5-0.3,9.8c1.4,5.1,3.1,10.2,4.7,15.3c2.9,9.5,5.9,19.1,8.8,28.6c1.4,4.5,2.7,8.9,4.1,13.4c1.1,3.4,2.1,6.9,5.4,8.7c6.6,3.6,16.2-1.8,22.5-3.9c9.2-3,18.3-6,27.6-8.8c36.6-11.2,73.7-19.6,110.9-28.3c7.3-1.7,16.3-3.5,22.7-7.6c5.4-3.5,6.2-9.3,4.7-15.2c-2.7-10.4-6.3-20.5-9.1-30.9c-2.8-10.5-5.2-21.2-7.4-31.8c-1.3-6.3-10.9-3.6-9.6,2.7c3.4,16.6,7.5,33.1,12.3,49.4c1.2,4,2.5,7.9,3.7,11.9c0.5,1.7,1.5,3.9,0.3,5.4c-0.9,1.2-3.7,1.7-5,2.2c-3.8,1.3-7.7,2.5-11.6,3.5c-16.4,4.2-33.1,7.2-49.6,11.2c-16.5,4.1-33,8.5-49.3,13.3c-16.4,4.8-32.6,9.9-48.8,15.3c-1.7,0.6-8.2,3.7-9.2,3.2c-0.7-0.3-1.3-4-1.5-4.7c-0.8-2.5-1.6-5.1-2.3-7.6c-2.5-8.3-5.1-16.5-7.6-24.8c-1.3-4.1-2.5-8.3-3.8-12.4c-0.6-1.9-1.2-3.8-1.8-5.7c-0.6-1.9-2.4-5.1-1.7-7c0.9-2.4,6.3-3,8.5-3.6c4.1-1,8.3-1.6,12.4-2.3c16.5-3.1,32.8-8.2,49-12.5c19.3-5.1,38.5-10.3,57.8-15.4c9.3-2.5,18.6-5,27.9-7.4c8.8-2.3,17.7-4.4,25.9-8.5C281.5,27.8,276.4,19.1,270.6,22L270.6,22z" fill="#2A2422"/>
        <path d="M200.4,112.5c-2.7-9.6-11.5-16.5-21.1-19c-10.9-2.8-23.2-0.4-32,6.6c-8.9,7-14.2,18.4-13.6,29.6c0.5,9.3,4.9,18.3,11.9,24.3s16.6,9.1,25.8,8.2c4.2-0.4,8.3-1.6,12.3-3.1c4.7-1.8,9.3-4.1,12.9-7.7c2.5-2.5,4.5-5.5,6.1-8.7c2.7-5.2,4.6-10.9,4.4-16.7c-0.2-5.8-3-11.7-7.9-14.8" fill="#FFFFFF"/>
        <path d="M205.2,111.1c-4.9-15.8-21.4-24.7-37.4-23.8c-17.2,1-32.3,12.2-37.4,28.8c-5.2,16.6,1.6,35,15.9,44.6c15.3,10.3,37.1,7.8,51.3-3.5c14.4-11.5,21.5-38.3,4-50.2c-5.3-3.6-10.3,5-5,8.6c7.7,5.3,6,15.9,2.6,23.1c-3.9,8.3-9.8,13.2-18.5,16.2c-16.2,5.6-34.5-0.4-40.4-17.6c-5.2-15,3-32,17.7-37.8c13.6-5.4,32.9-1.1,37.7,14.2C197.5,119.9,207.2,117.3,205.2,111.1L205.2,111.1z" fill="#2A2422"/>
        <path d="M170.4,111.2c-4.8,0.4-9.9,1.5-13.7,4.6c-3.7,3.1-4.3,7.7-3.8,12.2c0.8,8.4,5.7,16.6,14.7,17.7c8.8,1.1,16.9-5.2,18.5-13.8c1.7-9-3.1-18.8-12.7-19.9c-6.4-0.7-6.3,9.3,0,10c3.5,0.4,3.3,7.6,2.4,9.7c-1.4,3-4.9,4.9-8.1,3.8c-3.1-1.1-4.4-4.6-4.8-7.6c-0.3-2.1-0.5-3.6,1.1-5.1c1.4-1.3,4.6-1.6,6.4-1.8C176.7,120.7,176.8,110.7,170.4,111.2L170.4,111.2z" fill="#2A2422"/>
        <path d="M265,16.2c7,19.2,13.1,38.8,18.3,58.6c2.4,9.4,4.2,19.1,7.2,28.4c1,3,2,6.6,4.7,8.5c3.6,2.5,7.9,1.2,11.8,0.5c4.6-0.9,9.2-1.9,13.8-3c4.2-1,9.9-1.6,13.4-4.4c3.1-2.4,2.8-5.8,2.2-9.2c-1-5.3-2.3-10.6-3.6-15.8c-4.7-19.8-10.2-39.5-16.4-58.9c-1.6-5.1-3.1-10.5-5.2-15.4c-1.5-3.5-4.2-5.5-8.1-5.2c-5.4,0.4-11.2,3.1-16.4,4.7c-6.1,1.8-12.1,3.6-18.2,5.4c-6.2,1.8-3.5,11.5,2.7,9.6c8.3-2.5,16.6-4.9,24.9-7.4c1.8-0.5,4.1-0.8,5.7-1.7c0.3-0.1,0.6-0.2,1-0.3c1.6-0.2,1.3-0.7-0.8-1.5c0,0,0.9,2.5,0.9,2.7c1.3,3.9,2.6,7.9,3.9,11.8c5.1,15.8,9.6,31.7,13.7,47.7c2,8,3.9,16.1,5.7,24.2c0.1,0.5,0.7,3.7,0.8,3.7c0.2-0.4,0.4-0.8,0.6-1.1c1-1.1,0.9-1.4-0.3-0.9c-1.3-0.3-4.1,1.1-5.4,1.5c-3.9,1-7.9,2-11.9,2.8c-2.1,0.5-4.3,0.9-6.5,1.3c-0.5,0.1-2.3,0.7-2.8,0.5c0.3,0.1,1.1,1.1,0.3-0.3c-1.9-3.1-2.5-8.1-3.4-11.6c-1.9-7.9-3.8-15.9-5.9-23.8c-4.9-18.2-10.6-36.2-17.1-53.9C272.5,7.5,262.8,10.1,265,16.2L265,16.2z" fill="#2A2422"/>
        <path d="M153.1,161.7c-2.3,7.2-5,14.3-8.1,21.2c-2.9,6.5-6.5,12.8-9.2,19.4c-2.7,6.7-3.3,13.7-4.8,20.7c-1.6,7.1-4.3,13.8-7.1,20.5c-2.6,6.1-5.4,12.2-7.6,18.4c-2.5,7-4.1,14.3-6.4,21.4c-4.4,14.2-11.1,27.8-16.9,41.5c-1.1,2.6-0.7,5.2,1.8,6.8c2.1,1.4,4.5,1.7,6.9,0.9c6.1-2.1,3.5-11.7-2.7-9.6c0.3,0,0.6,0.1,0.8,0.1c0.6,2.3,1.2,4.6,1.8,6.8c5.7-13.4,12-26.6,16.7-40.4c2.4-7.1,4.1-14.4,6.3-21.5c2.3-7.2,5.5-14.1,8.5-21.1c2.7-6.4,5.4-12.8,7-19.5c1.8-7.3,2.2-14.8,5-21.8c2.7-6.9,6.5-13.4,9.5-20.2c3-6.9,5.7-13.9,8-21.1C164.7,158.2,155.1,155.6,153.1,161.7L153.1,161.7z" fill="#2A2422"/>
        <path d="M163.8,168.8c3.3,52.6,1.6,105.4,1.4,158.1c0,6.4,10,6.4,10,0c0.2-52.6,1.8-105.5-1.4-158.1C173.4,162.4,163.4,162.4,163.8,168.8L163.8,168.8z" fill="#2A2422"/>
        <path d="M176,163.9c11.2,28.2,22.1,56.5,30.5,85.7c4,13.8,9.9,26.3,15.6,39.4c5.7,13.3,8.2,27.6,14.5,40.7c2.8,5.8,11.4,0.7,8.6-5c-6-12.5-8.4-26.3-13.8-39.1c-5.7-13.5-11.7-26.3-15.8-40.5c-8.2-28.6-19-56.2-30-83.8C183.3,155.4,173.7,157.9,176,163.9L176,163.9z" fill="#2A2422"/>
        <path d="M208.9,242.5c-26.2-0.6-52.4-0.2-78.5,1c-6.4,0.3-6.4,10.3,0,10c26.2-1.3,52.3-1.6,78.5-1C215.3,252.6,215.3,242.6,208.9,242.5L208.9,242.5z" fill="#2A2422"/>
        <path d="M102.5,126.4c-11.7,2.7-23.3,5.4-35,8.1c-5.7,1.3-12,2-17.5,4.1c-2.1,0-2.5,0.2-1.4,0.8c0.6,0.6,0.7,0.5,0.3-0.3c0.2-0.7-1.1-4-1.2-4.5c-0.7-2.9-1.5-5.8-2.2-8.7s-1.5-5.8-2.2-8.7c-0.3-1.3-0.7-2.6-1-3.9c-0.1-0.5-1-5.2-1.5-3.4c-0.8,0.6-0.6,0.7,0.4,0.2c0.6-0.2,1.2-0.4,1.8-0.6c1.5-0.5,3-1,4.5-1.5c2.7-0.9,5.4-1.8,8.2-2.7c11.2-3.6,22.5-6.8,33.9-9.7c6.2-1.6,3.6-11.3-2.7-9.6C72.9,89.5,58.8,93.7,45,98.3c-5.3,1.8-13.1,3-13.7,9.9c-0.2,2.9,1,6,1.7,8.8c1,3.9,2,7.7,3,11.6c1.4,5.4,1.9,14.3,6.2,18.3c4.6,4.3,12.1,1,17.4-0.3c15.2-3.5,30.5-7.1,45.7-10.6C111.4,134.5,108.8,124.9,102.5,126.4L102.5,126.4z" fill="#2A2422"/>
        <path d="M41.9,106.4c-1.4-4.5-2.7-9-4.1-13.5c-0.9-2.8-3.4-4-6.2-3.5c-9.4,1.6-18.7,3.8-27.9,6.6c-2.5,0.8-4.4,3.5-3.5,6.2c4.1,12.3,7.7,24.7,11,37.2c1.6,6.1,3.1,12.2,4.4,18.4c1.1,4.8,2.3,10.1,7.8,11.6c5,1.3,11.2-1.1,16-2.1c4.4-0.9,11.1-0.9,14.2-4.7c3.3-4.1,1.2-9.2-0.5-13.5c-2.2-5.8-4.7-11.4-7.4-16.9c-2.9-5.8-11.5-0.7-8.6,5c2.1,4.2,4.1,8.4,5.8,12.8c0.5,1.4,1.1,5,2.2,5.9c0.2,1.6,0.5,1.5,1.1-0.2c-1.2,0.3-2.5,0.5-3.7,0.8c-4.4,0.9-8.7,1.8-13.1,2.6c-1.1,0.3-2.2,0.4-3.3,0.5c0.1-0.1,0.1-0.3,0.2-0.4c-1.1-1-1.2-5.4-1.6-6.9c-4.1-17.8-9-35.5-14.8-52.9c-1.2,2.1-2.3,4.1-3.5,6.2c9.1-2.8,18.4-5.1,27.9-6.6c-2.1-1.2-4.1-2.3-6.2-3.5c1.4,4.5,2.7,9,4.1,13.5C34.1,115.2,43.8,112.6,41.9,106.4L41.9,106.4z" fill="#2A2422"/>
    </symbol>
    <symbol xmlns="http://www.w3.org/2000/svg" id="icon3" viewBox="0 0 383.7 384.2">
        <path d="M183.1,23.2c0.4,13.5,0.1,27.1-1,40.6c-0.1,1.5-0.2,3,0.3,4.4c1.7,4.9,8.6,4.5,13.8,4.4C207,72.3,217.8,78,223.8,87s7,21.2,2.6,31.1c-1.1,2.5-2.6,4.9-4.7,6.6c-1.9,1.5-4.2,2.4-6.4,3.2c-5.4,2-10.8,4.1-16.2,6.1c-7.1,2.7-14.9,5.4-22,2.8c4.4,14.1,7,28.7,7.7,43.5c-17,3.1-34.5,4-51.7,2.7c4.8-11.6,5.4-25,1.6-37c-0.8-2.4-1.7-4.8-3.5-6.6c-2.3-2.4-5.8-3.4-9.1-4c-8.7-1.6-17.8-1.2-26.4,1.1c-5.8,1.6-11.7,4.3-14.9,9.4c-1.9,3.1-2.6,6.8-3.2,10.4c-1.3,8-2,16.1-2.2,24.3c0,0.7-0.1,1.4-0.5,1.9c-0.4,0.4-1,0.5-1.6,0.6c-13.4,1.6-27.1,1-40.3-1.6c-1.4-0.3-2.8-0.6-3.6-1.8c-0.6-0.8-0.7-1.8-0.8-2.8c-0.5-4.7-1-9.5-1.5-14.2c-0.7-6.6-1.4-13.3-1.4-19.9c0.1-5.8,0.7-11.7,1.4-17.5c0.8-7,1.6-13.9,2.4-20.9c2-17.3,4-34.7,5.9-52c0.3-2.9,0.7-5.9,2.3-8.3c1.7-2.6,4.5-4.3,7.3-5.7c23-11.4,49.6-12,75.3-12.3c20.7-0.2,41.4-0.5,62.1-0.7" fill="#EBF8F7"/>
        <path d="M275,170.8c-1.3-4.7-2.7-9.3-4-14c-1.6,2.1-3.2,4.2-4.8,6.3c7.2-0.3,14.3-0.5,21.5-0.8c7.1-0.3,15.3,0.4,22.3-1c6-1.3,7.1-6,7.8-11.4c0.8-7.2,1.4-14.4,1.7-21.6c0.8-15.1,0.8-30.2,0.7-45.2c-0.1-13.6,0.2-27.5-2.6-40.9c-2.3-11.1-7.4-22.5-16.4-29.9c-10-8.3-22.6-8.6-35-9.5C236.5,0.7,206.7,0,176.8,0C147,0.1,117.1,1,87.3,2.1c-14.6,0.5-29.4,0.3-43.9,2c-11.7,1.3-23,5.4-30.6,14.8C4.6,29,4.9,41.9,4.5,54.3C3.9,69.2,3.4,84,2.9,98.8c-0.5,14.5-1,29-1.6,43.5c-0.1,4-0.3,7.9-0.4,11.9c-0.1,2.7-0.5,5.4,0.6,8c2.5,6,10.2,4.8,15.4,5c7.7,0.3,15.4,0.6,23.2,0.9c5.8,0.2,15.1,2.4,19.9-2.1c5.1-4.8,0.5-12.6-0.1-18.2c-0.7-6.6,0.5-13.3,5.4-18.1c8.3-8.4,26.9-12.6,37.6-7.4c14.5,7,12.9,26.1,7,38.2c-1.5,3.1,0.2,7.8,4.3,7.5c32.1-2.5,64.2-3.5,96.4-3.1c-1.4-2.5-2.9-5-4.3-7.5c-11,19.6-0.5,44.3,21.6,49.3c6.3,1.4,8.9-8.2,2.7-9.6c-15.7-3.5-23.5-20.4-15.6-34.6c1.9-3.3-0.5-7.5-4.3-7.5c-32.2-0.4-64.3,0.6-96.4,3.1c1.4,2.5,2.9,5,4.3,7.5c5.1-10.5,8-22.8,4-34.2c-3.4-9.7-11-17.8-21.3-20.2c-19.4-4.4-47.4,5.2-51,27c-0.9,5.3-0.5,10.7,0.6,16c0.2,0.7,0.4,2.5,0.8,3.3c0.2,0.5,0.3,1.1,0.5,1.6c1.3-0.5,1.1-0.6-0.4-0.4c-3.2-1-8.2-0.3-11.6-0.4c-6.4-0.2-12.9-0.5-19.3-0.7c-2.7-0.1-7-1-9.7-0.4c-0.6,0-1.3,0-1.9-0.1c1.3,1.8,1.8,1.9,1.6,0.3c0.8-1.3,0.2-5.4,0.2-6.9c1-27.7,2-55.4,3-83.1c0.2-6.6,0.5-13.2,0.7-19.8c0.2-6.4,0.4-13.1,3.6-18.9c5.9-10.8,18.4-14.1,29.8-14.9c27.9-2,56.1-2.3,84-3c28.2-0.7,56.4-0.9,84.5-0.2c13.9,0.4,27.8,0.9,41.7,1.8c12,0.8,27.3-0.4,37,8.1c10.1,8.9,13.3,23.3,14.3,36.1c1.1,14.7,0.7,29.6,0.7,44.3c-0.1,15.7-0.6,31.5-2.3,47.1c0-0.1-0.2,3.7-0.5,3.9c-0.6,0.4-5.1,0-6.2,0c-3.9,0.1-7.8,0.3-11.7,0.4c-7.8,0.3-15.6,0.6-23.4,0.9c-3.2,0.1-5.8,3.1-4.8,6.3c1.3,4.7,2.7,9.3,4,14C267.2,179.6,276.8,177,275,170.8L275,170.8z"/>
        <path d="M157.6,9.4c-0.8,14.5-1,29.1-0.7,43.6c0.1,3.4,3.1,5.5,6.3,4.8c9-2,19-1.9,27.1,2.9c8.3,4.9,12.2,14.2,12.5,23.6c0.3,9.3-1.9,18.6-11.6,21.8c-9.9,3.3-21.5,2.9-31.8,3.4c-3.5,0.1-5.4,3.1-4.8,6.3c2.6,14.3,5.1,28.5,7.7,42.8c1.1,6.3,10.8,3.6,9.6-2.7c-2.6-14.3-5.1-28.5-7.7-42.8c-1.6,2.1-3.2,4.2-4.8,6.3c12.7-0.5,27.8,0,39.5-5.8c11.4-5.7,14.6-19.1,13.8-30.9C212,70.7,206.6,59,196,52.5c-10.5-6.5-23.7-6.8-35.5-4.2c2.1,1.6,4.2,3.2,6.3,4.8c-0.4-14.6-0.1-29.1,0.7-43.6C167.9,3,157.9,3,157.6,9.4L157.6,9.4z" fill="#2A2422"/>
        <path d="M0.1,164.1c1,17.2,2,34.4,2.4,51.6C2.9,232.4,1.6,249.3,3,266c1.2,13.8,4.5,29.1,15,39c10.4,9.8,25.7,12.2,39.4,14.1c18.5,2.6,37.1,2.7,55.6,0.2c6.3-0.8,6.4-10.8,0-10c-19.1,2.5-38.6,2.5-57.7-0.6c-8.1-1.3-16.9-2.7-24.2-6.7c-8-4.3-12.6-11.7-15.1-20.2c-5.5-18.4-3.2-38.3-3.4-57.3c-0.2-20.2-1.3-40.4-2.5-60.6C9.8,157.7-0.2,157.7,0.1,164.1L0.1,164.1z" fill="#2A2422"/>
        <path d="M137,266c-7.7-6.5-12.3-15.9-12.5-26.1c-0.1-4.7,0.7-9.5,2.7-13.9c2.9-6.3,9.9-7.7,16.1-9c5.9-1.2,12-0.3,17.9-1.4c6-1.2,7-5.9,7.7-11.2c1.9-13.6,3.8-27.2,5.7-40.8c0.9-6.3-8.8-9-9.6-2.7c-1,7.5-2.1,14.9-3.1,22.4c-0.5,3.6-1,7.1-1.5,10.7c-0.3,1.9-0.5,3.9-0.8,5.8c-0.2,1.1-0.2,4.9-0.8,5.8c0.7,0.3,0.6,0.3-0.2,0.2c-0.9,0-1.7,0-2.6,0c-1.9,0-3.7,0.1-5.6,0.2c-3.2,0.3-6.5,0.7-9.6,1.4c-5.9,1.2-13.1,3-17.7,7.2c-7.9,7.2-9.4,20.9-8,30.8c1.5,10.7,6.7,20.6,14.9,27.6C134.8,277.2,141.9,270.2,137,266L137,266z" fill="#2A2422"/>
        <path d="M383.6,379.4c-0.8-16.3-1.6-32.7-2.4-49c-0.7-13.5,0-28-3.8-41.1c-3.7-13-12.4-19.9-24.2-25.4c-13.5-6.3-26.2-14.1-37.5-23.8c-4.9-4.1-12,2.9-7.1,7.1c10.2,8.7,21.3,16.3,33.3,22.4c5.8,2.9,12.3,5.1,17.5,9.1c4.8,3.7,7.3,9.1,8.8,14.8c3.2,12.8,2.5,26.8,3.2,39.9c0.7,15.4,1.5,30.7,2.2,46.1C373.9,385.8,383.9,385.8,383.6,379.4L383.6,379.4z" fill="#2A2422"/>
        <path d="M313.7,240.1c-5.6-19.3-12.5-38.1-20.7-56.4c-2.6-5.9-11.2-0.8-8.6,5c7.8,17.5,14.4,35.6,19.7,54C305.9,249,315.5,246.3,313.7,240.1L313.7,240.1z" fill="#2A2422"/>
        <path d="M249.8,208.3c13.4-5.8,26.9-11.6,40.3-17.4c5.9-2.5,0.8-11.2-5-8.6c-13.4,5.8-26.9,11.6-40.3,17.4C238.8,202.2,243.9,210.8,249.8,208.3L249.8,208.3z" fill="#2A2422"/>
        <path d="M245.1,206.1c5.1,14.8,7.3,38.9-13.5,41.8c-8.9,1.2-18.3,0.6-25.1-5.8c-5.8-5.5-9.1-13.2-11.7-20.6c-2.1-6.1-11.7-3.5-9.6,2.7c3.4,10,8.1,20.1,16.4,26.9c9.3,7.6,21.4,8.4,32.9,6.5c10.5-1.7,18.3-8.9,22.2-18.6c4.5-11.5,2.1-24.2-1.8-35.4C252.6,197.4,243,200,245.1,206.1L245.1,206.1z" fill="#2A2422"/>
        <path d="M150.5,243.4c13.3-5.6,26.6-11.2,39.9-16.8c5.8-2.5,3.3-12.1-2.7-9.6c-13.3,5.6-26.6,11.2-39.9,16.8C142,236.2,144.6,245.9,150.5,243.4L150.5,243.4z" fill="#2A2422"/>
        <path d="M169,283.4c-6.3-13.1-11.5-26.7-15.6-40.7c-1.8-6.2-11.5-3.5-9.6,2.7c4.3,14.8,9.9,29.2,16.6,43.1C163.2,294.2,171.8,289.2,169,283.4L169,283.4z" fill="#2A2422"/>
        <path d="M162,282.2c-20.9,7.6-39.7,28.9-28.9,51.8c10.1,21.3,41.5,26,59,11.3c4.9-4.1-2.2-11.2-7.1-7.1c-12.9,10.8-36.5,5.9-43.4-9.3c-7.5-16.5,8.4-31.8,22.9-37.1C170.7,289.6,168.1,279.9,162,282.2L162,282.2z" fill="#2A2422"/>
        <path d="M185,343.4c1.5,7.2,6.7,12.8,8.5,19.8c1.8,7.1,1.5,13.6,8.4,18c5.5,3.4,10.5-5.2,5-8.6c-2.6-1.6-2.7-5.2-3.1-7.9c-0.4-2.9-1-5.6-2.2-8.3c-2.2-5.3-5.8-10-7-15.7C193.3,334.5,183.6,337.1,185,343.4L185,343.4z" fill="#2A2422"/>
        <path d="M206.1,381.6c32.8-10.4,65-22.4,96.7-35.9c5.9-2.5,0.8-11.1-5-8.6c-30.9,13.1-62.4,24.7-94.3,34.9C197.4,373.9,200,383.5,206.1,381.6L206.1,381.6z" fill="#2A2422"/>
        <path d="M345.9,328.5c-11.2-11.6-23.6-22-36.2-32.1c-10-8-21.8-20.3-34.5-9.9c-10.3,8.4-13.7,22.7-5.2,33.4c4.1,5.2,9.7,9.1,15.4,12.5c5.3,3.2,15,6.5,16.7,12.9c3.7,13.7,13,24.8,27.6,27.4c6.3,1.1,9-8.5,2.7-9.6c-6.2-1.1-11.7-4.1-15.7-9.1c-4.2-5.3-3.8-12.2-7.7-17.5c-3.9-5.3-11-8.3-16.5-11.5c-6-3.5-13-7.4-16.3-13.7c-3.3-6.2,1-14.9,6.9-18.1c6.3-3.5,14.5,6.2,18.9,9.7c12.9,10.2,25.5,20.8,36.9,32.6C343.3,340.2,350.4,333.1,345.9,328.5L345.9,328.5z" fill="#2A2422"/>
        <path d="M265.1,357.4c3,9.8,10,18.1,19.5,22.3c5.8,2.6,10.9-6,5-8.6c-7.2-3.2-12.5-8.8-14.9-16.3C272.8,348.6,263.2,351.2,265.1,357.4L265.1,357.4z" fill="#2A2422"/>
        <path d="M304.9,246c11,20.6,27.1,42.8,22.8,67.5c-1.1,6.3,8.5,9,9.6,2.7c4.9-28.1-11.3-51.7-23.8-75.2C310.5,235.2,301.8,240.3,304.9,246L304.9,246z" fill="#2A2422"/>
    </symbol>
    <symbol xmlns="http://www.w3.org/2000/svg" id="icon4" viewBox="0 0 390.8 305.1">
        <path d="M168.5,40.2c13.3,0.3,26.6,0.5,39.9,0.8c2.5,0,7.1-0.7,9.3,0.5c1.8,1,2.9,5.5,3.7,7.3c1.3,3,2.5,6,3.5,9.1c0.6,2,2.9,7.2,2.1,9.2c0.8-1,1.5-2,2.3-3c0.9-0.5-1.7,0-2.4,0c-1.6,0-3.3,0-4.9,0.1c-3.3,0-6.5,0.1-9.8,0.1c-6.9,0-13.7,0-20.6,0c-13.4-0.1-26.8-0.3-40.2-0.7c1.4,2.5,2.9,5,4.3,7.5c5.9-10.6,10-22.1,12-34.1c1.1-6.3-8.6-9-9.6-2.7c-1.9,11.2-5.5,21.8-11,31.7c-1.9,3.4,0.5,7.4,4.3,7.5c16.6,0.5,33.3,0.7,50,0.7c8.2,0,16.3,0,24.5-0.1c6.4-0.1,12.1-1.3,11-9c-1-7.4-4-14.5-6.9-21.3c-2.5-5.7-4.3-11.6-11.3-12.5c-8.1-1.1-16.7-0.4-24.9-0.5c-8.4-0.2-16.9-0.3-25.3-0.5C162.1,30.1,162.1,40.1,168.5,40.2L168.5,40.2z" fill="#2A2422"/>
        <path d="M274.9,75.4c17.3-0.2,34.6-0.5,52-0.7c8.2-0.1,16.5-0.3,24.7-0.3c7.3,0,15.2,0.1,21.6,4.2c6.9,4.4,7.4,11.5,7,19.1c-0.4,8.6-0.8,17.2-1.2,25.7c-0.7,16.9-1.2,33.8-1.5,50.8c-0.6,34.2-0.3,68.4,0.7,102.5c0.1,3.2,1,7.2-0.6,10.2c-1.7,3.2-5.1,4.8-8.5,5.6c-7.5,1.8-16.1,0.9-23.8,0.9c-16.8,0.1-33.5,0.3-50.3,0.4c-67.2,0.7-134.5,1.6-201.7,0.7c-12.1-0.2-24.4-0.9-36.5-0.1c-7.9,0.5-15.8,0.6-23.7,0.1c-6.3-0.4-17.9,0.6-20.9-6.2c-2.5-5.7-1.2-13-0.8-19c0.4-8,0.8-16,0.9-24c0.1-16.6-0.6-33.2-1.2-49.8c-0.6-16.7-1.7-33.4-0.6-50.1c0.5-8.3,1.5-16.6,1.8-24.9c0.3-8-0.8-15.9-0.6-23.8c0.1-6.8,1.7-14.8,7.8-18.9c6.1-4,14.6-3.2,21.6-3.3c16.9-0.3,33.8-0.6,50.7-0.9c8.6-0.2,17.2-0.3,25.8-0.5c6.4-0.1,6.4-10.1,0-10c-18.5,0.3-37.1,0.6-55.6,1c-9.1,0.2-18.3,0.2-27.4,0.5c-7.1,0.2-14.7,0.8-20.7,5c-14,9.6-12,27.6-11.4,42.3c0.7,18-2.5,35.9-2.2,53.9c0.6,35.7,3.1,71.2,1.1,107c-0.4,6.5-0.7,13.2,1.8,19.3c2.9,6.9,8.7,10,15.9,11c15.4,2.2,30.3,0.9,45.7,0.9c34.5,0,68.9,0.9,103.4,0.8c36.5-0.1,72.9-0.5,109.4-0.9c18.7-0.2,37.4-0.4,56.1-0.5c9.1-0.1,18.2,0,27.3-0.2c7.1-0.1,14.4-1,20.2-5.4c5.8-4.4,7.6-10.2,7.4-17.2c-0.3-9.3-0.5-18.6-0.7-27.9c-0.4-18.6-0.5-37.2-0.4-55.8c0.1-18.9,0.5-37.8,1.1-56.7c0.3-9.3,0.7-18.6,1.1-27.9c0.4-8.4,1.8-17.4,0.3-25.8c-2.6-15.4-17.9-21.5-31.9-22.2c-18.2-0.9-36.8,0.3-55,0.5c-9.3,0.1-18.7,0.2-28,0.4C268.5,65.5,268.4,75.5,274.9,75.4L274.9,75.4z" fill="#2A2422"/>
        <path d="M125.1,68.3c5.4-17,10.1-34.5,17.8-50.6c1.2-2.6,1.6-4.4,4.2-5.4c2.1-0.8,5.6-0.5,7.8-0.7c4.5-0.3,9.1-0.5,13.7-0.6c9.4-0.3,18.8-0.6,28.2-0.8c9.4-0.1,18.8-0.1,28.2,0.3c3.4,0.1,9.4-0.6,12.6,1c3.3,1.7,5.3,8.3,6.9,11.5c8.3,16.9,16.1,34.1,24.1,51.2c2.7,5.8,11.4,0.8,8.6-5c-7.3-15.4-14.5-30.9-21.8-46.3c-2.8-6-5.6-14.6-11-18.8c-5.3-4.1-14-3.3-20.4-3.5c-17.2-0.7-34.4-0.2-51.5,0.4c-8.5,0.3-16.9,0.5-25.3,1.4c-2.9,0.3-5.8,0.5-8.1,2.5c-2.7,2.3-4.1,6.4-5.5,9.5c-7.6,16.5-12.5,34.1-18,51.4C113.5,71.8,123.1,74.4,125.1,68.3L125.1,68.3z" fill="#2A2422"/>
        <path d="M37.3,67.7c1-10.5,12.3-18.7,22.4-18.5C70.5,49.4,76.9,59.6,81,68.3c2.7,5.8,11.3,0.8,8.6-5c-6.2-13.2-17.2-25.5-33.1-23.9c-14.9,1.5-27.9,13.2-29.2,28.3C26.7,74.1,36.7,74,37.3,67.7L37.3,67.7z" fill="#2A2422"/>
        <path d="M303.3,66.6c-0.4-3.8-0.7-7.6-1.1-11.4c-0.1-1.2-1.1-5.5,0-6.5c1.1-1.1,7.5-0.1,9.2-0.1c3.6,0,7.2,0,10.8,0c6.5,0,13.7-0.7,20.2,0.7c1.5,0.3,2.8,0.8,4.1,1.5c-0.7-1.6-1-1.7-0.8-0.3c0,0.9,0,1.9,0.1,2.8c0.1,3.7,0.2,7.5,0.3,11.2c0.2,6.4,10.2,6.4,10,0c-0.2-7.7,2.3-19.1-6-23.1c-8.7-4.2-19.5-2.8-28.8-2.9c-5.2,0-10.4-0.1-15.7-0.1c-3.8,0-7.5,0.1-10.3,2.9c-6,6-2.5,17.8-1.8,25.1C293.9,73,304,73,303.3,66.6L303.3,66.6z" fill="#2A2422"/>
        <path d="M285.1,128.8c-4.2,1.4-8.6,3.1-11.6,6.5c-3.5,3.9-3.7,9.3-3.6,14.2c0.1,4.8,1.2,9.8,4.7,13.4c3.7,3.7,9.1,4.3,14.1,4.4c10.4,0.3,17.7-6.9,17.2-17.5c-0.5-10.5-8-19.1-18.3-21.2c-6.3-1.3-9,8.4-2.7,9.6c5,1,9.2,3.9,10.6,9.1c1.5,5.7-0.7,10.1-6.8,9.9c-2.1-0.1-5.4,0.1-7-1.4c-1.8-1.7-1.7-5-1.7-7.2c0-2.4-0.2-5.4,1.6-7.3c1.6-1.6,4.2-2.3,6.3-3C293.8,136.5,291.2,126.8,285.1,128.8L285.1,128.8z" fill="#2A2422"/>
        <path d="M335.7,129.1c-8.5,1.8-15.3,9.5-15.2,18.4c0.2,9.1,7.5,17.3,16.5,18.1c10.3,1,16.4-7.2,18.3-16.4c2.3-11.3-5.2-17.2-15.5-19.3c-6.3-1.3-9,8.3-2.7,9.6c4.8,1,9.5,1.9,8.3,7.8c-0.9,4.5-3.2,9.6-8.7,8.2c-9.6-2.5-6.9-15,1.6-16.7C344.7,137.5,342,127.9,335.7,129.1L335.7,129.1z" fill="#2A2422"/>
        <path d="M306,178.9c-18.2,7.9-34.7,18.9-37.8,39.9c-1.3,9.1-3,21.6,2.3,29.7c5.3,8.1,14.7,13.8,23.7,17c18.4,6.5,39.8,1,52-14.5c6.5-8.2,9.2-18.2,9.9-28.5c0.6-9.9,0.7-21.5-5.8-29.6c-5.9-7.5-15.5-10.8-24.5-12.7c-9.9-2.2-21.2-4-29.2,3.6c-4.7,4.4,2.4,11.5,7.1,7.1c4.9-4.7,13.6-2.3,19.5-1c6.2,1.4,13.2,3.2,17.9,7.8c5.8,5.6,5.3,14.8,5.1,22.3c-0.3,8.4-1.9,17-7,23.9c-8.7,12-24.4,16.9-38.6,13.2c-7.5-1.9-15.1-6-20.3-12c-5.1-5.8-3.5-16.3-2.6-23.4c2.3-18.7,17.4-27.2,33.2-34.2C316.9,184.9,311.8,176.3,306,178.9L306,178.9z" fill="#2A2422"/>
        <path d="M323.5,112.9c9.7,0.1,19.3,0.2,29,0.3c6.4,0.1,6.4-9.9,0-10c-9.7-0.1-19.3-0.2-29-0.3C317.1,102.8,317.1,112.8,323.5,112.9L323.5,112.9z" fill="#2A2422"/>
        <path d="M273.5,113.4c8.2-0.5,16.3-0.9,24.5-1.4c6.4-0.4,6.4-10.4,0-10c-8.2,0.5-16.3,0.9-24.5,1.4C267.1,103.8,267.1,113.8,273.5,113.4L273.5,113.4z" fill="#2A2422"/>
        <path d="M259.6,280.8c-2.6,1.6-5.8,1.4-8.8,1.3c-35-1.9-70,3.6-105.1,2.6c-25.6-0.8-51.2-5.1-76.7-2.5c-2.5,0.2-5,0.5-7.3-0.5c-3.9-1.8-5.1-6.7-5.6-11c-1.1-9.6-1-19.4,0.2-29c0.8-7,2.3-14,1.7-21c-0.3-4.5-1.5-8.9-2.2-13.4c-1.2-8-1.1-16.1-0.9-24.2c0.4-21.4,0.8-42.8,1.2-64.2l4-0.7c44.5-4,89.2-3.6,133.9-3.3c5.9,0,11.9,0.1,17.8,0.9c6.4,0.9,12.7,2.7,19.1,3.2c7.3,0.6,14.7-0.6,22.1-0.3c2.4,0.1,5,0.4,6.6,2.2c1.3,1.5,1.6,3.5,1.7,5.4c4,41-6.4,82.3-1.9,123.2c1,8.8,2.6,17.8,0.4,26.3L259.6,280.8z" fill="#EBF8F7"/>
        <path d="M90.1,127c-5.6,1.1-11.3,2.6-15.2,7c-3.6,3.9-6.1,10.3-5.5,15.7c1.1,11.4,11.3,21.7,22.9,21.2c11.4-0.5,21.2-10.7,21.5-22.1c0.4-13.2-10.3-20.4-22-22.2c-6.3-1-9,8.6-2.7,9.6c6.3,1,13.5,2.9,14.6,10.3c1,6.7-4.5,13.8-11.4,14.4c-6.4,0.5-12-5.5-12.9-11.7c-1.2-8.4,7.1-11.3,13.4-12.5C99.1,135.4,96.4,125.7,90.1,127L90.1,127z" fill="#2A2422"/>
        <path d="M239.9,260.4c-4.2,2.1-11.5,0.3-16,0.2c-5.8-0.1-11.7-0.1-17.5,0.1c-11.7,0.3-23.4,1.1-35,1.8c-23.6,1.3-46.8,1.1-70.4-0.7c-11.8-0.9-23.6-1.8-35.4-1.6c-5.5,0.1-11.3,1.3-16.7,1c-5.1-0.3-4.9-6.7-5.2-10.6c-0.9-11.8,0.4-23,1.8-34.7c1.4-11.8-2-22.5-2.6-34.2c-0.6-12.7,0.2-25.6,0.4-38.3c0.3-13.6,0.5-27.2,0.8-40.9c-1.2,1.6-2.4,3.2-3.7,4.8c9.6-1.6,19.5-1.9,29.2-2.4c12.5-0.7,24.9-1.1,37.4-1.3c25.1-0.5,50.2-0.5,75.3,0c11.3,0.2,22.1,3.7,33.4,4.2c5.5,0.3,11-0.4,16.6-0.5c3.2,0,5.9-0.7,7,2.7c0.9,2.8,0.5,6.6,0.7,9.5c1.2,24.4-2,48.7-3.2,73.1c-0.7,13.6-0.8,27.2,0.6,40.7c0.7,6.8,2,13.9,1.3,20.8c-0.4,3.6-1,6.9-1.1,10.6c-0.2,6.4,9.8,6.4,10,0c0.1-3,0.5-5.8,0.9-8.7c0.9-6.9-0.1-13.8-0.9-20.7c-1.4-12.6-1.6-25.2-1.1-37.8c1.1-26.3,4.8-52.4,3.4-78.8c-0.2-4.7,0.1-11-2.3-15.3c-2.7-5-8.3-5.9-13.5-5.9c-6.1-0.1-12.3,0.8-18.4,0.5c-6.3-0.3-12.5-2-18.7-3c-12.4-1.9-25.2-1.3-37.7-1.4c-13.5-0.1-26.9-0.1-40.4,0c-15.1,0.2-30.2,0.5-45.3,1.3c-11.9,0.6-24,0.9-35.8,3c-2.2,0.4-3.6,2.8-3.7,4.8c-0.5,25.1-1.8,50.3-1.3,75.4c0.2,12.8,4.2,25.1,2.7,37.9c-1.5,12.6-2.9,24.9-1.5,37.6c1,9.1,4.4,17.7,15,17.7c5.9,0,11.8-0.9,17.7-1c6.6-0.1,13.1,0.2,19.7,0.6c12.8,0.8,25.6,2.1,38.4,2.6c13,0.6,26,0.2,39-0.5c13.9-0.7,27.9-1.7,41.8-2.2c7.1-0.2,14.3-0.3,21.4-0.1c6.3,0.2,12.3,1.2,18.1-1.7C250.7,266.2,245.7,257.6,239.9,260.4z" fill="#2A2422"/>
        <path d="M39.7,237.8c15.7,3.7,32.4,2.5,48.4,2.6c16.9,0.1,33.8,0.1,50.7,0.2c34.1,0.1,68.2,0.3,102.3,0.4c6.4,0,6.4-10,0-10c-33.4-0.1-66.9-0.3-100.3-0.4c-16.6-0.1-33.1-0.1-49.7-0.2c-16-0.1-33.1,1.5-48.7-2.2C36.1,226.7,33.4,236.3,39.7,237.8L39.7,237.8z" fill="#2A2422"/>
        <path d="M241.7,232.2c-16.1-24.3-37-44.5-58.1-64.4c-1.8-1.7-4-1.7-6.1-0.8c-14.9,6.6-26.3,19.8-37.8,30.9c-11.7,11.2-23.2,22.6-32.5,36c-3.7,5.3,5,10.3,8.6,5c8.8-12.6,19.9-23.4,31-34c11-10.5,21.7-23,35.8-29.3c-2-0.3-4-0.5-6.1-0.8c20.4,19.3,40.9,38.8,56.5,62.4C236.6,242.6,245.2,237.6,241.7,232.2L241.7,232.2z" fill="#2A2422"/>
        <path d="M129.1,210.1c-6.1-5.8-12-12.2-18.5-17.6c-5.3-4.4-10.9-0.3-15.8,2.8c-6.2,3.9-10.2,8.6-13.9,14.7c-3.9,6.4-9.3,10.8-15.2,15.2c-5.1,3.8-0.1,12.5,5,8.6c4.6-3.4,9.3-6.9,13.2-11.1c4.1-4.6,6.4-10.5,10.7-14.8c1.9-1.9,4.3-3.4,6.6-4.8c1.4-0.8,2.8-1.5,4.2-2.3c0.5-0.2,0.9-0.5,1.4-0.7c-2.3,0.4-2.5,1.1-0.5,2.2c1.2,2.4,5.2,4.9,7.1,6.8c2.8,2.7,5.7,5.4,8.5,8.1C126.7,221.6,133.8,214.5,129.1,210.1L129.1,210.1z" fill="#2A2422"/>
    </symbol>
    <symbol xmlns="http://www.w3.org/2000/svg" id="facebook" viewBox="0 0 96.1 96.1">
        <path d="M72.1,0L59.6,0c-14,0-23.1,9.3-23.1,23.7v10.9H24c-1.1,0-2,0.9-2,2v15.8c0,1.1,0.9,2,2,2h12.5v39.9c0,1.1,0.9,2,2,2h16.4c1.1,0,2-0.9,2-2V54.3h14.7c1.1,0,2-0.9,2-2l0-15.8c0-0.5-0.2-1-0.6-1.4s-0.9-0.6-1.4-0.6H56.8v-9.2c0-4.4,1.1-6.7,6.8-6.7l8.4,0c1.1,0,2-0.9,2-2V2C74,0.9,73.2,0,72.1,0z" fill="#436FC7"/>
    </symbol>
    <symbol xmlns="http://www.w3.org/2000/svg" id="telegram" viewBox="0 0 512 512">
        <path d="M200.9,323.9L192.4,443c12.1,0,17.4-5.2,23.7-11.5l56.8-54.3l117.7,86.2c21.6,12,36.8,5.7,42.6-19.9l77.3-362.1l0,0c6.8-31.9-11.5-44.4-32.6-36.6L23.8,218.8c-31,12-30.5,29.3-5.3,37.1l116.1,36.1l269.7-168.8c12.7-8.4,24.2-3.8,14.7,4.7L200.9,323.9z" fill="#039BE5"/>
    </symbol>
    <symbol xmlns="http://www.w3.org/2000/svg" id="whatsapp" viewBox="0 0 58 58">
        <path d="M0,58l4.988-14.963C2.457,38.78,1,33.812,1,28.5C1,12.76,13.76,0,29.5,0S58,12.76,58,28.5S45.24,57,29.5,57c-4.789,0-9.299-1.187-13.26-3.273L0,58z" fill="#2CB742"/>
        <path d="M47.683,37.985c-1.316-2.487-6.169-5.331-6.169-5.331c-1.098-0.626-2.423-0.696-3.049,0.42c0,0-1.577,1.891-1.978,2.163c-1.832,1.241-3.529,1.193-5.242-0.52l-3.981-3.981l-3.981-3.981c-1.713-1.713-1.761-3.41-0.52-5.242c0.272-0.401,2.163-1.978,2.163-1.978c1.116-0.627,1.046-1.951,0.42-3.049c0,0-2.844-4.853-5.331-6.169c-1.058-0.56-2.357-0.364-3.203,0.482l-1.758,1.758c-5.577,5.577-2.831,11.873,2.746,17.45l5.097,5.097l5.097,5.097c5.577,5.577,11.873,8.323,17.45,2.746l1.758-1.758C48.048,40.341,48.243,39.042,47.683,37.985z" fill="#FFFFFF"/>
    </symbol>
    <symbol xmlns="http://www.w3.org/2000/svg" id="viber" viewBox="0 0 322 322">
        <path d="M275.4,135.1c0.4-45.4-38.3-87-86.2-92.8c-1-0.1-2-0.3-3.1-0.5c-2.4-0.4-4.8-0.8-7.3-0.8
		c-9.8,0-12.4,6.9-13.1,11c-0.7,4,0,7.4,1.9,10c3.3,4.4,9,5.2,13.6,5.8c1.3,0.2,2.6,0.4,3.7,0.6c43,9.6,57.5,24.7,64.6,67.4
		c0.2,1,0.3,2.3,0.3,3.7c0.3,5.1,1,15.7,12.4,15.7h0c1,0,2-0.1,3-0.2c10.6-1.6,10.3-11.3,10.1-16c0-1.3-0.1-2.6,0-3.4
		C275.4,135.5,275.4,135.3,275.4,135.1z" fill="#8A38AD"/>
        <path d="M176.1,25.7c1.3,0.1,2.5,0.2,3.5,0.3c70.7,10.9,103.2,44.4,112.2,115.6c0.2,1.2,0.2,2.7,0.2,4.3
		c0.1,5.6,0.3,17.1,12.7,17.4l0.4,0c3.9,0,7-1.2,9.2-3.5c3.9-4,3.6-10.1,3.4-14.9c-0.1-1.2-0.1-2.3-0.1-3.3
		c0.9-72.9-62.2-138.9-135-141.4c-0.3,0-0.6,0-0.9,0c-0.1,0-0.4,0-0.9,0c-0.7,0-1.6-0.1-2.6-0.1c-1.1-0.1-2.4-0.2-3.8-0.2
		c-11.6,0-13.8,8.2-14.1,13.2C159.8,24.5,170.8,25.3,176.1,25.7z" fill="#8A38AD"/>
        <path d="M288.4,233.7c-1.5-1.1-3.1-2.3-4.5-3.5c-7.7-6.2-15.9-11.9-23.9-17.5c-1.6-1.1-3.3-2.3-4.9-3.4
		c-10.2-7.1-19.3-10.6-28-10.6c-11.6,0-21.8,6.4-30.2,19.1c-3.7,5.6-8.2,8.4-13.8,8.4c-3.3,0-7-0.9-11.1-2.8
		c-32.8-14.9-56.3-37.7-69.7-67.9c-6.5-14.6-4.4-24.1,7-31.8c6.5-4.4,18.5-12.6,17.7-28.3c-1-17.8-40.2-71.3-56.8-77.4
		c-7-2.6-14.4-2.6-21.9-0.1c-19,6.4-32.7,17.6-39.5,32.5C2.4,64.7,2.7,81.6,9.8,99.1c20.6,50.7,49.7,94.8,86.2,131.3
		c35.8,35.7,79.8,64.9,130.8,86.9c4.6,2,9.4,3.1,12.9,3.8c1.2,0.3,2.2,0.5,3,0.7c0.4,0.1,0.8,0.2,1.3,0.2l0.4,0c0,0,0,0,0,0
		c24,0,52.8-21.9,61.6-46.9C313.9,253.2,299.7,242.4,288.4,233.7z" fill="#8A38AD"/>
        <path d="M186.7,83.6c-4.1,0.1-12.7,0.3-15.7,9c-1.4,4.1-1.2,7.6,0.5,10.5c2.5,4.3,7.4,5.6,11.9,6.3
		c16.1,2.6,24.4,11.5,26,28c0.8,7.7,6,13.1,12.6,13.1h0c0.5,0,1,0,1.5-0.1c8-1,11.9-6.8,11.5-17.5c0.1-11.1-5.7-23.7-15.6-33.8
		C209.5,89,197.6,83.3,186.7,83.6z" fill="#8A38AD"/>
    </symbol>
    <symbol xmlns="http://www.w3.org/2000/svg" id="smile" viewBox="0 0 512 512">
        <circle cx="256" cy="256" r="256" fill="#FFE57D"/>
        <path d="M399.7,208.3c-8.8,0-16-7.2-16-16c0-17.6-14.3-32-32-32s-32,14.4-32,32c0,8.8-7.2,16-16,16s-16-7.2-16-16c0-35.3,28.7-64,64-64s64,28.7,64,64C415.7,201.2,408.5,208.3,399.7,208.3z" fill="#3C3D3A"/>
        <path d="M207.7,208.3c-8.8,0-16-7.2-16-16c0-17.6-14.4-32-32-32s-32,14.4-32,32c0,8.8-7.2,16-16,16s-16-7.2-16-16c0-35.3,28.7-64,64-64s64,28.7,64,64C223.7,201.2,216.5,208.3,207.7,208.3z" fill="#3C3D3A"/>
        <path d="M437.7,294.7c-3-4-7.7-6.4-12.7-6.4H86.4c-5,0-9.7,2.3-12.7,6.3c-3.1,4-4,9.2-2.7,14c23.1,82.2,99.1,139.6,184.7,139.6s161.5-57.4,184.7-139.6C441.7,303.8,440.7,298.7,437.7,294.7z" fill="#FAFAFA"/>
    </symbol>
</svg>