<?xml version="1.0" encoding="utf-8"?>
<!-- Generator: Adobe Illustrator 23.0.0, SVG Export Plug-In . SVG Version: 6.00 Build 0)  -->
<svg version="1.1" id="Layer" xmlns="http://www.w3.org/2000/svg" xmlns:xlink="http://www.w3.org/1999/xlink" x="0px" y="0px"
	 viewBox="0 0 426.6 512" style="enable-background:new 0 0 426.6 512;" xml:space="preserve">
<style type="text/css">
	.st0{fill:#9C9CA8;}
</style>
<path class="st0" d="M213.3,512c11.7,0,21.3-9.6,21.3-21.3V65.1L389.9,228c4.1,4.4,9.9,6.7,15.5,6.7c5.3,0,10.5-2,14.7-5.9
	c8.5-8.1,8.8-21.6,0.8-30.1L243.5,12.5c-8-8-18.8-12.5-30.1-12.5c-11.3,0-22.1,4.4-30.5,12.9L5.9,198.7c-8.1,8.5-7.7,22,0.8,30.1
	c8.5,8.1,22,7.7,30.1-0.8L192,64.4v426.3C192,502.4,201.6,512,213.3,512L213.3,512z"/>
</svg>
