<?xml version="1.0" encoding="utf-8"?>
<!-- Generator: Adobe Illustrator 21.1.0, SVG Export Plug-In . SVG Version: 6.00 Build 0)  -->
<svg version="1.1" id="Layer_1" xmlns="http://www.w3.org/2000/svg" xmlns:xlink="http://www.w3.org/1999/xlink" x="0px" y="0px"
	 viewBox="0 0 1147.3 1474.5" style="enable-background:new 0 0 1147.3 1474.5;" xml:space="preserve">
<style type="text/css">
	.st0{fill:#101014;}
	.st1{fill:#2388C1;}
	.st2{fill:#191920;}
	.st3{fill:#E28A8A;}
	.st4{fill:#262630;}
	.st5{fill:#2D2D38;}
	.st6{fill:url(#SVGID_1_);}
	.st7{fill:#FFF0D0;}
</style>
<g>
	<g>
		<path class="st0" d="M123.8,1353.1v-204.9h212.8V848.6C138.6,898.6,0,1013.9,0,1148.2C0,1225.9,46.5,1297.1,123.8,1353.1z"/>
		<path class="st0" d="M673.2,1148.2h316.9v204.9c6.9-5,13.2-10.3,19.6-15.5V958.7c-79.5-65.1-198.4-112.4-336.6-129.6V1148.2z"/>
		<path class="st1" d="M556.9,821.9c-78.3,0-152.7,9.6-220.4,26.6v299.6h336.6v-319C635.7,824.5,596.8,821.9,556.9,821.9z"/>
		<path class="st0" d="M1113.9,1148.2c0-70.7-38.8-136-104.1-189.5v378.8C1075,1284.2,1113.9,1218.9,1113.9,1148.2z"/>
		<path class="st2" d="M123.8,1148.2v204.9c102.1,74,258.1,121.4,433.2,121.4s331.1-47.4,433.2-121.4v-204.9H123.8z"/>
		<circle class="st3" cx="527.3" cy="1134.7" r="0"/>
		<ellipse class="st4" cx="556.9" cy="1148.2" rx="433.2" ry="253.8"/>
	</g>
	<ellipse class="st5" cx="564.3" cy="1132" rx="213.2" ry="119.7"/>
	<g>
		<g>
			<linearGradient id="SVGID_1_" gradientUnits="userSpaceOnUse" x1="8.5452" y1="569.3837" x2="1147.3127" y2="569.3837">
				<stop  offset="0" style="stop-color:#FFE7B3"/>
				<stop  offset="1" style="stop-color:#FFBE15"/>
			</linearGradient>
			<circle class="st6" cx="577.9" cy="569.4" r="569.4"/>
		</g>
		<g>
			<path class="st7" d="M747.8,227c2.8,2.2,5,5.9,3.6,9.2c4.1,1,8.3,1.4,12.4,1.2c-2.6,5.6-2.9,12.3-0.6,18.1c0.5,1.3,1.1,2.6,1.3,4
				c0.4,4.5-4.2,9.2-1.7,13c1.5,2.3,5,2.4,7.4,1.3c2.5-1.2,4.4-3.3,6.5-5c5-4,14.2-6.6,15.4-13.8c1.2-7.4-2.6-11.3-8.6-13.6
				c-4.8-1.8-6.9-7.3-9.5-11.7c-2.9-4.9-6.9-8.9-10.9-12.9c-3.7-3.7-8.5-7.8-13.6-6.6c1.2-1.7,2.4-3.6,2.6-5.7
				c0.2-2.1-0.8-4.5-2.9-5c-2.8-0.7-5.2,2.4-5.8,5.2c-0.6,2.8-0.5,6-2.3,8.3c-1,1.3-2.6,2.2-3,3.7c-0.4,1.5,0.4,3,1.4,4.1
				C741.6,223.4,745,224.8,747.8,227z"/>
			<path class="st7" d="M656.4,94.7c1.6-1.8,3-4.2,2.1-6.4c-1.2-3-5.5-3-8.6-2c-3.1,1-6.6,2.5-9.4,0.8c-1.5-0.9-2.3-2.6-3.8-3.5
				c-3.7-2.5-8.5,0.7-12.9,1c-1.8,0.1-3.7-0.3-5.5-0.6c-5.7-0.7-11.1,0.5-16.4,2.4c-10,3.6-19.8,9.9-30.5,11.1
				c-3.5,0.4-7,0.3-10.3,1.3c3.1,0.5,5.8,2.9,6.7,5.9c-4.7-0.3-9.3-0.5-14-0.8c-2.7-0.1-5.8-0.1-7.5,2c-1.5,1.9-1.1,4.7,0.3,6.6
				c1.4,1.9,3.6,3.1,5.9,3.9c5.4,2.1,11.2,2.8,17,2.2c-1.2,9.7-2.3,19.5-3.5,29.2c-0.1,0.5-0.1,1-0.1,1.5c-0.1,1.7,0.1,3.5,1.5,4.6
				c0.9,0.8,2.3,1,3,1.9c1.4,1.8-0.5,4.3-2,6.1c-3.7,4.5-4.6,10.8-3.8,16.5c0.9,5.8,3.4,11.1,6.1,16.3c2.9,5.4,7.1,11.3,13.3,11.6
				c4.9,0.2,9.1-3.4,12.6-6.9c1.6-1.6,3.1-3.3,4.7-5c8.9-9.2,17.5-18.8,25.3-28.9c4-5.2,5.6-6.9,11.5-8.7c6.5-2,12.6-5.4,17.9-9.6
				c0.9-0.7,1.8-1.5,2.3-2.6c0.8-1.9,0-4-0.8-5.9c-1.5-3.5-3.4-7.3-7-8.5c0.8-2.1,1.5-4.2,2.3-6.3c1.3,0,2.7,0.1,4,0.1
				c1.7-6.4-0.2-13.5-4.4-18.5c-1.3-1.5-2.8-2.9-4.5-3.9C651.1,99.7,654,97.4,656.4,94.7z"/>
			<path class="st7" d="M479.3,137.1c0.3,1.6,1.8,2.7,3.1,3.6c2.8,1.9,5.7,3.9,9,4.8c3.3,0.9,7.2,0.6,9.7-1.7
				c1.7-0.1,2.5,2.1,2.2,3.8c-0.3,1.7-1.2,3.4-0.6,4.9c0.4,1.1,1.4,1.9,1.9,2.9c2.3,4.4-7,12.5-10.4,14.4
				c-1.9,1.1-20.9,1.4-20.8,3.3c0,3.4,4.5,4.4,7.8,5.2c5.1,1.2,9.8,4.2,13.1,8.4c1.4,1.8,2.6,3.9,4.2,5.6c1.7,1.6,4,2.8,6.3,2.3
				c2.3-0.5,3.9-3.4,2.7-5.4c3.2,0.2,5.3,4.4,8.5,4c2.7-0.3,3.8-3.7,3.5-6.4c-0.4-2.7-1.6-5.3-1.2-7.9c0.5-3.3,3.3-5.7,6.2-7.4
				c2.9-1.7,6-3.1,8.2-5.7c2.1-2.6,2.6-6.9,0-9c-0.9-0.7-2-1.1-2.9-1.8c-3.1-2.9,0.2-8.6-2.1-12.3c-0.6-1.1-1.7-1.8-2.6-2.6
				c-4.7-3.9-7.7-9.5-10.6-14.9c-1.8,3.3-4.8,7.2-8.4,6.1c1.6-1,2.7-2.9,2.6-4.8c-4.3-0.5-8.8,1-12,4c-2-1,0.9-3.9,0.6-6.1
				c-0.2-1.3-1.7-2.1-3-2c-1.3,0.1-2.5,0.9-3.6,1.7c-3.2,2.3-6.2,4.9-9,7.7C480.3,133.2,478.8,135.1,479.3,137.1z"/>
			<path class="st7" d="M200.1,574.4c-2.1-1.3-4.6-2.1-6.4-3.8c-3.8-3.4-4.1-9.2-3.1-14.1c1.3-6.6,4.2-12.9,8.5-18.1
				c2.3-2.8,5.1-5.3,6.6-8.6c1.6-3.3,1.7-7.6-1-10.1c-4.1-3.8-10.9-0.3-14.5,4c-3.6,4.3-6.9,9.9-12.5,10.8
				c-6.9,1.1-12.3-5.7-16-11.6c-3.3-5.2-6.5-10.5-9.8-15.7c-1-1.7-2.1-3.4-2.4-5.3c-0.7-3.8,1.4-7.5,3.4-10.8
				c15.7-25,34.1-48.3,54.8-69.3c5.9,2.4,5.4,12.1,11.1,14.7c6.8,3.1,13.9-6.7,21.1-4.7c3.5,1,5.7,4.5,7.2,7.8
				c6.3,13.3,9,28.2,7.9,42.9c4-0.1,6.8-0.7,10.8-0.8c0.3-10.3,2.8-20.4,7.3-29.6c4.5-9.2,10.9-17.5,18.8-24
				c8.7-7.2,19-12.2,27.8-19.3c8.8-7.1,16.3-17.2,16-28.5c-0.1-2.9,0.3-7,3.2-7c0.4,4.6,0.8,9.3,1.2,13.9
				c11.3-16.5,28.2-29.1,47.3-35.1c4.7-1.5,10.2-3.1,12-7.7c-1.7-1.3-2.9-3.3-3.1-5.4c8.6-4.7,17.2-9.3,25.8-14
				c4.4-2.4,11.3-3.9,13.1,0.7c-2.9,4.3-9.9,7.7-7.7,12.4c1.9,4.1,8.2,2.3,12-0.2c7.8-5,15.6-10,23.4-15c3.4-2.2,6.9-4.4,9-7.9
				c2.1-3.4,2.2-8.4-0.7-11.1c-4.7-0.2-8,6.6-12.6,5.6c-1.4-0.3-2.5-1.3-3.5-2.3c-2.9-2.7-5.8-5.3-8.7-8c6.8-0.3,12.9-3.7,19.2-6.3
				c12.1-4.9,25.5-6.7,36.5-13.7c11-7,18.5-22.4,11.2-33.2c-3.5-5.1-10.2-9.4-9.3-15.5c0.5-3.3,3-5.8,5.5-8c2.4-2.2,5-4.8,5.3-8.1
				c0.4-3.3-2.9-7-5.9-5.7c-1.5,0.7-2.4,2.2-3.4,3.6c-4.6,6.3-14.6,7.7-20.8,2.9c5.3-7.7,4.6-19-1.8-25.9c-1.2-1.3-2.5-2.4-4.1-3
				c-3.4-1.3-7.4,0-10.5,1.9c-15.2,9.1-20.3,30.6-36.5,37.7c-11.4,5-25.2-1.5-36.1-7.6c-5-2.8-10.2-8.7-7-13.5
				c0.8-1.3,2.2-2.2,3.5-3c14.1-9.3,28.1-18.6,42.2-27.9c4.7-3.1,10.1-6.4,15.7-5.4c-1.3,2.1-3.3,3.6-4.8,5.6
				c-1.5,2-2.3,4.9-0.7,6.8c1.4,1.8,4,1.8,6.3,1.8c4.8-0.2,9.6-0.4,14.5-0.5c-3.3-9.5,2.3-21.1,11.8-24.4c1.9-0.6,3.9-1,5.4-2.4
				c1.5-1.3,1.8-4.1,0.2-5.1c-0.9-0.6-2-0.4-3.1-0.3c-4.7,0.6-9.3,1.3-14,1.9c-2.7-5.3,0.6-11.9,5.3-15.5c4.7-3.7,10.5-5.5,15.4-8.9
				c-3.4-3.3-8.9-2.1-13.4-0.8c-5.9,1.8-12.6,4.2-14.8,9.9c-0.6,1.6-0.8,3.3-1.4,4.8c-2,5.3-7.6,8.3-12.7,10.8
				c-1.1-1.5,0-3.6,1.4-4.9c1.4-1.2,3.2-2.3,3.7-4.1c1-3.9-4.5-5.9-8.5-6c2,3.8-2,8-5.8,10.2c-3.2,1.8-7.4,3.2-10.2,0.9
				c-1.2-1-1.9-2.6-2.8-3.8c-3.2-4.1-10.4-3.9-13.4,0.4c-1.4,2-3.6,5.1-5.4,3.4c2.8-1,1.5-5.5-1.2-6.8c-2.7-1.3-5.9-1-8.4-2.5
				c-2.3-1.3-3.5-3.8-5.3-5.8c-8.2-8.7-23.9-2.4-34-8.9c-2.1-1.4-3.9-3.4-4.6-5.8c-0.2-0.8-0.4-1.7-0.3-2.6c0.2-1.6,0.9-3.1,1.3-4.7
				c0.8-3,0.5-6.2-0.9-8.9c-6.7-0.1-13.6-0.1-20.4,0.2c-18.3,0.6-36.4,3.2-51.9,12.4c-9.2,5.4-17.7,13.3-28.3,14.1
				c-1.7,0.1-3.5,0.1-5.3,0.2c-1.3,0-2.6,0-3.9,0.2c-6.4,1-11.8,6.2-13.3,12.4c-2.3,1.7-4.6,3.4-6.8,5.2c-7.2,4-15.9,5.5-24,4
				c-1.1,1,0.8,2.4,2.3,2.6c3.6,0.5,7.3,1.6,11,2.4c1.8,0.4,3.6,0.8,5.4,1.1c-0.4,0.4-0.2,1.2,0.3,1.5c0.5,0.3,1.1,0.3,1.7,0.3
				c3.7,0,7.4,0,11.1,0c0.1,0,0.1,0,0.2,0c1.6,0,3.7-0.4,3.9-2c0-0.3,0-0.6-0.1-1c-0.1-0.3-0.1-0.5-0.2-0.8
				c-0.2-1.8,1.5-3.3,3.3-3.5c0.9-0.1,1.8,0,2.7,0.3c0.8,0.3,1.7,0.6,2.4,1c1.6,0.8,3.2,1.8,4.9,2c2.7,0.4,5.8-1,8.1,0.6
				c0.8,0.6,1.4,1.4,1.9,2.2c1.9,2.9,3.2,5.9,4.9,8.9c-5.4,9.9-13.9,18.2-24,23.3c-1.6,0.8-3.3,1.7-3.8,3.4c-0.5,2,1.2,4.1,0.8,6.2
				c-0.2,1.4-1.3,2.4-2.3,3.3c-7.9,7.2-16.5,14.6-24.4,21.8c-0.2-1.8-2.6-2.6-4.2-1.9c-1.7,0.7-2.7,2.3-3.7,3.8
				c-15.6,23.7-28.6,48.1-50.9,65.6c-15.9,12.4-27.1,30.1-34.8,48.7c-7.7,18.7-12.1,38.5-16.5,58.2c-4.2,18.9-8.4,38.1-7.1,57.4
				c0.2,2.7,1.5,6.3,4.2,5.8c5.7-26.4,11.4-52.7,17.1-79.1c0.5-2.4,3.3-5.5,4.8-3.4c0.4,0.5,0.4,1.2,0.4,1.9
				c-0.1,11.1-5.7,21.2-8.3,32c-2.8,11.8-1.9,24.1-1,36.1c1.6,20.9,3.4,41.8,5.3,62.7c0.4,4.4,0.8,8.9,2.3,13c1.8,5,5,9.3,8.3,13.4
				c10.9,13.3,23.6,25.1,37.6,35c10.8,7.6,22.5,14.2,31.1,24.1c10.6,12.3,15.5,29.2,13.1,45.2c-0.2,1.2-0.4,2.5-0.1,3.7
				c1,4.3,6.9,4.7,11.3,4c-3.2,2.6-0.2,8.4,3.9,8.9c4.1,0.4,7.8-2.5,10.4-5.7c-9-16.9-15.2-35.4-18-54.3
				C209.6,590.4,208.2,579.5,200.1,574.4z"/>
			<path class="st7" d="M484.8,756.1c-8.2,3.1-16.1,7.2-23.2,12.4c-3.7-12.6-10.7-25-14.5-37.5c-1.4-4.6-2.8-9.3-4.9-13.7
				c-1.2-2.6-2.5-5.1-4.2-7.4c-3.6-4.7-8.3-8.3-13-11.8c-6.9-5.2-13.8-10.3-20.7-15.5c0.6,4.6,1.1,9.6-1.6,13.4
				c-2.6,3.8-9.7,4.2-11.1-0.2c-1.7-5.5-6.4-11.9-8.1-17.4c-2.9-9.4-6.3-19.4-14.1-25.5c-9.1-7.1-21.8-6.8-32.4-11.3
				c-11.4-4.8-22.4-15.3-34.2-11.5c4,4.7,1.5,12.8-3.9,15.7c-5.4,2.9-12.4,1.5-17.4-2.1c-4.2-3-7.3-9.5-3.6-13.2
				c2.2-2.2,6.2-2.4,7.7-5.2c1.4-2.5-0.3-5.8-2.8-7.2c-2.5-1.4-5.5-1.4-8.4-1.4c-2.7,0-5.3,0.1-8,0.1c-1,0-2.1,0.1-2.9,0.7
				c-0.7,0.6-0.9,1.6-1,2.6c-1.8,11.3-2.2,20.5-4,31.7c-5.8,0.7-11.6,1.4-17.4,2.1c3.5,10.3,4.5,21.4,3,32.2
				c-0.9,6.6-2.8,13.1-5.6,19.2c-3,6.5-7.1,12.7-8.3,19.8c-1.8,10.3,2.7,20.4,4.5,30.7c3.7,21-3.7,43.7,4.3,63.5
				c9,22.4,35.4,34.7,42.5,57.7c1.5,4.8,2.7,10.5,4.6,15.3c2.1,5.2,5.2,9.3,10.6,9.9c2.4,0.3,4.7-0.2,7.1-0.7
				c0.6-0.1,1.3-0.2,1.9-0.3c11.8-1.4,22.1,6.6,30.8,15.2c1.1,1.1,2.3,2.3,3.3,3.4c2.1,2.1,4.2,4.4,4.7,7.4c0.4,2.5-0.5,5-1.3,7.4
				c-8.4,27.9,9.5,56.2,26.4,79.8c3.7,5.1,7.4,10.2,11.1,15.3c17.2,23.5,35.5,46.2,58.6,63.7c16,12.1,37.6,21.5,55.7,12.9
				c-22.5-8.9-41.1-27.3-50.3-49.7c6,1.2,12.5-1.6,16.2-6.4c0.9-1.1,1.6-2.3,2.2-3.6c2.9-7,0.2-15.8-6.1-20
				c12.4,1.1,28.2,0.2,32.9-11.3c1.8-4.3,1.4-9.2,1.7-13.9c1.3-19,13.7-34.1,25.2-49.8c7.7-10.6,15-21.4,18.1-33.9
				c4.4-17.9-0.5-36.9,2.3-55.1c2.9-18.4,13.5-37.3,6.2-54.4C532.7,783.8,492.7,781.7,484.8,756.1z"/>
			<path class="st7" d="M1109.4,534c-4,4.1-8.7,7.5-13.7,10.2c-0.7,0.4-1.4,0.8-2.2,1.2c-0.8,0.4-1.7,0.7-2.5,0.3
				c-0.7-0.4-1-1.3-1.2-2.1c-6.4-26.9-19.4-51.9-34.4-75.2c-15-23.3-32.1-45.1-47.8-67.9c-0.8-1.2-1.7-2.6-1.4-4
				c0.3-1.4,2.6-2.1,3.2-0.8c0.8,2.8,1.7,5.6,3.4,8c1.7,2.3,4.6,4.1,7.5,3.7c0.1-1.8,0.7-4.1,2.5-4.3c1.5-0.2,2.6,1.3,3.4,2.6
				c11.4,19.3,23.8,38,37,56.1c13.5,18.5,28.4,37.3,32.4,59.8c0.1,0.3,0.2,0.6,0.2,0.9c5-33,7.6-66.4,7.9-99.8
				c0.1-11.5-8.7-22.6-17.4-30.2c-0.8,3.1-1.5,6.2-2.3,9.3c-3-0.7-5.2-3-7.2-5.5c-1-1.2-2-2.5-3-3.7c-6.2-7.7-15.2-13.5-18.4-22.8
				c3.2-1.7,6.9,1.3,9.3,3.9c2.5,2.8,5.1,5.5,7.6,8.3c0,0.1,0.1,0.1,0.2,0.1c-43.1-138.4-143.5-252.5-274.3-316.4
				c4.5,3.2,8.1,7.5,10.4,12.5c-3.1-0.9-6-1.4-9.1-2.4c-1.9,0.5-2.1,3.4-0.7,4.9c1.4,1.5,3.5,1.9,5.4,2.3c6,1.5,11.6,4.6,16,8.9
				c-2.9,1.5-5.9,3.1-8.8,4.6c6.6,3.8,9.7,12.6,7.1,19.6c-2.9-0.6-5.7-1.2-8.6-1.8c-1.4,2.1,0.3,4.9,2.5,6.1
				c2.1,1.3,4.7,1.7,6.6,3.2c3.4,2.7,3.7,7.7,3.7,12.1c-6.1-2.1-12-5.2-17.2-9.1c-0.3-0.3-0.7-0.6-0.8-1c-0.1-0.6,0.3-1.1,0.7-1.5
				c1.3-1.4,2.6-2.8,3.9-4.1c-4.5-3.4-9.4-6.4-14.4-9c-1-0.5-2.1-1-3.2-0.8c-1.1,0.2-1.9,1.1-2.7,1.8c-4.1,3.8-9.7,5.2-15.2,6.8
				c-1.4,0.4-2.9,0.9-4.2,1.4c-6.6,2.5-13.4,8.4-12,15.3c3.5,0.3,6.2,3.3,7.2,6.6c1,3.3,0.7,6.9,0.5,10.3c-0.5,7.5-0.9,15-0.9,22.5
				c0,4.7,0,9.6,2.1,13.9c3.5,7.4,11.8,11.1,19.4,14.1c2.5,1,6.2,1.5,7.2-1c0.5-1.3-0.2-3,0.6-4.2c1.3-2.3,4.7-0.6,6.6,1.2
				c7.1,7.2,13.4,15.2,18.6,23.8c3.7-3,4.2-8.5,2.7-13c-1.5-4.4-4.7-8.1-7.6-11.8c-10.3-13-18.6-29.3-15.5-45.6
				c3.2-0.1,5.8,2.5,7.4,5.3c1.5,2.8,2.5,5.9,4.5,8.4c6.3,7.5,20.3,5.5,25,14.1c1.7,3.1,1.7,6.8,1.6,10.3c-0.1,2.7-0.1,5.4-0.2,8.1
				c-0.1,6.5-0.3,13.1-2.8,19c-2.5,5.9-7.9,11.1-14.4,11.4c-3.2,0.1-6.7-1.2-8.4-3.9c-1.4-2.2-1.9-5.3-4.3-6.2
				c-2.9-1.1-5.7,2.3-5.6,5.4c0,3.1,1.8,5.8,2.8,8.7c1.9,5.7,0.8,12.3-2.9,17c-1.1,1.4-2,2.8-3,4.3c-3,4.7-5.4,9.6-9.4,13.7
				c-3,3-6.4,6-7.4,10.2c-1.5,6.5,3.6,12.5,8.4,17.1c4.9,4.6,10.4,9.9,10,16.6c-0.3,5.3-4.5,9.7-9.1,12.4c-4.6,2.7-9.8,4.3-14.4,7
				c-2.7,1.6-5.3,3.7-6.7,6.5c-2.3,4.3-1.7,9.6-0.9,14.4c1.3,7.7,3.1,15.3,5.4,22.8c2.2,7.2,6.3,15.5,13.8,15.9c5,0.3,9.3-3.2,14-5
				c4.1-1.6,8.6-1.9,12.9-3.1c0.5-0.1,1.1-0.4,1.6-0.5c3.7-1.3,7.2-3.4,8.9-6.9c2.5-5.3-0.3-11.5-1.3-17.3
				c-2.1-12.7,4.8-25,11.4-36.1c2.7-4.6,5.9-9.5,10.9-11c5.8-1.8,11.9,1.6,17.1,4.8c13.2,8.2,26.8,16.9,35.2,30
				c0.8,1.2,1.5,2.5,1.2,3.9c-0.4,2-2.7,3.1-3.6,5c-1.4,2.7,0.6,5.9,3,7.6c2.5,1.7,5.5,2.4,8,4c5-10.4,5.6-22.9,1.5-33.8
				c1.5-0.2,2.3-2.1,1.8-3.6c-0.5-1.5-1.8-2.5-3.1-3.3c-7.3-4.5-16.1-6-23.9-9.5c-7.8-3.5-15.4-10.5-15-19.1c0-0.9,0.2-1.8,0.7-2.4
				c0.6-0.7,1.5-0.9,2.4-1c7.4-0.9,13.4,5.5,18.6,10.9c15.4,16.1,34.7,28.4,55.8,35.6c-1.6-5.7-5-10.9-9.7-14.6
				c-1.9-1.6-4.3-3.2-4.4-5.7c-0.1-2.3,1.8-4.2,3.6-5.6c1-0.8,2.2-1.7,3.5-1.7c2.7,0,4.1,3.2,4.9,5.8c1.6,4.9,4.1,9.5,7.2,13.6
				c1.1,1.4,2.2,2.8,3.5,4.1c5,5.3,11.4,9.7,13.8,16.6c2.8-1.4,4.6-4.3,4.6-7.4c8.1-1.6,15.5-6.1,20.8-12.4c3.6,7.9,7,15.7,8.9,24.1
				c1.6,7,2.4,14.9-1.4,21c-2.6,4.2-6.9,6.9-11.1,9.4c-6,3.7-12.1,7.3-18.4,10.4c-3.1,1.5-6.2,2.9-9.5,4c-3.9,1.3-8.3,2.6-10.3,6.1
				c-1.1,2-1.5,4.6-3.5,5.7c-1.5,0.8-3.4,0.5-5,0c-9.3-2.3-18.6-4.6-27.9-6.9c-3.8-0.9-7.7-1.9-10.8-4.4
				c-8.1-6.4-6.7-18.9-10.4-28.5c-1.4-3.6-3.8-7.1-7.4-8.5c-4.5-1.8-9.6,0.2-14,2.2c-20.4,9.2-39.7,20.5-58.9,31.9
				c-3.2,1.9-6.4,3.8-9.6,5.7c-8.8,5.3-18.2,11.4-21.4,21.1c-1.6,4.9-1.5,10.6-4.7,14.7c-1.9,2.4-4.7,4.1-6.3,6.7
				c-1.7,2.7-1.8,6.1-2.1,9.3c-1.1,13.6-5.5,26.9-12.9,38.4c-3.6,5.7-12.7,7.3-15.3,13.5c-1.6,3.7-1.6,7.9-1.9,12
				c-1.3,17.3-8.4,34.2-10,51.2c-0.5,5.3-0.5,10.5,0.4,15.8c1.9,11.4,7.6,21.7,13.3,31.7c7.7,13.7,15.5,27.5,25.6,39.5
				c9.9,11.7,21.7,21.6,33.5,31.4c3.8,3.1,7.7,6.4,12.5,7.6c12.3,3.4,23.6-7,35.7-11.1c12.1-4.1,25.4-1.8,38.1-2.8
				c9.7-0.7,19.2-3.4,28.9-4.7c1.6-0.2,3.3-0.4,4.8,0.2c1.9,0.7,3.2,2.3,4.4,3.9c3.1,4.2,5.9,8.6,8.6,13.1c2.4,4.1,4.7,8.3,6.7,12.6
				c14.4,30.7,0.5,66,1.4,99.9c0.3,12.1,0.6,24.4-1.4,36.3c-1.1,6.6-3,13-4.9,19.4c-5.6,19.1-11.6,38-17.9,56.8
				c-3.9,11.7-7.7,23.3-11.8,34.9c-0.9,2.6-1.8,5.2-1.5,7.9s2.4,5.4,5.2,5.4c3,0,5-2.8,6.9-5.1c3.9-4.7,9.2-8.3,15.1-10
				c1.4-0.4,2.8-0.8,3.8-1.8c1.1-1.1,1.4-2.9,1.8-4.4c2-7.4,8.5-12.6,14.4-17.5c30.3-24.8,56-55.6,73.2-90.7
				c16.8-34.4,25.9-73.3,50.3-102.8c5.6-6.8,7.6-17.7,11.3-25.7c4.2-9.3,6.8-19.4,7.6-29.7c0.7-8.7,0-17.4-0.1-26.1
				c-0.4-32.9,7-65.4,14.3-97.5C1111.9,550.9,1109,542.3,1109.4,534z"/>
		</g>
	</g>
</g>
</svg>
